<svg width="385" height="68" viewBox="0 0 385 68" fill="none" xmlns="http://www.w3.org/2000/svg">
<rect width="385" height="68" rx="10" fill="#EC1F90" fill-opacity="0.4"/>
<path d="M116.422 45V23.1818H130.612V26.495H120.374V32.4183H129.877V35.7315H120.374V41.6868H130.697V45H116.422ZM152.574 23.1818V45H149.058L138.778 30.1385H138.597V45H134.644V23.1818H138.181L148.451 38.054H148.643V23.1818H152.574ZM164.274 45H156.881V23.1818H164.423C166.589 23.1818 168.45 23.6186 170.006 24.4922C171.568 25.3587 172.768 26.6051 173.606 28.2315C174.444 29.858 174.863 31.804 174.863 34.0696C174.863 36.3423 174.441 38.2955 173.596 39.929C172.758 41.5625 171.547 42.8161 169.963 43.6896C168.386 44.5632 166.49 45 164.274 45ZM160.833 41.5803H164.082C165.602 41.5803 166.87 41.3033 167.885 40.7493C168.901 40.1882 169.665 39.3537 170.176 38.2457C170.687 37.1307 170.943 35.7386 170.943 34.0696C170.943 32.4006 170.687 31.0156 170.176 29.9148C169.665 28.8068 168.908 27.9794 167.907 27.4325C166.912 26.8786 165.677 26.6016 164.199 26.6016H160.833V41.5803ZM200.677 30.1491C200.499 29.5739 200.254 29.0589 199.942 28.6044C199.636 28.1428 199.267 27.7486 198.834 27.4219C198.407 27.0952 197.917 26.8501 197.363 26.6868C196.809 26.5163 196.206 26.4311 195.552 26.4311C194.381 26.4311 193.336 26.7259 192.42 27.3153C191.504 27.9048 190.783 28.7713 190.258 29.9148C189.739 31.0511 189.48 32.4361 189.48 34.0696C189.48 35.7173 189.739 37.1129 190.258 38.2564C190.776 39.3999 191.497 40.2699 192.42 40.8665C193.344 41.456 194.416 41.7507 195.638 41.7507C196.746 41.7507 197.704 41.5376 198.514 41.1115C199.331 40.6854 199.959 40.0817 200.4 39.3004C200.84 38.5121 201.06 37.5888 201.06 36.5305L201.955 36.669H196.032V33.5795H204.885V36.2003C204.885 38.0682 204.487 39.6839 203.692 41.0476C202.896 42.4112 201.802 43.4624 200.41 44.201C199.018 44.9325 197.42 45.2983 195.616 45.2983C193.606 45.2983 191.841 44.8473 190.322 43.9453C188.809 43.0362 187.626 41.7472 186.774 40.0781C185.929 38.402 185.506 36.4134 185.506 34.1122C185.506 32.3509 185.755 30.7777 186.252 29.3928C186.756 28.0078 187.459 26.8324 188.361 25.8665C189.263 24.8935 190.322 24.1548 191.536 23.6506C192.751 23.1392 194.072 22.8835 195.499 22.8835C196.706 22.8835 197.832 23.0611 198.876 23.4162C199.92 23.7642 200.847 24.2614 201.657 24.9077C202.474 25.554 203.145 26.321 203.67 27.2088C204.196 28.0966 204.54 29.0767 204.704 30.1491H200.677ZM210.835 45H206.616L214.297 23.1818H219.176L226.868 45H222.649L216.822 27.6562H216.651L210.835 45ZM210.973 36.4453H222.479V39.62H210.973V36.4453ZM229.742 23.1818H234.578L241.056 38.9915H241.311L247.789 23.1818H252.625V45H248.833V30.0107H248.63L242.6 44.9361H239.767L233.737 29.9787H233.534V45H229.742V23.1818ZM256.929 45V23.1818H271.12V26.495H260.882V32.4183H270.385V35.7315H260.882V41.6868H271.205V45H256.929Z" fill="white"/>
</svg>
