<svg width="385" height="69" viewBox="0 0 385 69" fill="none" xmlns="http://www.w3.org/2000/svg">
<rect y="0.0374756" width="385" height="68" rx="10" fill="url(#paint0_linear_247_1687)"/>
<path d="M116.422 45.0375V23.2193H130.612V26.5325H120.374V32.4558H129.877V35.769H120.374V41.7243H130.697V45.0375H116.422ZM152.574 23.2193V45.0375H149.058L138.778 30.176H138.597V45.0375H134.644V23.2193H138.181L148.451 38.0915H148.643V23.2193H152.574ZM164.274 45.0375H156.881V23.2193H164.423C166.589 23.2193 168.45 23.6561 170.006 24.5297C171.568 25.3961 172.768 26.6426 173.606 28.269C174.444 29.8954 174.863 31.8415 174.863 34.1071C174.863 36.3798 174.441 38.3329 173.596 39.9665C172.758 41.6 171.547 42.8535 169.963 43.7271C168.386 44.6007 166.49 45.0375 164.274 45.0375ZM160.833 41.6177H164.082C165.602 41.6177 166.87 41.3407 167.885 40.7868C168.901 40.2257 169.665 39.3912 170.176 38.2832C170.687 37.1682 170.943 35.7761 170.943 34.1071C170.943 32.438 170.687 31.0531 170.176 29.9522C169.665 28.8443 168.908 28.0169 167.907 27.47C166.912 26.916 165.677 26.639 164.199 26.639H160.833V41.6177ZM200.677 30.1866C200.499 29.6113 200.254 29.0964 199.942 28.6419C199.636 28.1802 199.267 27.7861 198.834 27.4594C198.407 27.1326 197.917 26.8876 197.363 26.7243C196.809 26.5538 196.206 26.4686 195.552 26.4686C194.381 26.4686 193.336 26.7633 192.42 27.3528C191.504 27.9423 190.783 28.8088 190.258 29.9522C189.739 31.0886 189.48 32.4736 189.48 34.1071C189.48 35.7548 189.739 37.1504 190.258 38.2939C190.776 39.4373 191.497 40.3074 192.42 40.904C193.344 41.4934 194.416 41.7882 195.638 41.7882C196.746 41.7882 197.704 41.5751 198.514 41.149C199.331 40.7228 199.959 40.1192 200.4 39.3379C200.84 38.5495 201.06 37.6263 201.06 36.568L201.955 36.7065H196.032V33.617H204.885V36.2378C204.885 38.1057 204.487 39.7214 203.692 41.0851C202.896 42.4487 201.802 43.4998 200.41 44.2385C199.018 44.97 197.42 45.3358 195.616 45.3358C193.606 45.3358 191.841 44.8848 190.322 43.9828C188.809 43.0737 187.626 41.7846 186.774 40.1156C185.929 38.4395 185.506 36.4508 185.506 34.1497C185.506 32.3883 185.755 30.8152 186.252 29.4302C186.756 28.0453 187.459 26.8699 188.361 25.904C189.263 24.9309 190.322 24.1923 191.536 23.688C192.751 23.1767 194.072 22.921 195.499 22.921C196.706 22.921 197.832 23.0986 198.876 23.4537C199.92 23.8017 200.847 24.2988 201.657 24.9451C202.474 25.5915 203.145 26.3585 203.67 27.2463C204.196 28.1341 204.54 29.1142 204.704 30.1866H200.677ZM210.835 45.0375H206.616L214.297 23.2193H219.176L226.868 45.0375H222.649L216.822 27.6937H216.651L210.835 45.0375ZM210.973 36.4828H222.479V39.6575H210.973V36.4828ZM229.742 23.2193H234.578L241.056 39.029H241.311L247.789 23.2193H252.625V45.0375H248.833V30.0481H248.63L242.6 44.9736H239.767L233.737 30.0162H233.534V45.0375H229.742V23.2193ZM256.929 45.0375V23.2193H271.12V26.5325H260.882V32.4558H270.385V35.769H260.882V41.7243H271.205V45.0375H256.929Z" fill="white"/>
<defs>
<linearGradient id="paint0_linear_247_1687" x1="193" y1="0.0374756" x2="193" y2="68.0375" gradientUnits="userSpaceOnUse">
<stop stop-color="#EC1F90"/>
<stop offset="1" stop-color="#861252"/>
</linearGradient>
</defs>
</svg>
