<svg width="686" height="120" viewBox="0 0 686 120" fill="none" xmlns="http://www.w3.org/2000/svg">
<path d="M35.8604 35.0732C35.8604 35.0732 36.8213 34.2725 38.7432 32.6709C40.585 31.0693 41.5059 30.2686 41.5059 30.2686C41.5059 30.2686 41.9062 28.8672 42.707 26.0645C43.5078 23.3418 44.3086 20.4189 45.1094 17.2959C45.8301 14.8135 46.4707 12.6113 47.0312 10.6895C47.5918 8.76758 47.8721 7.80664 47.8721 7.80664C47.8721 7.80664 47.0312 7.7666 45.3496 7.68652C43.5879 7.52637 42.3867 7.56641 41.7461 7.80664C41.1855 7.9668 40.7051 8.24707 40.3047 8.64746C39.9043 9.04785 39.584 9.52832 39.3438 10.0889C39.0234 11.21 38.583 12.7715 38.0225 14.7734C37.3818 16.8555 36.7412 19.0176 36.1006 21.2598C35.2197 24.7031 34.3789 27.8662 33.5781 30.749C32.7773 33.7119 32.377 35.1934 32.377 35.1934C32.377 35.1934 32.9775 35.1533 34.1787 35.0732C35.2998 35.0732 35.8604 35.0732 35.8604 35.0732ZM35.6201 46.6045C35.2197 46.3643 34.1387 46.2842 32.377 46.3643C30.6953 46.3643 29.6543 46.3643 29.2539 46.3643C29.2539 46.3643 28.8135 47.9258 27.9326 51.0488C27.0518 54.1719 26.1309 57.4951 25.1699 61.0186C24.5293 63.4209 23.9287 65.623 23.3682 67.625C22.7275 69.707 22.2871 71.2285 22.0469 72.1895C21.9668 72.4297 22.0469 72.71 22.2871 73.0303C22.5273 73.2705 22.7275 73.3906 22.8877 73.3906C22.8877 73.3906 24.0088 73.3906 26.251 73.3906C28.4131 73.3906 29.4941 73.3906 29.4941 73.3906C29.4941 73.3906 29.8945 71.9893 30.6953 69.1865C31.416 66.3838 32.2568 63.3809 33.2178 60.1777C33.7783 58.0156 34.3389 56.0137 34.8994 54.1719C35.3799 52.25 35.7803 50.8486 36.1006 49.9678C36.1807 49.4873 36.2607 48.8867 36.3408 48.166C36.4209 47.3652 36.1807 46.8447 35.6201 46.6045ZM23.9688 -0.000976562C23.9688 -0.000976562 24.3691 -0.000976562 25.1699 -0.000976562C25.9707 -0.000976562 27.0117 -0.000976562 28.293 -0.000976562C30.7754 -0.000976562 33.9785 -0.000976562 37.9023 -0.000976562C41.8262 -0.000976562 45.75 -0.000976562 49.6738 -0.000976562C54.6387 -0.000976562 59.043 -0.000976562 62.8867 -0.000976562C66.7305 -0.000976562 68.6523 -0.000976562 68.6523 -0.000976562C68.6523 -0.000976562 68.1719 1.64062 67.2109 4.92383C66.3301 8.28711 65.3691 11.8105 64.3281 15.4941C63.4473 18.457 62.6865 21.1396 62.0459 23.542C61.4053 25.8643 61.085 27.0254 61.085 27.0254C61.085 27.0254 59.9639 27.8662 57.7217 29.5479C55.5596 31.2295 53.2773 32.9512 50.875 34.7129C48.873 36.2344 47.1113 37.5557 45.5898 38.6768C44.0684 39.8779 43.3076 40.4785 43.3076 40.4785C43.3076 40.4785 44.1484 40.5186 45.8301 40.5986C47.5918 40.7588 49.3936 40.8789 51.2354 40.959C52.7568 41.1191 54.1182 41.2393 55.3193 41.3193C56.5205 41.3994 57.1211 41.4395 57.1211 41.4395C57.1211 41.4395 56.5605 43.3213 55.4395 47.085C54.3984 50.8486 53.3174 54.7725 52.1963 58.8564C51.2354 62.2998 50.3945 65.3027 49.6738 67.8652C48.9531 70.5078 48.5928 71.8291 48.5928 71.8291C48.5928 71.8291 47.3115 72.5098 44.749 73.8711C42.2666 75.2324 39.624 76.6738 36.8213 78.1953C34.5791 79.4766 32.5771 80.5977 30.8154 81.5586C29.0537 82.5195 28.1729 83 28.1729 83C28.1729 83 26.9717 83 24.5693 83C22.2471 83 19.5645 83 16.5215 83C12.8379 83 9.31445 83 5.95117 83C2.50781 83 0.786133 83 0.786133 83C0.786133 83 0.946289 82.5195 1.2666 81.5586C1.50684 80.5977 1.86719 79.2363 2.34766 77.4746C3.22852 74.2715 4.42969 70.0273 5.95117 64.7422C7.39258 59.377 8.9541 53.6914 10.6357 47.6855C12.7178 40.3184 14.7598 33.0312 16.7617 25.8242C18.7637 18.6172 20.4453 12.6914 21.8066 8.04688C22.4473 5.56445 22.9678 3.60254 23.3682 2.16113C23.7686 0.719727 23.9688 -0.000976562 23.9688 -0.000976562ZM77.3008 74.4717C77.7012 74.4717 78.2217 74.4717 78.8623 74.4717C79.5029 74.4717 79.8232 74.4717 79.8232 74.4717C79.8232 74.4717 80.1836 73.2705 80.9043 70.8682C81.5449 68.3857 82.2656 65.7432 83.0664 62.9404C83.5469 61.0986 84.0273 59.3369 84.5078 57.6553C84.9883 56.0537 85.3486 54.8125 85.5889 53.9316C85.8291 53.1309 85.4287 52.1699 84.3877 51.0488C83.3467 49.8477 82.5059 49.2471 81.8652 49.2471C81.3848 49.2471 80.8242 49.2471 80.1836 49.2471C79.543 49.2471 79.2227 49.2471 79.2227 49.2471C79.2227 49.2471 78.8623 50.4883 78.1416 52.9707C77.501 55.373 76.7803 57.9756 75.9795 60.7783C75.4189 62.7002 74.8984 64.502 74.418 66.1836C74.0176 67.7852 73.6973 69.0264 73.457 69.9072C73.2168 70.6279 73.6572 71.5488 74.7783 72.6699C75.8193 73.8711 76.6602 74.4717 77.3008 74.4717ZM104.207 54.1719C104.207 54.1719 103.887 55.4131 103.246 57.8955C102.525 60.3779 101.725 63.2607 100.844 66.5439C99.7227 70.4678 98.6416 74.2314 97.6006 77.835C96.6396 81.4385 96.1592 83.2402 96.1592 83.2402C96.1592 83.2402 95.0381 83.2402 92.7959 83.2402C90.5537 83.2402 87.9912 83.2402 85.1084 83.2402C81.585 83.1602 78.2217 83.1201 75.0186 83.1201C71.7354 83.1201 70.0938 83.1201 70.0938 83.1201C70.0938 83.1201 70.0938 83.1602 70.0938 83.2402C70.0938 83.2402 69.4531 82.7598 68.1719 81.7988C66.8906 80.918 65.3691 79.877 63.6074 78.6758C61.6055 77.1543 59.6436 75.7529 57.7217 74.4717C55.7998 73.1104 54.8389 72.4297 54.8389 72.4297C54.8389 72.4297 55.2393 71.0684 56.04 68.3457C56.7607 65.623 57.6016 62.54 58.5625 59.0967C59.7637 54.7725 60.9248 50.6885 62.0459 46.8447C63.0869 42.9209 63.6074 40.959 63.6074 40.959C63.6074 40.959 65.0488 40.959 67.9316 40.959C70.7344 40.959 73.9375 40.959 77.541 40.959C82.0254 40.959 86.3096 40.959 90.3936 40.959C94.3975 40.959 96.3994 40.959 96.3994 40.959C96.3994 40.959 96.7197 41.5195 97.3604 42.6406C98.0811 43.8418 98.8818 45.1631 99.7627 46.6045C100.804 48.3662 101.805 50.0879 102.766 51.7695C103.727 53.3711 104.207 54.1719 104.207 54.1719ZM124.627 56.6943C124.627 56.6943 125.548 56.6943 127.39 56.6943C129.151 56.6943 131.033 56.6943 133.035 56.6943C134.637 56.6943 136.078 56.6943 137.359 56.6943C138.561 56.6943 139.161 56.6943 139.161 56.6943C139.161 56.6943 139.441 55.8135 140.002 54.0518C140.482 52.29 140.723 51.4092 140.723 51.4092C140.723 51.4092 139.762 51.4092 137.84 51.4092C135.838 51.4092 133.756 51.4092 131.594 51.4092C129.832 51.4092 128.271 51.4092 126.909 51.4092C125.548 51.4092 124.867 51.4092 124.867 51.4092C124.867 51.4092 125.308 50.7686 126.188 49.4873C126.989 48.2061 127.87 46.8447 128.831 45.4033C129.552 44.2021 130.192 43.1611 130.753 42.2803C131.313 41.3193 131.594 40.8389 131.594 40.8389C131.594 40.8389 132.955 40.8389 135.678 40.8389C138.32 40.8389 141.363 40.8389 144.807 40.8389C149.051 40.7588 153.095 40.7188 156.938 40.7188C160.702 40.7188 162.584 40.7188 162.584 40.7188C162.584 40.7188 162.264 41.9199 161.623 44.3223C160.902 46.7246 160.062 49.6475 159.101 53.0908C158.54 54.9326 157.979 56.8945 157.419 58.9766C156.858 60.9785 156.298 62.9805 155.737 64.9824C154.376 69.627 153.175 73.791 152.134 77.4746C151.173 81.0781 150.692 82.8799 150.692 82.8799C150.692 82.8799 149.371 82.8799 146.729 82.8799C144.166 82.8799 140.963 82.8799 137.119 82.8799C135.117 82.8799 132.995 82.8799 130.753 82.8799C128.431 82.8799 126.188 82.9199 124.026 83C118.821 83 114.217 83 110.213 83C106.209 83 104.207 83 104.207 83C104.207 83 104.447 82.1191 104.928 80.3574C105.408 78.5156 105.889 76.6338 106.369 74.7119C106.85 73.1104 107.25 71.6689 107.57 70.3877C107.891 69.1865 108.051 68.5859 108.051 68.5859C108.051 68.5859 109.052 67.8652 111.054 66.4238C113.136 64.9824 115.298 63.4209 117.54 61.7393C119.382 60.458 121.023 59.2969 122.465 58.2559C123.906 57.2148 124.627 56.6943 124.627 56.6943ZM134.717 71.9492C134.877 71.3086 135.197 70.2275 135.678 68.7061C136.078 67.1045 136.278 66.3037 136.278 66.3037C136.278 66.3037 135.518 66.3037 133.996 66.3037C132.475 66.3037 131.273 66.3037 130.393 66.3037C129.752 66.2236 128.751 66.8643 127.39 68.2256C126.028 69.5068 125.268 70.4678 125.107 71.1084C124.947 71.5889 124.787 72.2295 124.627 73.0303C124.387 73.8311 124.267 74.2314 124.267 74.2314C124.267 74.2314 125.027 74.1914 126.549 74.1113C127.99 74.1113 129.111 74.1113 129.912 74.1113C130.633 74.1113 131.594 73.8311 132.795 73.2705C133.996 72.79 134.637 72.3496 134.717 71.9492ZM171.713 40.5986C171.713 40.5986 172.954 40.5986 175.437 40.5986C177.919 40.5986 180.962 40.5986 184.565 40.5986C186.487 40.5986 188.529 40.5986 190.691 40.5986C192.773 40.5986 194.855 40.5986 196.938 40.5986C201.902 40.5986 206.267 40.5986 210.03 40.5986C213.794 40.5986 215.676 40.5986 215.676 40.5986C215.676 40.5986 215.315 41.8799 214.595 44.4424C213.874 47.0049 213.113 49.6875 212.312 52.4902C211.672 54.8125 211.111 56.8545 210.631 58.6162C210.07 60.458 209.79 61.3789 209.79 61.3789C209.79 61.3789 208.669 61.3789 206.427 61.3789C204.185 61.3789 201.782 61.3789 199.22 61.3789C197.218 61.3789 195.416 61.3789 193.814 61.3789C192.213 61.3789 191.412 61.3789 191.412 61.3789C191.412 61.3789 191.652 60.5781 192.133 58.9766C192.533 57.375 192.974 55.6934 193.454 53.9316C193.854 52.5703 194.215 51.3291 194.535 50.208C194.855 49.0869 195.016 48.5264 195.016 48.5264C194.455 47.165 193.694 46.0439 192.733 45.1631C191.853 44.2021 190.771 43.5615 189.49 43.2412C189.49 43.2412 189.01 44.9229 188.049 48.2861C187.088 51.7295 185.967 55.6934 184.686 60.1777C183.725 63.6211 182.764 67.1045 181.803 70.6279C180.842 74.0713 180.041 76.9141 179.4 79.1562C179.08 80.3574 178.8 81.2783 178.56 81.9189C178.399 82.6396 178.319 83 178.319 83C178.319 83 177.158 83 174.836 83C172.594 83 170.231 83 167.749 83C165.667 83 163.825 83 162.224 83C160.622 83 159.821 83 159.821 83C159.821 83 160.182 81.7988 160.902 79.3965C161.543 76.9941 162.344 74.0713 163.305 70.6279C163.865 68.7861 164.426 66.8242 164.986 64.7422C165.547 62.6602 166.107 60.6182 166.668 58.6162C168.029 53.8916 169.23 49.6875 170.271 46.0039C171.232 42.4004 171.713 40.5986 171.713 40.5986ZM238.138 53.4512C238.138 53.4512 237.777 54.7725 237.057 57.415C236.336 60.0576 235.575 62.8203 234.774 65.7031C234.134 68.0254 233.573 70.1074 233.093 71.9492C232.532 73.791 232.252 74.7119 232.252 74.7119C232.252 74.7119 233.093 74.7119 234.774 74.7119C236.376 74.7119 237.577 74.7119 238.378 74.7119C239.019 74.7119 239.979 74.1514 241.261 73.0303C242.542 71.9092 243.263 70.9883 243.423 70.2676C243.663 69.3867 244.023 68.1055 244.504 66.4238C244.984 64.8223 245.465 63.0605 245.945 61.1387C246.746 58.3359 247.467 55.7334 248.107 53.3311C248.828 50.8486 249.188 49.6074 249.188 49.6074C249.188 49.6074 248.228 49.6074 246.306 49.6074C244.384 49.6074 243.022 49.6074 242.222 49.6074C241.741 49.6074 240.98 50.0879 239.939 51.0488C238.979 52.0098 238.378 52.8105 238.138 53.4512ZM241.621 41.0791C241.621 41.0791 243.263 41.0791 246.546 41.0791C249.909 41.0791 251.591 41.0791 251.591 41.0791C251.591 41.0791 251.671 40.7588 251.831 40.1182C252.071 39.3975 252.352 38.3965 252.672 37.1152C253.312 34.873 254.113 31.9502 255.074 28.3467C256.115 24.8232 257.116 21.2598 258.077 17.6562C259.358 13.0117 260.52 8.96777 261.561 5.52441C262.521 2.00098 263.002 0.239258 263.002 0.239258C263.002 0.239258 264.243 0.199219 266.726 0.119141C269.208 0.119141 271.851 0.119141 274.653 0.119141C276.896 0.119141 278.857 0.0791016 280.539 -0.000976562C282.301 -0.000976562 283.182 -0.000976562 283.182 -0.000976562C283.182 -0.000976562 282.541 2.36133 281.26 7.08594C279.979 11.7305 278.377 17.4561 276.455 24.2627C275.414 27.9463 274.333 31.79 273.212 35.7939C272.091 39.7979 270.97 43.8018 269.849 47.8057C268.968 51.0088 268.087 54.1318 267.206 57.1748C266.405 60.2979 265.604 63.2207 264.804 65.9434C263.442 70.9082 262.281 74.9922 261.32 78.1953C260.439 81.3984 259.999 83 259.999 83C259.999 83 258.758 83.04 256.275 83.1201C253.793 83.1201 251.15 83.1201 248.348 83.1201C246.105 83.1201 244.144 83.1602 242.462 83.2402C240.7 83.2402 239.819 83.2402 239.819 83.2402C239.819 83.2402 238.058 83.2402 234.534 83.2402C231.091 83.2402 227.447 83.2002 223.604 83.1201C220.4 83.1201 217.598 83.1201 215.195 83.1201C212.713 83.1201 211.472 83.1201 211.472 83.1201C211.472 83.1201 211.552 83.04 211.712 82.8799C211.792 82.6396 211.832 82.5195 211.832 82.5195C211.832 82.5195 212.152 81.3584 212.793 79.0361C213.434 76.7139 214.234 73.8311 215.195 70.3877C215.756 68.5459 216.316 66.624 216.877 64.6221C217.438 62.6201 217.998 60.6582 218.559 58.7363C219.84 54.0918 220.961 49.9678 221.922 46.3643C222.963 42.8408 223.483 41.0791 223.483 41.0791C223.483 41.0791 224.244 41.0791 225.766 41.0791C227.367 41.0791 229.169 41.0791 231.171 41.0791C233.653 41.0791 236.016 41.0791 238.258 41.0791C240.5 41.0791 241.621 41.0791 241.621 41.0791ZM333.751 73.5107C334.231 73.5107 335.473 72.1895 337.475 69.5469C339.477 66.9043 340.638 64.9824 340.958 63.7812C341.679 61.3789 342.76 57.6152 344.201 52.4902C345.643 47.3652 347.164 41.8799 348.766 36.0342C349.646 32.9912 350.487 29.9482 351.288 26.9053C352.169 23.8623 353.01 20.9395 353.811 18.1367C355.172 13.0117 356.373 8.6875 357.414 5.16406C358.375 1.7207 358.855 -0.000976562 358.855 -0.000976562C358.855 -0.000976562 359.977 -0.000976562 362.219 -0.000976562C364.541 -0.000976562 366.943 -0.000976562 369.426 -0.000976562C371.508 -0.000976562 373.31 -0.000976562 374.831 -0.000976562C376.433 -0.000976562 377.233 -0.000976562 377.233 -0.000976562C377.233 -0.000976562 376.593 2.32129 375.312 6.96582C374.03 11.6104 372.429 17.376 370.507 24.2627C369.466 27.8662 368.385 31.6699 367.264 35.6738C366.143 39.6777 365.021 43.6816 363.9 47.6855C362.219 53.6914 360.657 59.3369 359.216 64.6221C357.694 69.9873 356.493 74.2715 355.612 77.4746C355.132 79.1562 354.771 80.5176 354.531 81.5586C354.211 82.5195 354.051 83 354.051 83C354.051 83 352.89 83 350.567 83C348.245 83 347.084 83 347.084 83C347.084 83 345.562 83 342.52 83C339.557 83 336.394 83 333.03 83C330.308 83 327.905 83 325.823 83C323.661 83 322.58 83 322.58 83C322.58 83 320.618 83 316.694 83C312.69 83 310.688 83 310.688 83C310.688 83 311.289 80.918 312.49 76.7539C313.611 72.6699 314.812 68.3457 316.094 63.7812C317.135 60.0176 318.056 56.7344 318.856 53.9316C319.657 51.0488 320.058 49.6074 320.058 49.6074C320.058 49.6074 321.619 48.8467 324.742 47.3252C327.785 45.8037 330.988 44.1621 334.352 42.4004C337.154 41.0391 339.637 39.8379 341.799 38.7969C343.961 37.7559 345.042 37.2354 345.042 37.2354C345.042 37.2354 344.802 38.2363 344.321 40.2383C343.841 42.2402 343.601 43.2412 343.601 43.2412C343.601 43.2412 342.92 43.6016 341.559 44.3223C340.277 45.043 339.637 45.4033 339.637 45.4033C339.637 45.4033 339.156 47.165 338.195 50.6885C337.234 54.1318 336.233 57.7754 335.192 61.6191C334.312 64.7422 333.511 67.5049 332.79 69.9072C332.149 72.3096 331.829 73.5107 331.829 73.5107C331.829 73.5107 332.149 73.5107 332.79 73.5107C333.431 73.5107 333.751 73.5107 333.751 73.5107ZM386.002 74.4717C386.402 74.4717 386.923 74.4717 387.563 74.4717C388.204 74.4717 388.524 74.4717 388.524 74.4717C388.524 74.4717 388.885 73.2705 389.605 70.8682C390.246 68.3857 390.967 65.7432 391.768 62.9404C392.248 61.0986 392.729 59.3369 393.209 57.6553C393.689 56.0537 394.05 54.8125 394.29 53.9316C394.53 53.1309 394.13 52.1699 393.089 51.0488C392.048 49.8477 391.207 49.2471 390.566 49.2471C390.086 49.2471 389.525 49.2471 388.885 49.2471C388.244 49.2471 387.924 49.2471 387.924 49.2471C387.924 49.2471 387.563 50.4883 386.843 52.9707C386.202 55.373 385.481 57.9756 384.681 60.7783C384.12 62.7002 383.6 64.502 383.119 66.1836C382.719 67.7852 382.398 69.0264 382.158 69.9072C381.918 70.6279 382.358 71.5488 383.479 72.6699C384.521 73.8711 385.361 74.4717 386.002 74.4717ZM412.908 54.1719C412.908 54.1719 412.588 55.4131 411.947 57.8955C411.227 60.3779 410.426 63.2607 409.545 66.5439C408.424 70.4678 407.343 74.2314 406.302 77.835C405.341 81.4385 404.86 83.2402 404.86 83.2402C404.86 83.2402 403.739 83.2402 401.497 83.2402C399.255 83.2402 396.692 83.2402 393.81 83.2402C390.286 83.1602 386.923 83.1201 383.72 83.1201C380.437 83.1201 378.795 83.1201 378.795 83.1201C378.795 83.1201 378.795 83.1602 378.795 83.2402C378.795 83.2402 378.154 82.7598 376.873 81.7988C375.592 80.918 374.07 79.877 372.309 78.6758C370.307 77.1543 368.345 75.7529 366.423 74.4717C364.501 73.1104 363.54 72.4297 363.54 72.4297C363.54 72.4297 363.94 71.0684 364.741 68.3457C365.462 65.623 366.303 62.54 367.264 59.0967C368.465 54.7725 369.626 50.6885 370.747 46.8447C371.788 42.9209 372.309 40.959 372.309 40.959C372.309 40.959 373.75 40.959 376.633 40.959C379.436 40.959 382.639 40.959 386.242 40.959C390.727 40.959 395.011 40.959 399.095 40.959C403.099 40.959 405.101 40.959 405.101 40.959C405.101 40.959 405.421 41.5195 406.062 42.6406C406.782 43.8418 407.583 45.1631 408.464 46.6045C409.505 48.3662 410.506 50.0879 411.467 51.7695C412.428 53.3711 412.908 54.1719 412.908 54.1719ZM444.859 41.9199C444.859 41.9199 444.499 43.3213 443.778 46.124C442.978 48.9268 442.057 52.1699 441.016 55.8535C439.734 60.2578 438.533 64.502 437.412 68.5859C436.291 72.6699 435.73 74.7119 435.73 74.7119C435.73 74.7119 437.292 74.7119 440.415 74.7119C443.538 74.7119 445.1 74.7119 445.1 74.7119C445.1 74.7119 445.5 73.2705 446.301 70.3877C447.021 67.585 447.902 64.3818 448.943 60.7783C450.225 56.2939 451.426 52.0098 452.547 47.9258C453.668 43.9219 454.229 41.9199 454.229 41.9199C454.229 41.9199 455.35 41.9199 457.592 41.9199C459.834 41.9199 462.156 41.9199 464.559 41.9199C466.561 41.9199 468.322 41.9199 469.844 41.9199C471.445 41.9199 472.246 41.9199 472.246 41.9199C472.246 41.9199 472.126 42.2803 471.886 43.001C471.726 43.7217 471.445 44.6826 471.045 45.8838C470.404 48.2061 469.604 51.1289 468.643 54.6523C467.602 58.2559 466.561 61.8594 465.52 65.4629C464.238 70.1074 463.117 74.1914 462.156 77.7148C461.115 81.2383 460.595 83 460.595 83C460.595 83 458.913 83 455.55 83C452.187 83 448.663 83 444.979 83C441.937 83 439.214 83 436.812 83C434.489 83 433.328 83 433.328 83C433.328 83 432.367 82.4395 430.445 81.3184C428.604 80.2773 426.602 79.1562 424.439 77.9551C422.758 76.9941 421.236 76.1133 419.875 75.3125C418.514 74.5918 417.833 74.2314 417.833 74.2314C417.833 74.2314 418.434 72.2295 419.635 68.2256C420.756 64.2217 421.917 60.0176 423.118 55.6133C424.159 52.0098 425.04 48.8066 425.761 46.0039C426.562 43.2812 426.962 41.9199 426.962 41.9199C426.962 41.9199 428.083 41.9199 430.325 41.9199C432.567 41.9199 434.89 41.9199 437.292 41.9199C439.294 41.9199 441.056 41.9199 442.577 41.9199C444.099 41.9199 444.859 41.9199 444.859 41.9199ZM479.333 40.5986C479.333 40.5986 480.574 40.5986 483.057 40.5986C485.539 40.5986 488.582 40.5986 492.186 40.5986C494.107 40.5986 496.149 40.5986 498.312 40.5986C500.394 40.5986 502.476 40.5986 504.558 40.5986C509.522 40.5986 513.887 40.5986 517.65 40.5986C521.414 40.5986 523.296 40.5986 523.296 40.5986C523.296 40.5986 522.936 41.8799 522.215 44.4424C521.494 47.0049 520.733 49.6875 519.933 52.4902C519.292 54.8125 518.731 56.8545 518.251 58.6162C517.69 60.458 517.41 61.3789 517.41 61.3789C517.41 61.3789 516.289 61.3789 514.047 61.3789C511.805 61.3789 509.402 61.3789 506.84 61.3789C504.838 61.3789 503.036 61.3789 501.435 61.3789C499.833 61.3789 499.032 61.3789 499.032 61.3789C499.032 61.3789 499.272 60.5781 499.753 58.9766C500.153 57.375 500.594 55.6934 501.074 53.9316C501.475 52.5703 501.835 51.3291 502.155 50.208C502.476 49.0869 502.636 48.5264 502.636 48.5264C502.075 47.165 501.314 46.0439 500.354 45.1631C499.473 44.2021 498.392 43.5615 497.11 43.2412C497.11 43.2412 496.63 44.9229 495.669 48.2861C494.708 51.7295 493.587 55.6934 492.306 60.1777C491.345 63.6211 490.384 67.1045 489.423 70.6279C488.462 74.0713 487.661 76.9141 487.021 79.1562C486.7 80.3574 486.42 81.2783 486.18 81.9189C486.02 82.6396 485.939 83 485.939 83C485.939 83 484.778 83 482.456 83C480.214 83 477.852 83 475.369 83C473.287 83 471.445 83 469.844 83C468.242 83 467.441 83 467.441 83C467.441 83 467.802 81.7988 468.522 79.3965C469.163 76.9941 469.964 74.0713 470.925 70.6279C471.485 68.7861 472.046 66.8242 472.606 64.7422C473.167 62.6602 473.728 60.6182 474.288 58.6162C475.649 53.8916 476.851 49.6875 477.892 46.0039C478.853 42.4004 479.333 40.5986 479.333 40.5986ZM548.16 41.4395C548.16 41.4395 548.16 41.4795 548.16 41.5596C548.16 41.5596 549.321 41.5596 551.644 41.5596C553.886 41.4795 555.007 41.4395 555.007 41.4395C555.007 41.4395 555.888 42.3203 557.649 44.082C559.411 45.7637 561.253 47.5254 563.175 49.3672C564.776 50.8887 566.178 52.25 567.379 53.4512C568.58 54.5723 569.181 55.1328 569.181 55.1328C569.181 55.1328 568.7 56.8545 567.739 60.2979C566.778 63.7412 565.777 67.3848 564.736 71.2285C563.855 74.2715 563.095 76.9941 562.454 79.3965C561.733 81.7988 561.373 83 561.373 83C561.373 83 560.292 83 558.13 83C555.888 83 553.525 83 551.043 83C549.041 83 547.279 83 545.758 83C544.156 83 543.355 83 543.355 83C543.355 83 543.956 80.8379 545.157 76.5137C546.358 72.2695 547.64 67.7852 549.001 63.0605C550.122 59.1367 551.083 55.6934 551.884 52.7305C552.765 49.7676 553.205 48.2861 553.205 48.2861C553.125 46.7646 552.645 45.4434 551.764 44.3223C550.883 43.1211 549.682 42.2402 548.16 41.6797C548.16 41.6797 548.04 42.04 547.8 42.7607C547.64 43.4814 547.399 44.4424 547.079 45.6436C546.358 47.9658 545.518 50.9287 544.557 54.5322C543.516 58.1357 542.475 61.7793 541.434 65.4629C540.152 70.0273 539.031 74.1113 538.07 77.7148C537.029 81.2383 536.509 83 536.509 83C536.509 83 535.748 83 534.227 83C532.705 83 530.943 83 528.941 83C526.459 83 524.097 83 521.854 83C519.612 83 518.491 83 518.491 83C518.491 83 518.852 81.8389 519.572 79.5166C520.213 77.1143 521.014 74.2314 521.975 70.8682C522.455 69.0264 522.976 67.1045 523.536 65.1025C524.097 63.1006 524.657 61.0986 525.218 59.0967C526.499 54.4521 527.66 50.3682 528.701 46.8447C529.662 43.2412 530.143 41.4395 530.143 41.4395C530.143 41.4395 531.264 41.4395 533.506 41.4395C535.748 41.4395 538.07 41.4395 540.473 41.4395C542.475 41.4395 544.276 41.4395 545.878 41.4395C547.399 41.4395 548.16 41.4395 548.16 41.4395ZM569.061 83.1201C570.982 76.0732 574.866 62.0195 580.712 40.959C588.479 40.959 604.055 40.959 627.438 40.959C626.957 42.8008 625.916 46.5244 624.314 52.1299C618.869 55.1729 607.858 61.3389 591.282 70.6279C591.122 71.2686 590.882 72.5898 590.562 74.5918C594.966 74.5918 603.814 74.5918 617.107 74.5918C616.387 75.9531 614.945 78.7559 612.783 83C605.496 83 590.922 83.04 569.061 83.1201ZM596.688 49.4873C596.047 51.6494 594.846 55.9736 593.084 62.46C594.846 61.5791 598.329 59.8174 603.534 57.1748C603.854 55.9736 604.215 54.4121 604.615 52.4902C604.936 50.5684 605.136 49.6074 605.216 49.6074C604.015 49.6074 602.653 49.6074 601.132 49.6074C599.53 49.5273 598.049 49.4873 596.688 49.4873ZM641.972 110.146C642.532 110.146 643.373 109.666 644.494 108.705C645.535 107.824 646.136 107.104 646.296 106.543C646.536 105.822 646.816 104.821 647.137 103.54C647.537 102.179 647.938 100.737 648.338 99.2158C648.979 97.0537 649.579 94.9717 650.14 92.9697C650.62 91.0479 650.86 90.0869 650.86 90.0869C650.86 90.0869 650.1 90.0869 648.578 90.0869C647.137 90.0869 645.415 90.0869 643.413 90.0869C641.011 90.0869 638.688 90.0869 636.446 90.0869C634.284 90.0869 633.203 90.0869 633.203 90.0869C633.203 90.0869 632.643 89.4463 631.521 88.165C630.4 86.9639 629.199 85.6426 627.918 84.2012C626.877 83.0801 625.996 82.0791 625.275 81.1982C624.475 80.3174 624.074 79.877 624.074 79.877C624.074 79.877 624.515 78.2354 625.396 74.9521C626.356 71.6689 627.397 67.9053 628.519 63.6611C630.04 58.4561 631.441 53.4912 632.723 48.7666C634.084 44.042 634.765 41.6797 634.765 41.6797C634.765 41.6797 636.046 41.6797 638.608 41.6797C641.251 41.6797 643.974 41.6797 646.776 41.6797C649.099 41.6797 651.181 41.6797 653.022 41.6797C654.784 41.6797 655.665 41.6797 655.665 41.6797C655.665 41.6797 655.585 42 655.425 42.6406C655.185 43.3613 654.904 44.2822 654.584 45.4033C654.023 47.5654 653.263 50.3281 652.302 53.6914C651.341 57.0547 650.38 60.458 649.419 63.9014C648.218 68.2256 647.177 72.0293 646.296 75.3125C645.335 78.5957 644.854 80.2373 644.854 80.2373C644.854 80.2373 646.336 80.2373 649.299 80.2373C652.182 80.2373 653.623 80.2373 653.623 80.2373C653.623 80.2373 653.943 79.1562 654.584 76.9941C655.145 74.832 655.865 72.1494 656.746 68.9463C657.227 67.2646 657.747 65.5029 658.308 63.6611C658.788 61.7393 659.309 59.8975 659.869 58.1357C661.07 53.8115 662.111 49.9678 662.992 46.6045C663.953 43.3213 664.434 41.6797 664.434 41.6797C664.434 41.6797 665.314 41.6797 667.076 41.6797C668.918 41.6797 671 41.6797 673.322 41.6797C676.125 41.6797 678.848 41.6797 681.49 41.6797C684.053 41.6797 685.334 41.6797 685.334 41.6797C685.334 41.6797 684.733 43.8818 683.532 48.2861C682.331 52.6104 680.81 58.0156 678.968 64.502C678.007 67.9453 677.006 71.5488 675.965 75.3125C674.924 79.0762 673.883 82.8398 672.842 86.6035C671.961 89.6465 671.12 92.6094 670.319 95.4922C669.519 98.375 668.758 101.098 668.037 103.66C666.756 108.385 665.675 112.269 664.794 115.312C663.993 118.354 663.593 119.876 663.593 119.876C663.593 119.876 663.393 119.876 662.992 119.876C662.672 119.876 662.512 119.876 662.512 119.876C662.512 119.876 661.11 119.876 658.308 119.876C655.425 119.876 651.941 119.876 647.857 119.876C645.615 119.876 643.293 119.876 640.891 119.876C638.488 119.876 636.086 119.876 633.684 119.876C628.078 119.876 623.113 119.876 618.789 119.876C614.465 119.876 612.303 119.876 612.303 119.876C612.303 119.876 613.864 118.875 616.987 116.873C620.03 114.871 623.273 112.749 626.717 110.507C629.52 108.665 631.962 107.063 634.044 105.702C636.206 104.261 637.287 103.54 637.287 103.54C637.287 103.54 637.167 104.061 636.927 105.102C636.606 106.143 636.366 106.903 636.206 107.384C636.046 107.864 636.166 108.425 636.566 109.065C636.967 109.706 637.367 110.026 637.768 110.026C638.328 110.026 639.009 110.026 639.81 110.026C640.61 110.106 641.331 110.146 641.972 110.146Z" fill="white"/>
</svg>
