<svg width="117" height="35" viewBox="0 0 117 35" fill="none" xmlns="http://www.w3.org/2000/svg">
<path d="M0.56543 34C0.56543 34 0.663086 33.707 0.858398 33.1211C1.02116 32.5352 1.23275 31.7376 1.49316 30.7285C2.014 28.8405 2.69759 26.4316 3.54395 23.502C4.35775 20.5397 5.17155 17.5775 5.98535 14.6152C6.37598 13.2806 6.73405 11.9948 7.05957 10.7578C7.41764 9.52083 7.75944 8.34896 8.08496 7.24219C8.63835 5.19141 9.09408 3.51497 9.45215 2.21289C9.84277 0.910807 10.0381 0.259766 10.0381 0.259766C10.0381 0.259766 10.1846 0.259766 10.4775 0.259766C10.8031 0.259766 11.2425 0.259766 11.7959 0.259766C12.8376 0.259766 14.1722 0.259766 15.7998 0.259766C17.4274 0.259766 19.0713 0.259766 20.7314 0.259766C22.8148 0.259766 24.654 0.259766 26.249 0.259766C27.8766 0.259766 28.6904 0.259766 28.6904 0.259766C28.6904 0.259766 28.4788 1.00846 28.0557 2.50586C27.6325 4.00326 27.193 5.56576 26.7373 7.19336C26.3467 8.56055 26.0049 9.7487 25.7119 10.7578C25.4189 11.7995 25.2725 12.3203 25.2725 12.3203C25.2725 12.3203 24.8981 12.5156 24.1494 12.9062C23.4007 13.2643 22.5544 13.6875 21.6104 14.1758C20.4059 14.7943 19.2666 15.3639 18.1924 15.8848C17.1182 16.4382 16.5811 16.7148 16.5811 16.7148C16.5811 16.7148 16.7764 16.0312 17.167 14.6641C17.5576 13.2643 17.9645 11.7669 18.3877 10.1719C18.6807 9.13021 18.9574 8.13737 19.2178 7.19336C19.4782 6.2819 19.6735 5.61458 19.8037 5.19141C19.8688 4.93099 19.7223 4.63802 19.3643 4.3125C19.0387 3.95443 18.7132 3.77539 18.3877 3.77539C18.0947 3.77539 17.7041 3.77539 17.2158 3.77539C16.7601 3.77539 16.5322 3.77539 16.5322 3.77539C16.5322 3.77539 16.2067 4.91471 15.5557 7.19336C14.9372 9.47201 14.2048 12.0762 13.3584 15.0059C12.7074 17.3496 12.0726 19.6608 11.4541 21.9395C10.8031 24.2507 10.266 26.1387 9.84277 27.6035C9.64746 28.3848 9.4847 29.0033 9.35449 29.459C9.22428 29.9473 9.15918 30.1914 9.15918 30.1914C9.15918 30.1914 9.43587 30.1914 9.98926 30.1914C10.5426 30.1914 11.1774 30.1914 11.8936 30.1914C12.7725 30.1589 13.6025 30.1426 14.3838 30.1426C15.165 30.1426 15.5557 30.1426 15.5557 30.1426C15.5557 30.1426 15.7998 30.0286 16.2881 29.8008C16.7764 29.5404 17.3298 29.2474 17.9482 28.9219C18.6969 28.5312 19.4131 28.1406 20.0967 27.75C20.7803 27.3919 21.1221 27.2129 21.1221 27.2129C21.1221 27.2129 21.0081 27.6361 20.7803 28.4824C20.5524 29.3288 20.3083 30.2077 20.0479 31.1191C19.82 31.8678 19.6247 32.5352 19.4619 33.1211C19.2992 33.707 19.2178 34 19.2178 34C19.2178 34 18.4202 34 16.8252 34C15.2301 34 13.391 34 11.3076 34C9.64746 34 8.00358 34 6.37598 34C4.74837 34 3.41374 34 2.37207 34C1.81868 34 1.37923 34 1.05371 34C0.72819 34 0.56543 34 0.56543 34ZM31.2783 23.3066C31.2783 23.3066 31.6527 23.3066 32.4014 23.3066C33.1175 23.3066 33.8825 23.3066 34.6963 23.3066C35.3473 23.3066 35.9333 23.3066 36.4541 23.3066C36.9424 23.3066 37.1865 23.3066 37.1865 23.3066C37.1865 23.3066 37.3005 22.9486 37.5283 22.2324C37.7236 21.5163 37.8213 21.1582 37.8213 21.1582C37.8213 21.1582 37.4307 21.1582 36.6494 21.1582C35.8356 21.1582 34.9893 21.1582 34.1104 21.1582C33.3942 21.1582 32.7594 21.1582 32.2061 21.1582C31.6527 21.1582 31.376 21.1582 31.376 21.1582C31.376 21.1582 31.555 20.8978 31.9131 20.377C32.2386 19.8561 32.5967 19.3027 32.9873 18.7168C33.2803 18.2285 33.5407 17.8053 33.7686 17.4473C33.9964 17.0566 34.1104 16.8613 34.1104 16.8613C34.1104 16.8613 34.6637 16.8613 35.7705 16.8613C36.8447 16.8613 38.0817 16.8613 39.4814 16.8613C41.2067 16.8288 42.8506 16.8125 44.4131 16.8125C45.943 16.8125 46.708 16.8125 46.708 16.8125C46.708 16.8125 46.5778 17.3008 46.3174 18.2773C46.0244 19.2539 45.6826 20.4421 45.292 21.8418C45.0641 22.5905 44.8363 23.388 44.6084 24.2344C44.3805 25.0482 44.1527 25.862 43.9248 26.6758C43.3714 28.5638 42.8831 30.2565 42.46 31.7539C42.0693 33.2188 41.874 33.9512 41.874 33.9512C41.874 33.9512 41.3369 33.9512 40.2627 33.9512C39.221 33.9512 37.9189 33.9512 36.3564 33.9512C35.5426 33.9512 34.68 33.9512 33.7686 33.9512C32.8245 33.9512 31.9131 33.9674 31.0342 34C28.9183 34 27.0465 34 25.4189 34C23.7913 34 22.9775 34 22.9775 34C22.9775 34 23.0752 33.6419 23.2705 32.9258C23.4658 32.1771 23.6611 31.4121 23.8564 30.6309C24.0518 29.9798 24.2145 29.3939 24.3447 28.873C24.4749 28.3848 24.54 28.1406 24.54 28.1406C24.54 28.1406 24.9469 27.8477 25.7607 27.2617C26.6071 26.6758 27.486 26.041 28.3975 25.3574C29.1462 24.8366 29.8135 24.3646 30.3994 23.9414C30.9854 23.5182 31.2783 23.3066 31.2783 23.3066ZM35.3799 29.5078C35.445 29.2474 35.5752 28.8079 35.7705 28.1895C35.9333 27.5384 36.0146 27.2129 36.0146 27.2129C36.0146 27.2129 35.7054 27.2129 35.0869 27.2129C34.4684 27.2129 33.9801 27.2129 33.6221 27.2129C33.3617 27.1803 32.9548 27.4408 32.4014 27.9941C31.848 28.515 31.5387 28.9056 31.4736 29.166C31.4085 29.3613 31.3434 29.6217 31.2783 29.9473C31.1807 30.2728 31.1318 30.4355 31.1318 30.4355C31.1318 30.4355 31.4411 30.4193 32.0596 30.3867C32.6455 30.3867 33.1012 30.3867 33.4268 30.3867C33.7197 30.3867 34.1104 30.2728 34.5986 30.0449C35.0869 29.8496 35.3473 29.6706 35.3799 29.5078ZM55.5947 28.0918C55.2692 27.9616 54.7321 27.7663 53.9834 27.5059C53.2347 27.2129 52.4372 26.9036 51.5908 26.5781C50.2887 26.1224 49.068 25.6667 47.9287 25.2109C46.7894 24.7878 46.2197 24.5762 46.2197 24.5762C46.2197 24.5762 46.3662 24.0879 46.6592 23.1113C46.9521 22.1022 47.2777 21.0605 47.6357 19.9863C47.8962 19.0749 48.124 18.2773 48.3193 17.5938C48.5472 16.9102 48.6611 16.5684 48.6611 16.5684C48.6611 16.5684 48.8239 16.5684 49.1494 16.5684C49.4749 16.5684 49.9144 16.5684 50.4678 16.5684C51.4769 16.5684 52.7952 16.5684 54.4229 16.5684C56.0505 16.5684 57.6781 16.5684 59.3057 16.5684C61.3564 16.5684 63.1794 16.5684 64.7744 16.5684C66.3695 16.5684 67.167 16.5684 67.167 16.5684C67.167 16.5684 67.1019 16.8288 66.9717 17.3496C66.8089 17.8379 66.6299 18.4238 66.4346 19.1074C66.2067 19.9212 65.9951 20.6862 65.7998 21.4023C65.6045 22.151 65.5068 22.5254 65.5068 22.5254C65.5068 22.5254 65.1813 22.5091 64.5303 22.4766C63.8792 22.4115 63.1305 22.3626 62.2842 22.3301C61.2751 22.2324 60.3148 22.151 59.4033 22.0859C58.4593 22.0534 57.9873 22.0371 57.9873 22.0371C57.9873 22.0371 58.0361 21.8743 58.1338 21.5488C58.2314 21.2559 58.3128 21.028 58.3779 20.8652C58.4105 20.735 58.3779 20.5723 58.2803 20.377C58.2152 20.1816 58.1338 20.084 58.0361 20.084C57.8408 20.084 57.499 20.084 57.0107 20.084C56.5225 20.084 56.083 20.084 55.6924 20.084C55.4971 20.084 55.3018 20.1816 55.1064 20.377C54.9111 20.5723 54.7972 20.7188 54.7646 20.8164C54.6995 21.0768 54.5856 21.5326 54.4229 22.1836C54.2601 22.8672 54.1787 23.209 54.1787 23.209C54.1787 23.209 54.7646 23.4857 55.9365 24.0391C57.1084 24.625 58.3291 25.2272 59.5986 25.8457C60.6729 26.3665 61.6006 26.8223 62.3818 27.2129C63.1956 27.6361 63.6025 27.8477 63.6025 27.8477C63.6025 27.8477 63.4886 28.222 63.2607 28.9707C63.0329 29.7194 62.7725 30.5169 62.4795 31.3633C62.2842 32.0469 62.1051 32.6491 61.9424 33.1699C61.7796 33.6908 61.6982 33.9512 61.6982 33.9512C61.6982 33.9512 61.1774 33.9512 60.1357 33.9512C59.1266 33.9512 57.8734 33.9674 56.376 34C55.5622 34 54.7158 34 53.8369 34C52.958 34 52.0954 34 51.249 34C49.1982 34 47.3916 34 45.8291 34C44.2666 34 43.4854 34 43.4854 34C43.4854 34 43.5993 33.6582 43.8271 32.9746C44.0225 32.2585 44.2178 31.526 44.4131 30.7773C44.6084 30.1263 44.7712 29.5566 44.9014 29.0684C45.0316 28.5801 45.0967 28.3359 45.0967 28.3359C45.0967 28.3359 45.5524 28.3685 46.4639 28.4336C47.3428 28.4987 48.2705 28.5638 49.2471 28.6289C50.0283 28.694 50.7282 28.7428 51.3467 28.7754C51.9652 28.8079 52.2744 28.8242 52.2744 28.8242C52.2744 28.8242 52.2581 28.9544 52.2256 29.2148C52.193 29.4753 52.1605 29.6868 52.1279 29.8496C52.1279 29.9473 52.2256 30.0775 52.4209 30.2402C52.5837 30.403 52.7301 30.4844 52.8604 30.4844C53.0557 30.4844 53.3812 30.4844 53.8369 30.4844C54.2601 30.4844 54.6507 30.4844 55.0088 30.4844C55.2041 30.4844 55.3994 30.3867 55.5947 30.1914C55.8226 29.9961 55.9528 29.8333 55.9854 29.7031C56.0179 29.638 56.0667 29.5241 56.1318 29.3613C56.1969 29.2311 56.2458 29.1009 56.2783 28.9707C56.3434 28.8405 56.2783 28.6777 56.083 28.4824C55.9202 28.2871 55.7575 28.1569 55.5947 28.0918ZM68.7295 16.7637C68.7295 16.7637 69.2015 16.7637 70.1455 16.7637C71.057 16.7637 72.0173 16.7637 73.0264 16.7637C73.8727 16.7637 74.6051 16.7637 75.2236 16.7637C75.8747 16.7637 76.2002 16.7637 76.2002 16.7637C76.2002 16.7637 76.07 17.2357 75.8096 18.1797C75.5166 19.1562 75.1748 20.3607 74.7842 21.793C74.5889 22.5417 74.3773 23.3392 74.1494 24.1855C73.889 24.9993 73.6449 25.8294 73.417 26.6758C72.8962 28.5964 72.4242 30.2891 72.001 31.7539C71.5778 33.2513 71.3662 34 71.3662 34C71.3662 34 70.9105 34 69.999 34C69.0876 34 68.1273 34 67.1182 34C66.2718 34 65.5231 34 64.8721 34C64.221 34 63.8955 34 63.8955 34C63.8955 34 64.042 33.5117 64.335 32.5352C64.5954 31.5586 64.9209 30.3704 65.3115 28.9707C65.5394 28.222 65.7673 27.4245 65.9951 26.5781C66.223 25.7318 66.4508 24.9017 66.6787 24.0879C67.2321 22.1673 67.7041 20.4583 68.0947 18.9609C68.5179 17.4961 68.7295 16.7637 68.7295 16.7637ZM70.3408 10.2207C70.3408 10.2207 70.7965 10.2207 71.708 10.2207C72.6195 10.2207 73.5798 10.2207 74.5889 10.2207C75.4352 10.2207 76.1839 10.2207 76.835 10.2207C77.4535 10.2207 77.7627 10.2207 77.7627 10.2207C77.7627 10.2207 77.5837 10.8717 77.2256 12.1738C76.8675 13.4434 76.6885 14.0781 76.6885 14.0781C76.6885 14.0781 76.2327 14.0781 75.3213 14.0781C74.4098 14.0781 73.4495 14.0781 72.4404 14.0781C71.5941 14.0781 70.8454 14.0781 70.1943 14.0781C69.5433 14.0781 69.2178 14.0781 69.2178 14.0781C69.2178 14.0781 69.4131 13.4434 69.8037 12.1738C70.1618 10.8717 70.3408 10.2207 70.3408 10.2207ZM85.5752 17.1055C85.5752 17.1055 85.5752 17.1217 85.5752 17.1543C85.5752 17.1543 86.0472 17.1543 86.9912 17.1543C87.9027 17.1217 88.3584 17.1055 88.3584 17.1055C88.3584 17.1055 88.7165 17.4635 89.4326 18.1797C90.1488 18.8633 90.8975 19.5794 91.6787 20.3281C92.3298 20.9466 92.8994 21.5 93.3877 21.9883C93.876 22.444 94.1201 22.6719 94.1201 22.6719C94.1201 22.6719 93.9248 23.3717 93.5342 24.7715C93.1436 26.1712 92.7367 27.6523 92.3135 29.2148C91.9554 30.4518 91.6462 31.5586 91.3857 32.5352C91.0928 33.5117 90.9463 34 90.9463 34C90.9463 34 90.5068 34 89.6279 34C88.7165 34 87.7562 34 86.7471 34C85.9333 34 85.2171 34 84.5986 34C83.9476 34 83.6221 34 83.6221 34C83.6221 34 83.8662 33.1211 84.3545 31.3633C84.8428 29.638 85.3636 27.8151 85.917 25.8945C86.3727 24.2995 86.7633 22.8997 87.0889 21.6953C87.4469 20.4909 87.626 19.8887 87.626 19.8887C87.5934 19.2702 87.3981 18.7331 87.04 18.2773C86.682 17.7891 86.1937 17.431 85.5752 17.2031C85.5752 17.2031 85.5264 17.3496 85.4287 17.6426C85.3636 17.9355 85.266 18.3262 85.1357 18.8145C84.8428 19.7585 84.501 20.9629 84.1104 22.4277C83.6872 23.8926 83.264 25.3737 82.8408 26.8711C82.32 28.7266 81.8643 30.3867 81.4736 31.8516C81.0505 33.2839 80.8389 34 80.8389 34C80.8389 34 80.5296 34 79.9111 34C79.2926 34 78.5765 34 77.7627 34C76.7536 34 75.7933 34 74.8818 34C73.9704 34 73.5146 34 73.5146 34C73.5146 34 73.6611 33.528 73.9541 32.584C74.2145 31.6074 74.54 30.4355 74.9307 29.0684C75.126 28.3197 75.3376 27.5384 75.5654 26.7246C75.7933 25.9108 76.0212 25.097 76.249 24.2832C76.7699 22.3952 77.2419 20.735 77.665 19.3027C78.0557 17.8379 78.251 17.1055 78.251 17.1055C78.251 17.1055 78.7067 17.1055 79.6182 17.1055C80.5296 17.1055 81.4736 17.1055 82.4502 17.1055C83.264 17.1055 83.9964 17.1055 84.6475 17.1055C85.266 17.1055 85.5752 17.1055 85.5752 17.1055ZM105.448 30.5332C105.611 30.5332 105.823 30.5332 106.083 30.5332C106.343 30.5332 106.474 30.5332 106.474 30.5332C106.474 30.5332 106.62 30.0449 106.913 29.0684C107.174 28.0592 107.466 26.985 107.792 25.8457C107.987 25.097 108.183 24.3809 108.378 23.6973C108.573 23.0462 108.72 22.5417 108.817 22.1836C108.915 21.8581 108.752 21.4674 108.329 21.0117C107.906 20.5234 107.564 20.2793 107.304 20.2793C107.108 20.2793 106.881 20.2793 106.62 20.2793C106.36 20.2793 106.229 20.2793 106.229 20.2793C106.229 20.2793 106.083 20.7839 105.79 21.793C105.53 22.7695 105.237 23.8275 104.911 24.9668C104.683 25.748 104.472 26.4805 104.276 27.1641C104.114 27.8151 103.983 28.3197 103.886 28.6777C103.788 28.9707 103.967 29.3451 104.423 29.8008C104.846 30.2891 105.188 30.5332 105.448 30.5332ZM116.386 22.2812C116.386 22.2812 116.256 22.7858 115.995 23.7949C115.702 24.804 115.377 25.9759 115.019 27.3105C114.563 28.9056 114.123 30.4355 113.7 31.9004C113.31 33.3652 113.114 34.0977 113.114 34.0977C113.114 34.0977 112.659 34.0977 111.747 34.0977C110.836 34.0977 109.794 34.0977 108.622 34.0977C107.19 34.0651 105.823 34.0488 104.521 34.0488C103.186 34.0488 102.519 34.0488 102.519 34.0488C102.519 34.0488 102.519 34.0651 102.519 34.0977C102.519 34.0977 102.258 33.9023 101.737 33.5117C101.216 33.1536 100.598 32.7305 99.8818 32.2422C99.068 31.6237 98.2705 31.054 97.4893 30.5332C96.708 29.9798 96.3174 29.7031 96.3174 29.7031C96.3174 29.7031 96.4801 29.1497 96.8057 28.043C97.0986 26.9362 97.4404 25.6829 97.8311 24.2832C98.3193 22.5254 98.7913 20.8652 99.2471 19.3027C99.6702 17.7077 99.8818 16.9102 99.8818 16.9102C99.8818 16.9102 100.468 16.9102 101.64 16.9102C102.779 16.9102 104.081 16.9102 105.546 16.9102C107.369 16.9102 109.11 16.9102 110.771 16.9102C112.398 16.9102 113.212 16.9102 113.212 16.9102C113.212 16.9102 113.342 17.138 113.603 17.5938C113.896 18.082 114.221 18.6191 114.579 19.2051C115.002 19.9212 115.409 20.6211 115.8 21.3047C116.19 21.9557 116.386 22.2812 116.386 22.2812Z" fill="white"/>
</svg>
