<svg width="132" height="35" viewBox="0 0 132 35" fill="none" xmlns="http://www.w3.org/2000/svg">
<path d="M0.976562 34C0.976562 34 1.07422 33.707 1.26953 33.1211C1.43229 32.5352 1.64388 31.7376 1.9043 30.7285C2.42513 28.8405 3.10872 26.4316 3.95508 23.502C4.76888 20.5397 5.58268 17.5775 6.39648 14.6152C6.78711 13.2806 7.14518 11.9948 7.4707 10.7578C7.82878 9.52083 8.17057 8.34896 8.49609 7.24219C9.04948 5.19141 9.50521 3.51497 9.86328 2.21289C10.2539 0.910807 10.4492 0.259766 10.4492 0.259766C10.4492 0.259766 10.5957 0.259766 10.8887 0.259766C11.2142 0.259766 11.6536 0.259766 12.207 0.259766C13.2487 0.259766 14.5833 0.259766 16.2109 0.259766C17.8385 0.259766 19.4824 0.259766 21.1426 0.259766C23.2259 0.259766 25.0651 0.259766 26.6602 0.259766C28.2878 0.259766 29.1016 0.259766 29.1016 0.259766C29.1016 0.259766 28.89 1.00846 28.4668 2.50586C28.0436 4.00326 27.6042 5.56576 27.1484 7.19336C26.7578 8.56055 26.416 9.7487 26.123 10.7578C25.8301 11.7995 25.6836 12.3203 25.6836 12.3203C25.6836 12.3203 25.3092 12.5156 24.5605 12.9062C23.8118 13.2643 22.9655 13.6875 22.0215 14.1758C20.8171 14.7943 19.6777 15.3639 18.6035 15.8848C17.5293 16.4382 16.9922 16.7148 16.9922 16.7148C16.9922 16.7148 17.1875 16.0312 17.5781 14.6641C17.9688 13.2643 18.3757 11.7669 18.7988 10.1719C19.0918 9.13021 19.3685 8.13737 19.6289 7.19336C19.8893 6.2819 20.0846 5.61458 20.2148 5.19141C20.2799 4.93099 20.1335 4.63802 19.7754 4.3125C19.4499 3.95443 19.1243 3.77539 18.7988 3.77539C18.5059 3.77539 18.1152 3.77539 17.627 3.77539C17.1712 3.77539 16.9434 3.77539 16.9434 3.77539C16.9434 3.77539 16.6178 4.91471 15.9668 7.19336C15.3483 9.47201 14.6159 12.0762 13.7695 15.0059C13.1185 17.3496 12.4837 19.6608 11.8652 21.9395C11.2142 24.2507 10.6771 26.1387 10.2539 27.6035C10.0586 28.3848 9.89583 29.0033 9.76562 29.459C9.63542 29.9473 9.57031 30.1914 9.57031 30.1914C9.57031 30.1914 9.84701 30.1914 10.4004 30.1914C10.9538 30.1914 11.5885 30.1914 12.3047 30.1914C13.1836 30.1589 14.0137 30.1426 14.7949 30.1426C15.5762 30.1426 15.9668 30.1426 15.9668 30.1426C15.9668 30.1426 16.2109 30.0286 16.6992 29.8008C17.1875 29.5404 17.7409 29.2474 18.3594 28.9219C19.1081 28.5312 19.8242 28.1406 20.5078 27.75C21.1914 27.3919 21.5332 27.2129 21.5332 27.2129C21.5332 27.2129 21.4193 27.6361 21.1914 28.4824C20.9635 29.3288 20.7194 30.2077 20.459 31.1191C20.2311 31.8678 20.0358 32.5352 19.873 33.1211C19.7103 33.707 19.6289 34 19.6289 34C19.6289 34 18.8314 34 17.2363 34C15.6413 34 13.8021 34 11.7188 34C10.0586 34 8.41471 34 6.78711 34C5.15951 34 3.82487 34 2.7832 34C2.22982 34 1.79036 34 1.46484 34C1.13932 34 0.976562 34 0.976562 34ZM42.9688 0.259766C42.9688 0.259766 42.7734 0.975911 42.3828 2.4082C41.9922 3.84049 41.5365 5.4681 41.0156 7.29102C40.5924 8.75586 40.1855 10.2207 39.7949 11.6855C39.4043 13.1178 39.0788 14.306 38.8184 15.25C38.6882 15.7383 38.5742 16.1289 38.4766 16.4219C38.4115 16.6823 38.3789 16.8125 38.3789 16.8125C38.3789 16.8125 38.6556 16.8125 39.209 16.8125C39.7624 16.8125 40.3809 16.8125 41.0645 16.8125C41.9434 16.8125 42.7897 16.8288 43.6035 16.8613C44.3848 16.8613 44.7754 16.8613 44.7754 16.8613C44.7754 16.8613 45.5729 16.8613 47.168 16.8613C48.7956 16.8613 49.6094 16.8613 49.6094 16.8613C49.6094 16.8613 49.3815 17.7077 48.9258 19.4004C48.4375 21.0605 47.9329 22.8346 47.4121 24.7227C46.9889 26.2526 46.6146 27.6035 46.2891 28.7754C45.9635 29.9473 45.7845 30.5495 45.752 30.582C45.752 30.582 45.4427 30.7936 44.8242 31.2168C44.2057 31.64 43.5547 32.0794 42.8711 32.5352C42.3177 32.9258 41.8294 33.2676 41.4062 33.5605C40.9831 33.8535 40.7715 34 40.7715 34C40.7715 34 40.2018 34 39.0625 34C37.9557 34 37.4023 34 37.4023 34C37.4023 34 37.6302 33.1536 38.0859 31.4609C38.5742 29.7682 39.0788 27.9941 39.5996 26.1387C40.0228 24.6087 40.3971 23.2578 40.7227 22.0859C41.0482 20.9141 41.2109 20.3281 41.2109 20.3281C41.2109 20.3281 40.5762 20.3118 39.3066 20.2793C38.0371 20.2793 37.4023 20.2793 37.4023 20.2793C37.4023 20.2793 37.2396 20.8652 36.9141 22.0371C36.5885 23.209 36.2142 24.5599 35.791 26.0898C35.2702 27.9453 34.7656 29.7194 34.2773 31.4121C33.8216 33.1048 33.5938 33.9512 33.5938 33.9512C33.5938 33.9512 33.138 33.9512 32.2266 33.9512C31.3151 33.9512 30.3385 33.9512 29.2969 33.9512C28.4831 33.9512 27.7507 33.9512 27.0996 33.9512C26.4486 33.9512 26.123 33.9512 26.123 33.9512C26.123 33.9512 26.3997 33.0072 26.9531 31.1191C27.474 29.2311 28.125 26.9036 28.9062 24.1367C29.3294 22.6393 29.7689 21.0768 30.2246 19.4492C30.6478 17.8216 31.0872 16.194 31.543 14.5664C32.2266 12.125 32.8776 9.83008 33.4961 7.68164C34.082 5.5332 34.554 3.80794 34.9121 2.50586C35.1074 1.78971 35.2702 1.23633 35.4004 0.845703C35.498 0.455078 35.5469 0.259766 35.5469 0.259766C35.5469 0.259766 36.0026 0.259766 36.9141 0.259766C37.8255 0.259766 38.8021 0.259766 39.8438 0.259766C40.6576 0.259766 41.39 0.259766 42.041 0.259766C42.6595 0.259766 42.9688 0.259766 42.9688 0.259766ZM54.3457 23.3066C54.3457 23.3066 54.7201 23.3066 55.4688 23.3066C56.1849 23.3066 56.9499 23.3066 57.7637 23.3066C58.4147 23.3066 59.0007 23.3066 59.5215 23.3066C60.0098 23.3066 60.2539 23.3066 60.2539 23.3066C60.2539 23.3066 60.3678 22.9486 60.5957 22.2324C60.791 21.5163 60.8887 21.1582 60.8887 21.1582C60.8887 21.1582 60.498 21.1582 59.7168 21.1582C58.903 21.1582 58.0566 21.1582 57.1777 21.1582C56.4616 21.1582 55.8268 21.1582 55.2734 21.1582C54.7201 21.1582 54.4434 21.1582 54.4434 21.1582C54.4434 21.1582 54.6224 20.8978 54.9805 20.377C55.306 19.8561 55.6641 19.3027 56.0547 18.7168C56.3477 18.2285 56.6081 17.8053 56.8359 17.4473C57.0638 17.0566 57.1777 16.8613 57.1777 16.8613C57.1777 16.8613 57.7311 16.8613 58.8379 16.8613C59.9121 16.8613 61.1491 16.8613 62.5488 16.8613C64.2741 16.8288 65.918 16.8125 67.4805 16.8125C69.0104 16.8125 69.7754 16.8125 69.7754 16.8125C69.7754 16.8125 69.6452 17.3008 69.3848 18.2773C69.0918 19.2539 68.75 20.4421 68.3594 21.8418C68.1315 22.5905 67.9036 23.388 67.6758 24.2344C67.4479 25.0482 67.2201 25.862 66.9922 26.6758C66.4388 28.5638 65.9505 30.2565 65.5273 31.7539C65.1367 33.2188 64.9414 33.9512 64.9414 33.9512C64.9414 33.9512 64.4043 33.9512 63.3301 33.9512C62.2884 33.9512 60.9863 33.9512 59.4238 33.9512C58.61 33.9512 57.7474 33.9512 56.8359 33.9512C55.8919 33.9512 54.9805 33.9674 54.1016 34C51.9857 34 50.1139 34 48.4863 34C46.8587 34 46.0449 34 46.0449 34C46.0449 34 46.1426 33.6419 46.3379 32.9258C46.5332 32.1771 46.7285 31.4121 46.9238 30.6309C47.1191 29.9798 47.2819 29.3939 47.4121 28.873C47.5423 28.3848 47.6074 28.1406 47.6074 28.1406C47.6074 28.1406 48.0143 27.8477 48.8281 27.2617C49.6745 26.6758 50.5534 26.041 51.4648 25.3574C52.2135 24.8366 52.8809 24.3646 53.4668 23.9414C54.0527 23.5182 54.3457 23.3066 54.3457 23.3066ZM58.4473 29.5078C58.5124 29.2474 58.6426 28.8079 58.8379 28.1895C59.0007 27.5384 59.082 27.2129 59.082 27.2129C59.082 27.2129 58.7728 27.2129 58.1543 27.2129C57.5358 27.2129 57.0475 27.2129 56.6895 27.2129C56.429 27.1803 56.0221 27.4408 55.4688 27.9941C54.9154 28.515 54.6061 28.9056 54.541 29.166C54.4759 29.3613 54.4108 29.6217 54.3457 29.9473C54.248 30.2728 54.1992 30.4355 54.1992 30.4355C54.1992 30.4355 54.5085 30.4193 55.127 30.3867C55.7129 30.3867 56.1686 30.3867 56.4941 30.3867C56.7871 30.3867 57.1777 30.2728 57.666 30.0449C58.1543 29.8496 58.4147 29.6706 58.4473 29.5078ZM78.2227 17.1055C78.2227 17.1055 78.2227 17.1217 78.2227 17.1543C78.2227 17.1543 78.6947 17.1543 79.6387 17.1543C80.5501 17.1217 81.0059 17.1055 81.0059 17.1055C81.0059 17.1055 81.3639 17.4635 82.0801 18.1797C82.7962 18.8633 83.5449 19.5794 84.3262 20.3281C84.9772 20.9466 85.5469 21.5 86.0352 21.9883C86.5234 22.444 86.7676 22.6719 86.7676 22.6719C86.7676 22.6719 86.5723 23.3717 86.1816 24.7715C85.791 26.1712 85.3841 27.6523 84.9609 29.2148C84.6029 30.4518 84.2936 31.5586 84.0332 32.5352C83.7402 33.5117 83.5938 34 83.5938 34C83.5938 34 83.1543 34 82.2754 34C81.3639 34 80.4036 34 79.3945 34C78.5807 34 77.8646 34 77.2461 34C76.5951 34 76.2695 34 76.2695 34C76.2695 34 76.5137 33.1211 77.002 31.3633C77.4902 29.638 78.0111 27.8151 78.5645 25.8945C79.0202 24.2995 79.4108 22.8997 79.7363 21.6953C80.0944 20.4909 80.2734 19.8887 80.2734 19.8887C80.2409 19.2702 80.0456 18.7331 79.6875 18.2773C79.3294 17.7891 78.8411 17.431 78.2227 17.2031C78.2227 17.2031 78.1738 17.3496 78.0762 17.6426C78.0111 17.9355 77.9134 18.3262 77.7832 18.8145C77.4902 19.7585 77.1484 20.9629 76.7578 22.4277C76.3346 23.8926 75.9115 25.3737 75.4883 26.8711C74.9674 28.7266 74.5117 30.3867 74.1211 31.8516C73.6979 33.2839 73.4863 34 73.4863 34C73.4863 34 73.1771 34 72.5586 34C71.9401 34 71.224 34 70.4102 34C69.401 34 68.4408 34 67.5293 34C66.6178 34 66.1621 34 66.1621 34C66.1621 34 66.3086 33.528 66.6016 32.584C66.862 31.6074 67.1875 30.4355 67.5781 29.0684C67.7734 28.3197 67.985 27.5384 68.2129 26.7246C68.4408 25.9108 68.6686 25.097 68.8965 24.2832C69.4173 22.3952 69.8893 20.735 70.3125 19.3027C70.7031 17.8379 70.8984 17.1055 70.8984 17.1055C70.8984 17.1055 71.3542 17.1055 72.2656 17.1055C73.1771 17.1055 74.1211 17.1055 75.0977 17.1055C75.9115 17.1055 76.6439 17.1055 77.2949 17.1055C77.9134 17.1055 78.2227 17.1055 78.2227 17.1055ZM91.8945 16.4707C91.8945 16.4707 92.6595 16.4707 94.1895 16.4707C95.7194 16.4707 97.4772 16.4707 99.4629 16.4707C101.025 16.4707 102.588 16.4707 104.15 16.4707C105.713 16.4707 106.982 16.4707 107.959 16.4707C108.512 16.4707 108.936 16.4707 109.229 16.4707C109.554 16.4707 109.717 16.4707 109.717 16.4707C109.717 16.4707 109.505 17.2194 109.082 18.7168C108.659 20.2142 108.447 20.9629 108.447 20.9629C108.447 20.9629 107.894 21.2396 106.787 21.793C105.713 22.3464 104.557 22.9323 103.32 23.5508C102.344 24.0391 101.465 24.4785 100.684 24.8691C99.9349 25.2598 99.5605 25.4551 99.5605 25.4551C99.5605 25.4551 99.6419 25.1133 99.8047 24.4297C100 23.7461 100.195 23.0462 100.391 22.3301C100.586 21.7116 100.749 21.1745 100.879 20.7188C101.009 20.2305 101.074 19.9863 101.074 19.9863C101.074 19.9863 100.472 19.9863 99.2676 19.9863C98.0632 19.9863 97.4609 19.9863 97.4609 19.9863C97.4609 19.9863 97.2819 20.6374 96.9238 21.9395C96.5658 23.209 96.1751 24.5599 95.752 25.9922C95.459 27.1641 95.1823 28.2057 94.9219 29.1172C94.6615 29.9961 94.5312 30.4355 94.5312 30.4355C94.5312 30.4355 95.0033 30.4355 95.9473 30.4355C96.9238 30.4355 98.0306 30.4355 99.2676 30.4355C100.798 30.4681 102.246 30.4844 103.613 30.4844C105.013 30.4844 105.713 30.4844 105.713 30.4844C105.713 30.4844 105.404 31.0703 104.785 32.2422C104.167 33.4141 103.857 34 103.857 34C103.857 34 103.353 34 102.344 34C101.335 34 100.098 34 98.6328 34C97.8516 34 97.0378 34 96.1914 34C95.3125 34 94.4499 34 93.6035 34C91.6178 34 89.86 34 88.3301 34C86.8001 34 86.0352 34 86.0352 34C86.0352 33.9674 86.0352 33.9512 86.0352 33.9512C86.0352 33.9512 86.0189 33.9512 85.9863 33.9512C85.9538 33.9512 85.9375 33.9512 85.9375 33.9512C85.9375 33.9512 86.084 33.4629 86.377 32.4863C86.6374 31.5098 86.9792 30.3053 87.4023 28.873C87.5977 28.0918 87.8255 27.278 88.0859 26.4316C88.3138 25.5853 88.5417 24.7552 88.7695 23.9414C89.3229 21.9557 89.8112 20.2142 90.2344 18.7168C90.6576 17.2194 90.8691 16.4707 90.8691 16.4707C90.8691 16.4707 91.0319 16.4707 91.3574 16.4707C91.6829 16.4707 91.8457 16.4707 91.8457 16.4707C91.8457 16.4707 91.862 16.4707 91.8945 16.4707ZM107.764 34.0488C108.545 31.1842 110.124 25.4714 112.5 16.9102C115.658 16.9102 121.989 16.9102 131.494 16.9102C131.299 17.6589 130.876 19.1725 130.225 21.4512C128.011 22.6882 123.535 25.1947 116.797 28.9707C116.732 29.2311 116.634 29.7682 116.504 30.582C118.294 30.582 121.891 30.582 127.295 30.582C127.002 31.1354 126.416 32.2747 125.537 34C122.575 34 116.65 34.0163 107.764 34.0488ZM118.994 20.377C118.734 21.2559 118.245 23.0137 117.529 25.6504C118.245 25.2923 119.661 24.5762 121.777 23.502C121.908 23.0137 122.054 22.3789 122.217 21.5977C122.347 20.8164 122.428 20.4258 122.461 20.4258C121.973 20.4258 121.419 20.4258 120.801 20.4258C120.15 20.3932 119.548 20.377 118.994 20.377Z" fill="white"/>
</svg>
