<svg width="149" height="50" viewBox="0 0 149 50" fill="none" xmlns="http://www.w3.org/2000/svg">
<path d="M0.357422 49C0.357422 49 0.507812 48.5488 0.808594 47.6465C1.05924 46.7441 1.38509 45.516 1.78613 43.9619C2.58822 41.0544 3.64095 37.3447 4.94434 32.833C6.19759 28.2712 7.45085 23.7093 8.7041 19.1475C9.30566 17.0921 9.8571 15.112 10.3584 13.207C10.9098 11.3021 11.4362 9.4974 11.9375 7.79297C12.7897 4.63477 13.4915 2.05306 14.043 0.0478516C14.6445 -1.95736 14.9453 -2.95996 14.9453 -2.95996C14.9453 -2.95996 15.1709 -2.95996 15.6221 -2.95996C16.1234 -2.95996 16.8001 -2.95996 17.6523 -2.95996C19.2565 -2.95996 21.3118 -2.95996 23.8184 -2.95996C26.3249 -2.95996 28.8564 -2.95996 31.4131 -2.95996C34.6214 -2.95996 37.4538 -2.95996 39.9102 -2.95996C42.4167 -2.95996 43.6699 -2.95996 43.6699 -2.95996C43.6699 -2.95996 43.3441 -1.80697 42.6924 0.499023C42.0407 2.80501 41.3639 5.21126 40.6621 7.71777C40.0605 9.82324 39.5342 11.653 39.083 13.207C38.6318 14.8112 38.4062 15.6133 38.4062 15.6133C38.4062 15.6133 37.8298 15.9141 36.6768 16.5156C35.5238 17.0671 34.2204 17.7188 32.7666 18.4707C30.9118 19.4232 29.1572 20.3005 27.5029 21.1025C25.8486 21.9548 25.0215 22.3809 25.0215 22.3809C25.0215 22.3809 25.3223 21.3281 25.9238 19.2227C26.5254 17.0671 27.152 14.7611 27.8037 12.3047C28.2549 10.7005 28.681 9.17155 29.082 7.71777C29.4831 6.31413 29.7839 5.28646 29.9844 4.63477C30.0846 4.23372 29.859 3.78255 29.3076 3.28125C28.8063 2.72982 28.305 2.4541 27.8037 2.4541C27.3525 2.4541 26.751 2.4541 25.999 2.4541C25.2972 2.4541 24.9463 2.4541 24.9463 2.4541C24.9463 2.4541 24.445 4.20866 23.4424 7.71777C22.4899 11.2269 21.362 15.2373 20.0586 19.749C19.056 23.3584 18.0785 26.9176 17.126 30.4268C16.1234 33.986 15.2962 36.8936 14.6445 39.1494C14.3438 40.3525 14.0931 41.305 13.8926 42.0068C13.6921 42.7588 13.5918 43.1348 13.5918 43.1348C13.5918 43.1348 14.0179 43.1348 14.8701 43.1348C15.7223 43.1348 16.6999 43.1348 17.8027 43.1348C19.1562 43.0846 20.4346 43.0596 21.6377 43.0596C22.8408 43.0596 23.4424 43.0596 23.4424 43.0596C23.4424 43.0596 23.8184 42.8841 24.5703 42.5332C25.3223 42.1322 26.1745 41.681 27.127 41.1797C28.2799 40.5781 29.3828 39.9766 30.4355 39.375C31.4883 38.8236 32.0146 38.5479 32.0146 38.5479C32.0146 38.5479 31.8392 39.1995 31.4883 40.5029C31.1374 41.8063 30.7614 43.1598 30.3604 44.5635C30.0094 45.7165 29.7087 46.7441 29.458 47.6465C29.2074 48.5488 29.082 49 29.082 49C29.082 49 27.8538 49 25.3975 49C22.9411 49 20.1087 49 16.9004 49C14.3438 49 11.8122 49 9.30566 49C6.79915 49 4.74382 49 3.13965 49C2.28743 49 1.61068 49 1.10938 49C0.608073 49 0.357422 49 0.357422 49ZM49.084 43.6611C49.3346 43.6611 49.6605 43.6611 50.0615 43.6611C50.4626 43.6611 50.6631 43.6611 50.6631 43.6611C50.6631 43.6611 50.8887 42.9092 51.3398 41.4053C51.7409 39.8512 52.1921 38.1969 52.6934 36.4424C52.9941 35.2894 53.2949 34.1865 53.5957 33.1338C53.8965 32.1312 54.1221 31.3542 54.2725 30.8027C54.4229 30.3014 54.1722 29.6999 53.5205 28.998C52.8688 28.2461 52.3424 27.8701 51.9414 27.8701C51.6406 27.8701 51.2897 27.8701 50.8887 27.8701C50.4876 27.8701 50.2871 27.8701 50.2871 27.8701C50.2871 27.8701 50.0615 28.6471 49.6104 30.2012C49.2093 31.7051 48.7581 33.3343 48.2568 35.0889C47.9059 36.292 47.5801 37.4199 47.2793 38.4727C47.0286 39.4753 46.8281 40.2523 46.6777 40.8037C46.5273 41.2549 46.8031 41.8314 47.5049 42.5332C48.1566 43.2852 48.6829 43.6611 49.084 43.6611ZM65.9277 30.9531C65.9277 30.9531 65.7272 31.7301 65.3262 33.2842C64.875 34.8382 64.3737 36.6429 63.8223 38.6982C63.1204 41.1546 62.4437 43.5107 61.792 45.7666C61.1904 48.0225 60.8896 49.1504 60.8896 49.1504C60.8896 49.1504 60.1878 49.1504 58.7842 49.1504C57.3805 49.1504 55.7764 49.1504 53.9717 49.1504C51.766 49.1003 49.6605 49.0752 47.6553 49.0752C45.5999 49.0752 44.5723 49.0752 44.5723 49.0752C44.5723 49.0752 44.5723 49.1003 44.5723 49.1504C44.5723 49.1504 44.1712 48.8496 43.3691 48.248C42.5671 47.6966 41.6146 47.0449 40.5117 46.293C39.2585 45.3405 38.0303 44.4632 36.8271 43.6611C35.624 42.8089 35.0225 42.3828 35.0225 42.3828C35.0225 42.3828 35.2731 41.5306 35.7744 39.8262C36.2256 38.1217 36.752 36.1917 37.3535 34.0361C38.1055 31.3291 38.8324 28.7725 39.5342 26.3662C40.1859 23.9098 40.5117 22.6816 40.5117 22.6816C40.5117 22.6816 41.4141 22.6816 43.2188 22.6816C44.9733 22.6816 46.9785 22.6816 49.2344 22.6816C52.0417 22.6816 54.7236 22.6816 57.2803 22.6816C59.7868 22.6816 61.04 22.6816 61.04 22.6816C61.04 22.6816 61.2406 23.0326 61.6416 23.7344C62.0928 24.4863 62.5941 25.3135 63.1455 26.2158C63.7972 27.3187 64.4238 28.3965 65.0254 29.4492C65.627 30.4518 65.9277 30.9531 65.9277 30.9531ZM81.418 49C81.418 49 80.666 49.0251 79.1621 49.0752C77.6081 49.0752 76.0039 49.0752 74.3496 49.0752C72.946 49.0752 71.7178 49.1003 70.665 49.1504C69.5622 49.1504 69.0107 49.1504 69.0107 49.1504C69.0107 49.1504 69.4118 47.6966 70.2139 44.7891C71.016 41.8815 71.9935 38.2972 73.1465 34.0361C73.748 31.7301 74.3997 29.3239 75.1016 26.8174C75.7533 24.3109 76.4049 21.8294 77.0566 19.373C78.1094 15.6133 79.0618 12.0791 79.9141 8.77051C80.8164 5.46191 81.5433 2.77995 82.0947 0.724609C82.3955 -0.328125 82.6211 -1.15527 82.7715 -1.75684C82.972 -2.40853 83.0723 -2.73438 83.0723 -2.73438C83.0723 -2.73438 83.5986 -2.73438 84.6514 -2.73438C85.7041 -2.73438 86.9072 -2.73438 88.2607 -2.73438C89.9652 -2.73438 91.5693 -2.75944 93.0732 -2.80957C94.5771 -2.80957 95.3291 -2.80957 95.3291 -2.80957C95.3291 -2.80957 95.2038 -2.3584 94.9531 -1.45605C94.7025 -0.553711 94.3766 0.674479 93.9756 2.22852C93.1735 5.08594 92.1709 8.79557 90.9678 13.3574C89.7646 17.8691 88.5615 22.4059 87.3584 26.9678C86.3558 30.7275 85.4033 34.2617 84.501 37.5703C83.5986 40.8789 82.8717 43.5609 82.3203 45.6162C82.0697 46.6689 81.8441 47.4961 81.6436 48.0977C81.4932 48.6992 81.418 49 81.418 49ZM100.217 43.6611C100.467 43.6611 100.793 43.6611 101.194 43.6611C101.595 43.6611 101.796 43.6611 101.796 43.6611C101.796 43.6611 102.021 42.9092 102.473 41.4053C102.874 39.8512 103.325 38.1969 103.826 36.4424C104.127 35.2894 104.428 34.1865 104.729 33.1338C105.029 32.1312 105.255 31.3542 105.405 30.8027C105.556 30.3014 105.305 29.6999 104.653 28.998C104.002 28.2461 103.475 27.8701 103.074 27.8701C102.773 27.8701 102.423 27.8701 102.021 27.8701C101.62 27.8701 101.42 27.8701 101.42 27.8701C101.42 27.8701 101.194 28.6471 100.743 30.2012C100.342 31.7051 99.891 33.3343 99.3896 35.0889C99.0387 36.292 98.7129 37.4199 98.4121 38.4727C98.1615 39.4753 97.9609 40.2523 97.8105 40.8037C97.6602 41.2549 97.9359 41.8314 98.6377 42.5332C99.2894 43.2852 99.8158 43.6611 100.217 43.6611ZM117.061 30.9531C117.061 30.9531 116.86 31.7301 116.459 33.2842C116.008 34.8382 115.507 36.6429 114.955 38.6982C114.253 41.1546 113.576 43.5107 112.925 45.7666C112.323 48.0225 112.022 49.1504 112.022 49.1504C112.022 49.1504 111.321 49.1504 109.917 49.1504C108.513 49.1504 106.909 49.1504 105.104 49.1504C102.899 49.1003 100.793 49.0752 98.7881 49.0752C96.7327 49.0752 95.7051 49.0752 95.7051 49.0752C95.7051 49.0752 95.7051 49.1003 95.7051 49.1504C95.7051 49.1504 95.304 48.8496 94.502 48.248C93.6999 47.6966 92.7474 47.0449 91.6445 46.293C90.3913 45.3405 89.1631 44.4632 87.96 43.6611C86.7568 42.8089 86.1553 42.3828 86.1553 42.3828C86.1553 42.3828 86.4059 41.5306 86.9072 39.8262C87.3584 38.1217 87.8848 36.1917 88.4863 34.0361C89.2383 31.3291 89.9652 28.7725 90.667 26.3662C91.3187 23.9098 91.6445 22.6816 91.6445 22.6816C91.6445 22.6816 92.5469 22.6816 94.3516 22.6816C96.1061 22.6816 98.1113 22.6816 100.367 22.6816C103.174 22.6816 105.856 22.6816 108.413 22.6816C110.92 22.6816 112.173 22.6816 112.173 22.6816C112.173 22.6816 112.373 23.0326 112.774 23.7344C113.226 24.4863 113.727 25.3135 114.278 26.2158C114.93 27.3187 115.557 28.3965 116.158 29.4492C116.76 30.4518 117.061 30.9531 117.061 30.9531ZM121.121 22.4561C121.121 22.4561 121.898 22.4561 123.452 22.4561C125.006 22.4561 126.911 22.4561 129.167 22.4561C130.37 22.4561 131.648 22.4561 133.002 22.4561C134.305 22.4561 135.609 22.4561 136.912 22.4561C140.02 22.4561 142.752 22.4561 145.108 22.4561C147.465 22.4561 148.643 22.4561 148.643 22.4561C148.643 22.4561 148.417 23.2581 147.966 24.8623C147.515 26.4665 147.038 28.1458 146.537 29.9004C146.136 31.3542 145.785 32.6325 145.484 33.7354C145.133 34.8883 144.958 35.4648 144.958 35.4648C144.958 35.4648 144.256 35.4648 142.853 35.4648C141.449 35.4648 139.945 35.4648 138.341 35.4648C137.088 35.4648 135.96 35.4648 134.957 35.4648C133.954 35.4648 133.453 35.4648 133.453 35.4648C133.453 35.4648 133.604 34.9635 133.904 33.9609C134.155 32.9583 134.431 31.9056 134.731 30.8027C134.982 29.9505 135.208 29.1735 135.408 28.4717C135.609 27.7699 135.709 27.4189 135.709 27.4189C135.358 26.5667 134.882 25.8649 134.28 25.3135C133.729 24.7119 133.052 24.3109 132.25 24.1104C132.25 24.1104 131.949 25.1631 131.348 27.2686C130.746 29.4242 130.044 31.9056 129.242 34.7129C128.641 36.8685 128.039 39.0492 127.438 41.2549C126.836 43.4105 126.335 45.1901 125.934 46.5938C125.733 47.3457 125.558 47.9222 125.407 48.3232C125.307 48.7744 125.257 49 125.257 49C125.257 49 124.53 49 123.076 49C121.673 49 120.194 49 118.64 49C117.336 49 116.183 49 115.181 49C114.178 49 113.677 49 113.677 49C113.677 49 113.902 48.248 114.354 46.7441C114.755 45.2402 115.256 43.4105 115.857 41.2549C116.208 40.1019 116.559 38.8737 116.91 37.5703C117.261 36.2669 117.612 34.9886 117.963 33.7354C118.815 30.7777 119.567 28.1458 120.219 25.8398C120.82 23.584 121.121 22.4561 121.121 22.4561Z" fill="white"/>
</svg>
