<svg width="231" height="76" viewBox="0 0 231 76" fill="none" xmlns="http://www.w3.org/2000/svg">
<path d="M0.503906 52C0.503906 52 0.654297 51.5488 0.955078 50.6465C1.20573 49.7441 1.53158 48.516 1.93262 46.9619C2.7347 44.0544 3.78743 40.3447 5.09082 35.833C6.34408 31.2712 7.59733 26.7093 8.85059 22.1475C9.45215 20.0921 10.0036 18.112 10.5049 16.207C11.0563 14.3021 11.5827 12.4974 12.084 10.793C12.9362 7.63477 13.638 5.05306 14.1895 3.04785C14.791 1.04264 15.0918 0.0400391 15.0918 0.0400391C15.0918 0.0400391 15.3174 0.0400391 15.7686 0.0400391C16.2699 0.0400391 16.9466 0.0400391 17.7988 0.0400391C19.403 0.0400391 21.4583 0.0400391 23.9648 0.0400391C26.4714 0.0400391 29.0029 0.0400391 31.5596 0.0400391C34.7679 0.0400391 37.6003 0.0400391 40.0566 0.0400391C42.5632 0.0400391 43.8164 0.0400391 43.8164 0.0400391C43.8164 0.0400391 43.4906 1.19303 42.8389 3.49902C42.1872 5.80501 41.5104 8.21126 40.8086 10.7178C40.207 12.8232 39.6807 14.653 39.2295 16.207C38.7783 17.8112 38.5527 18.6133 38.5527 18.6133C38.5527 18.6133 37.9762 18.9141 36.8232 19.5156C35.6702 20.0671 34.3669 20.7188 32.9131 21.4707C31.0583 22.4232 29.3037 23.3005 27.6494 24.1025C25.9951 24.9548 25.168 25.3809 25.168 25.3809C25.168 25.3809 25.4688 24.3281 26.0703 22.2227C26.6719 20.0671 27.2985 17.7611 27.9502 15.3047C28.4014 13.7005 28.8275 12.1715 29.2285 10.7178C29.6296 9.31413 29.9303 8.28646 30.1309 7.63477C30.2311 7.23372 30.0055 6.78255 29.4541 6.28125C28.9528 5.72982 28.4515 5.4541 27.9502 5.4541C27.499 5.4541 26.8975 5.4541 26.1455 5.4541C25.4437 5.4541 25.0928 5.4541 25.0928 5.4541C25.0928 5.4541 24.5915 7.20866 23.5889 10.7178C22.6364 14.2269 21.5085 18.2373 20.2051 22.749C19.2025 26.3584 18.2249 29.9176 17.2725 33.4268C16.2699 36.986 15.4427 39.8936 14.791 42.1494C14.4902 43.3525 14.2396 44.305 14.0391 45.0068C13.8385 45.7588 13.7383 46.1348 13.7383 46.1348C13.7383 46.1348 14.1644 46.1348 15.0166 46.1348C15.8688 46.1348 16.8464 46.1348 17.9492 46.1348C19.3027 46.0846 20.5811 46.0596 21.7842 46.0596C22.9873 46.0596 23.5889 46.0596 23.5889 46.0596C23.5889 46.0596 23.9648 45.8841 24.7168 45.5332C25.4688 45.1322 26.321 44.681 27.2734 44.1797C28.4264 43.5781 29.5293 42.9766 30.582 42.375C31.6348 41.8236 32.1611 41.5479 32.1611 41.5479C32.1611 41.5479 31.9857 42.1995 31.6348 43.5029C31.2839 44.8063 30.9079 46.1598 30.5068 47.5635C30.1559 48.7165 29.8551 49.7441 29.6045 50.6465C29.3538 51.5488 29.2285 52 29.2285 52C29.2285 52 28.0003 52 25.5439 52C23.0876 52 20.2552 52 17.0469 52C14.4902 52 11.9587 52 9.45215 52C6.94564 52 4.8903 52 3.28613 52C2.43392 52 1.75716 52 1.25586 52C0.754557 52 0.503906 52 0.503906 52ZM49.2305 46.6611C49.4811 46.6611 49.807 46.6611 50.208 46.6611C50.609 46.6611 50.8096 46.6611 50.8096 46.6611C50.8096 46.6611 51.0352 45.9092 51.4863 44.4053C51.8874 42.8512 52.3385 41.1969 52.8398 39.4424C53.1406 38.2894 53.4414 37.1865 53.7422 36.1338C54.043 35.1312 54.2686 34.3542 54.4189 33.8027C54.5693 33.3014 54.3187 32.6999 53.667 31.998C53.0153 31.2461 52.4889 30.8701 52.0879 30.8701C51.7871 30.8701 51.4362 30.8701 51.0352 30.8701C50.6341 30.8701 50.4336 30.8701 50.4336 30.8701C50.4336 30.8701 50.208 31.6471 49.7568 33.2012C49.3558 34.7051 48.9046 36.3343 48.4033 38.0889C48.0524 39.292 47.7266 40.4199 47.4258 41.4727C47.1751 42.4753 46.9746 43.2523 46.8242 43.8037C46.6738 44.2549 46.9495 44.8314 47.6514 45.5332C48.3031 46.2852 48.8294 46.6611 49.2305 46.6611ZM66.0742 33.9531C66.0742 33.9531 65.8737 34.7301 65.4727 36.2842C65.0215 37.8382 64.5202 39.6429 63.9688 41.6982C63.2669 44.1546 62.5902 46.5107 61.9385 48.7666C61.3369 51.0225 61.0361 52.1504 61.0361 52.1504C61.0361 52.1504 60.3343 52.1504 58.9307 52.1504C57.527 52.1504 55.9229 52.1504 54.1182 52.1504C51.9124 52.1003 49.807 52.0752 47.8018 52.0752C45.7464 52.0752 44.7188 52.0752 44.7188 52.0752C44.7188 52.0752 44.7188 52.1003 44.7188 52.1504C44.7188 52.1504 44.3177 51.8496 43.5156 51.248C42.7135 50.6966 41.7611 50.0449 40.6582 49.293C39.4049 48.3405 38.1768 47.4632 36.9736 46.6611C35.7705 45.8089 35.1689 45.3828 35.1689 45.3828C35.1689 45.3828 35.4196 44.5306 35.9209 42.8262C36.3721 41.1217 36.8984 39.1917 37.5 37.0361C38.252 34.3291 38.9788 31.7725 39.6807 29.3662C40.3324 26.9098 40.6582 25.6816 40.6582 25.6816C40.6582 25.6816 41.5605 25.6816 43.3652 25.6816C45.1198 25.6816 47.125 25.6816 49.3809 25.6816C52.1882 25.6816 54.8701 25.6816 57.4268 25.6816C59.9333 25.6816 61.1865 25.6816 61.1865 25.6816C61.1865 25.6816 61.387 26.0326 61.7881 26.7344C62.2393 27.4863 62.7406 28.3135 63.292 29.2158C63.9437 30.3187 64.5703 31.3965 65.1719 32.4492C65.7734 33.4518 66.0742 33.9531 66.0742 33.9531ZM85.7002 25.9824C85.7002 25.9824 85.7002 26.0075 85.7002 26.0576C85.7002 26.0576 86.4271 26.0576 87.8809 26.0576C89.2845 26.0075 89.9863 25.9824 89.9863 25.9824C89.9863 25.9824 90.5378 26.5339 91.6406 27.6367C92.7435 28.6895 93.8965 29.7923 95.0996 30.9453C96.1022 31.8978 96.9795 32.75 97.7314 33.502C98.4834 34.2038 98.8594 34.5547 98.8594 34.5547C98.8594 34.5547 98.5586 35.6325 97.957 37.7881C97.3555 39.9437 96.7288 42.2246 96.0771 44.6309C95.5257 46.5358 95.0495 48.2402 94.6484 49.7441C94.1973 51.248 93.9717 52 93.9717 52C93.9717 52 93.2949 52 91.9414 52C90.5378 52 89.0589 52 87.5049 52C86.2516 52 85.1488 52 84.1963 52C83.1937 52 82.6924 52 82.6924 52C82.6924 52 83.0684 50.6465 83.8203 47.9395C84.5723 45.2826 85.3743 42.4753 86.2266 39.5176C86.9284 37.0612 87.5299 34.9056 88.0312 33.0508C88.5827 31.196 88.8584 30.2686 88.8584 30.2686C88.8083 29.3161 88.5075 28.4889 87.9561 27.7871C87.4046 27.0352 86.6527 26.4837 85.7002 26.1328C85.7002 26.1328 85.625 26.3584 85.4746 26.8096C85.3743 27.2607 85.224 27.8623 85.0234 28.6143C84.5723 30.068 84.0459 31.9229 83.4443 34.1787C82.7926 36.4346 82.141 38.7155 81.4893 41.0215C80.6872 43.8789 79.9854 46.4355 79.3838 48.6914C78.7321 50.8971 78.4062 52 78.4062 52C78.4062 52 77.93 52 76.9775 52C76.0251 52 74.9222 52 73.6689 52C72.1149 52 70.6361 52 69.2324 52C67.8288 52 67.127 52 67.127 52C67.127 52 67.3525 51.2731 67.8037 49.8193C68.2048 48.3154 68.7061 46.5107 69.3076 44.4053C69.6084 43.2523 69.9342 42.0492 70.2852 40.7959C70.6361 39.5426 70.987 38.2894 71.3379 37.0361C72.14 34.1286 72.8669 31.5719 73.5186 29.3662C74.1201 27.1104 74.4209 25.9824 74.4209 25.9824C74.4209 25.9824 75.1227 25.9824 76.5264 25.9824C77.93 25.9824 79.3838 25.9824 80.8877 25.9824C82.141 25.9824 83.2689 25.9824 84.2715 25.9824C85.224 25.9824 85.7002 25.9824 85.7002 25.9824ZM106.755 25.0049C106.755 25.0049 107.933 25.0049 110.289 25.0049C112.645 25.0049 115.352 25.0049 118.41 25.0049C120.816 25.0049 123.223 25.0049 125.629 25.0049C128.035 25.0049 129.99 25.0049 131.494 25.0049C132.346 25.0049 132.998 25.0049 133.449 25.0049C133.951 25.0049 134.201 25.0049 134.201 25.0049C134.201 25.0049 133.875 26.1579 133.224 28.4639C132.572 30.7699 132.246 31.9229 132.246 31.9229C132.246 31.9229 131.394 32.349 129.689 33.2012C128.035 34.0534 126.256 34.9557 124.351 35.9082C122.847 36.6602 121.493 37.3369 120.29 37.9385C119.137 38.54 118.561 38.8408 118.561 38.8408C118.561 38.8408 118.686 38.3145 118.937 37.2617C119.237 36.209 119.538 35.1312 119.839 34.0283C120.14 33.0758 120.39 32.2487 120.591 31.5469C120.791 30.7949 120.892 30.4189 120.892 30.4189C120.892 30.4189 119.964 30.4189 118.109 30.4189C116.255 30.4189 115.327 30.4189 115.327 30.4189C115.327 30.4189 115.051 31.4215 114.5 33.4268C113.949 35.3818 113.347 37.4622 112.695 39.668C112.244 41.4727 111.818 43.0768 111.417 44.4805C111.016 45.834 110.815 46.5107 110.815 46.5107C110.815 46.5107 111.542 46.5107 112.996 46.5107C114.5 46.5107 116.204 46.5107 118.109 46.5107C120.465 46.5609 122.696 46.5859 124.802 46.5859C126.957 46.5859 128.035 46.5859 128.035 46.5859C128.035 46.5859 127.559 47.4883 126.606 49.293C125.654 51.0977 125.178 52 125.178 52C125.178 52 124.401 52 122.847 52C121.293 52 119.388 52 117.132 52C115.929 52 114.675 52 113.372 52C112.019 52 110.69 52 109.387 52C106.329 52 103.622 52 101.266 52C98.9095 52 97.7314 52 97.7314 52C97.7314 51.9499 97.7314 51.9248 97.7314 51.9248C97.7314 51.9248 97.7064 51.9248 97.6562 51.9248C97.6061 51.9248 97.5811 51.9248 97.5811 51.9248C97.5811 51.9248 97.8066 51.1729 98.2578 49.6689C98.6589 48.165 99.1852 46.3102 99.8369 44.1045C100.138 42.9014 100.489 41.6481 100.89 40.3447C101.241 39.0413 101.591 37.763 101.942 36.5098C102.795 33.4518 103.547 30.7699 104.198 28.4639C104.85 26.1579 105.176 25.0049 105.176 25.0049C105.176 25.0049 105.426 25.0049 105.928 25.0049C106.429 25.0049 106.68 25.0049 106.68 25.0049C106.68 25.0049 106.705 25.0049 106.755 25.0049ZM131.193 52.0752C132.396 47.6637 134.828 38.8659 138.487 25.6816C143.35 25.6816 153.1 25.6816 167.738 25.6816C167.438 26.8346 166.786 29.1657 165.783 32.6748C162.374 34.5798 155.481 38.4398 145.104 44.2549C145.004 44.6559 144.854 45.4831 144.653 46.7363C147.41 46.7363 152.95 46.7363 161.271 46.7363C160.82 47.5885 159.918 49.3431 158.564 52C154.003 52 144.879 52.0251 131.193 52.0752ZM148.488 31.0205C148.087 32.374 147.335 35.0811 146.232 39.1416C147.335 38.5902 149.516 37.4873 152.774 35.833C152.975 35.0811 153.201 34.1035 153.451 32.9004C153.652 31.6973 153.777 31.0957 153.827 31.0957C153.075 31.0957 152.223 31.0957 151.271 31.0957C150.268 31.0456 149.34 31.0205 148.488 31.0205ZM185.785 32.1484C185.434 32.1484 184.958 32.1484 184.356 32.1484C183.755 32.1484 183.454 32.1484 183.454 32.1484C183.454 32.1484 183.203 33.0508 182.702 34.8555C182.201 36.7103 181.649 38.6654 181.048 40.7207C180.647 42.1745 180.296 43.5029 179.995 44.7061C179.644 45.9593 179.368 46.8617 179.168 47.4131C179.068 47.8643 179.343 48.4408 179.995 49.1426C180.647 49.8444 181.198 50.1953 181.649 50.1953C182.05 50.1953 182.552 50.1953 183.153 50.1953C183.805 50.1953 184.131 50.1953 184.131 50.1953C184.131 50.1953 184.356 49.3431 184.808 47.6387C185.259 45.9342 185.76 44.1045 186.312 42.1494C186.713 40.846 187.063 39.6178 187.364 38.4648C187.715 37.2617 187.966 36.3594 188.116 35.7578C188.267 35.1562 188.041 34.4043 187.439 33.502C186.838 32.5996 186.286 32.1484 185.785 32.1484ZM172.1 26.0576C172.1 26.0576 172.501 26.0576 173.303 26.0576C174.105 26.0576 174.506 26.0576 174.506 26.0576C174.506 26.0576 174.506 26.0326 174.506 25.9824C174.506 25.9824 175.834 25.9824 178.491 25.9824C181.148 25.9824 183.955 26.0075 186.913 26.0576C189.319 26.0576 191.45 26.0576 193.305 26.0576C195.16 26.0576 196.087 26.0576 196.087 26.0576C196.087 26.0576 196.563 26.0576 197.516 26.0576C198.518 26.0576 199.546 26.0576 200.599 26.0576C201.451 26.0576 202.228 26.0576 202.93 26.0576C203.581 26.0576 203.907 26.0576 203.907 26.0576C203.907 26.0576 203.857 26.2581 203.757 26.6592C203.657 27.0602 203.506 27.6367 203.306 28.3887C202.905 29.6921 202.428 31.3965 201.877 33.502C201.275 35.6576 200.674 37.7881 200.072 39.8936C199.32 42.6006 198.644 45.0068 198.042 47.1123C197.491 49.1676 197.215 50.1953 197.215 50.1953C197.215 50.1953 196.638 50.5713 195.485 51.3232C194.282 52.0752 193.054 52.8522 191.801 53.6543C190.748 54.3561 189.796 54.9577 188.943 55.459C188.141 56.0104 187.74 56.2861 187.74 56.2861C187.74 56.2861 187.063 56.2861 185.71 56.2861C184.306 56.2861 182.878 56.2861 181.424 56.2861C180.171 56.2861 179.068 56.2861 178.115 56.2861C177.213 56.2861 176.762 56.2861 176.762 56.2861C176.762 56.2861 176.436 57.4391 175.784 59.7451C175.132 62.1012 174.431 64.5576 173.679 67.1143C173.127 69.1696 172.626 71.0244 172.175 72.6787C171.724 74.2829 171.498 75.085 171.498 75.085C171.498 75.085 170.671 75.085 169.017 75.085C167.412 75.085 165.733 75.085 163.979 75.085C162.475 75.085 161.171 75.085 160.068 75.085C158.915 75.085 158.339 75.085 158.339 75.085C158.339 75.085 158.74 73.7064 159.542 70.9492C160.294 68.1921 161.246 64.7832 162.399 60.7227C163.001 58.5671 163.628 56.3112 164.279 53.9551C164.931 51.599 165.583 49.2428 166.234 46.8867C167.237 43.3275 168.189 39.9688 169.092 36.8105C169.944 33.7025 170.646 31.196 171.197 29.291C171.448 28.2884 171.674 27.4863 171.874 26.8848C172.024 26.3333 172.1 26.0576 172.1 26.0576ZM207.141 52C207.141 52 207.492 50.7217 208.193 48.165C208.945 45.6084 209.697 42.9014 210.449 40.0439C211.101 37.738 211.677 35.6826 212.179 33.8779C212.68 32.0732 212.931 31.1709 212.931 31.1709C212.931 31.1709 211.953 31.1709 209.998 31.1709C207.993 31.1709 206.99 31.1709 206.99 31.1709C206.99 31.1709 207.266 30.2936 207.817 28.5391C208.319 26.7845 208.569 25.9072 208.569 25.9072C208.569 25.9072 209.522 25.9072 211.427 25.9072C213.382 25.9574 215.613 25.9824 218.119 25.9824C221.127 25.9824 224.035 25.9824 226.842 25.9824C229.599 25.9824 230.978 25.9824 230.978 25.9824C230.978 25.9824 230.727 26.8597 230.226 28.6143C229.674 30.3688 229.398 31.2461 229.398 31.2461C229.398 31.2461 228.546 31.2461 226.842 31.2461C225.087 31.2461 224.21 31.2461 224.21 31.2461C224.21 31.2461 223.834 32.5244 223.082 35.0811C222.38 37.6377 221.628 40.3197 220.826 43.127C220.225 45.4831 219.673 47.5384 219.172 49.293C218.671 51.0977 218.42 52 218.42 52C218.42 52 217.718 52 216.314 52C214.911 52 213.457 52 211.953 52C210.7 52 209.572 52 208.569 52C207.617 52 207.141 52 207.141 52Z" fill="white"/>
</svg>
