<svg width="214" height="35" viewBox="0 0 214 35" fill="none" xmlns="http://www.w3.org/2000/svg">
<path d="M16.1621 20.2793C16.1621 20.2793 15.7715 19.7422 14.9902 18.668C14.209 17.6263 13.8184 17.1055 13.8184 17.1055C13.8184 17.1055 13.6882 17.1868 13.4277 17.3496C13.1673 17.5449 13.0371 17.6426 13.0371 17.6426C13.0371 17.6426 12.8255 18.4076 12.4023 19.9375C11.9792 21.4674 11.5397 23.0788 11.084 24.7715C10.6934 26.1712 10.3353 27.4082 10.0098 28.4824C9.7168 29.5566 9.57031 30.0938 9.57031 30.0938C9.57031 30.0938 9.97721 30.0938 10.791 30.0938C11.6048 30.0938 12.0117 30.0938 12.0117 30.0938C12.2721 30.0938 12.6302 29.8984 13.0859 29.5078C13.5417 29.1497 13.8021 28.8405 13.8672 28.5801C13.9648 28.2546 14.1113 27.75 14.3066 27.0664C14.502 26.3828 14.6973 25.6667 14.8926 24.918C15.2181 23.7786 15.5111 22.7207 15.7715 21.7441C16.0319 20.7676 16.1621 20.2793 16.1621 20.2793ZM15.7227 12.6133C15.7227 12.6133 16.0319 13.0365 16.6504 13.8828C17.2689 14.7617 18.0013 15.7383 18.8477 16.8125C19.8242 18.1797 20.7682 19.4818 21.6797 20.7188C22.5911 21.9232 23.0469 22.5254 23.0469 22.5254C23.0469 22.5254 22.8516 23.2415 22.4609 24.6738C22.0703 26.0736 21.6471 27.5547 21.1914 29.1172C20.8333 30.3867 20.5241 31.526 20.2637 32.5352C19.9707 33.5117 19.8242 34 19.8242 34C19.8242 34 19.6615 34 19.3359 34C19.0104 34 18.571 34 18.0176 34C16.9434 34 15.5924 34 13.9648 34C12.3372 34 10.6934 34 9.0332 34C6.91732 34 5.04557 34 3.41797 34C1.79036 34 0.976562 34 0.976562 34C0.976562 34 1.04167 33.8047 1.17188 33.4141C1.26953 33.0234 1.41602 32.4701 1.61133 31.7539C2.00195 30.4518 2.49023 28.7266 3.07617 26.5781C3.69466 24.3971 4.3457 22.0859 5.0293 19.6445C5.45247 18.0495 5.89193 16.4219 6.34766 14.7617C6.80339 13.1341 7.24284 11.5879 7.66602 10.123C8.44727 7.32357 9.09831 4.97982 9.61914 3.0918C10.1725 1.20378 10.4492 0.259766 10.4492 0.259766C10.4492 0.259766 11.2467 0.259766 12.8418 0.259766C14.4694 0.259766 16.3411 0.259766 18.457 0.259766C20.1172 0.259766 21.7611 0.259766 23.3887 0.259766C25.0163 0.259766 26.3672 0.259766 27.4414 0.259766C27.9948 0.259766 28.4342 0.259766 28.7598 0.259766C29.0853 0.259766 29.248 0.259766 29.248 0.259766C29.248 0.259766 29.1016 0.796875 28.8086 1.87109C28.5156 2.97786 28.1901 4.13346 27.832 5.33789C27.5716 6.31445 27.3275 7.17708 27.0996 7.92578C26.9043 8.70703 26.8066 9.09766 26.8066 9.09766C26.8066 9.09766 26.2533 9.4069 25.1465 10.0254C24.0723 10.6439 22.9167 11.2949 21.6797 11.9785C20.7031 12.5319 19.8242 13.0202 19.043 13.4434C18.2943 13.8991 17.9199 14.127 17.9199 14.127C17.9199 14.127 18.0339 13.6712 18.2617 12.7598C18.5221 11.8809 18.8151 10.8717 19.1406 9.73242C19.5312 8.33268 19.9056 6.99805 20.2637 5.72852C20.6217 4.45898 20.8008 3.82422 20.8008 3.82422C20.8008 3.82422 20.3776 3.82422 19.5312 3.82422C18.7174 3.82422 18.3105 3.82422 18.3105 3.82422C18.0827 3.82422 17.7572 3.9707 17.334 4.26367C16.9108 4.52409 16.6667 4.75195 16.6016 4.94727C16.5039 5.33789 16.3411 5.89128 16.1133 6.60742C15.918 7.35612 15.7064 8.13737 15.4785 8.95117C15.1204 10.1882 14.7949 11.3438 14.502 12.418C14.209 13.4596 14.0625 13.9805 14.0625 13.9805C14.0625 13.9805 14.3392 13.7526 14.8926 13.2969C15.446 12.8411 15.7227 12.6133 15.7227 12.6133ZM34.082 30.5332C34.2448 30.5332 34.4564 30.5332 34.7168 30.5332C34.9772 30.5332 35.1074 30.5332 35.1074 30.5332C35.1074 30.5332 35.2539 30.0449 35.5469 29.0684C35.8073 28.0592 36.1003 26.985 36.4258 25.8457C36.6211 25.097 36.8164 24.3809 37.0117 23.6973C37.207 23.0462 37.3535 22.5417 37.4512 22.1836C37.5488 21.8581 37.3861 21.4674 36.9629 21.0117C36.5397 20.5234 36.1979 20.2793 35.9375 20.2793C35.7422 20.2793 35.5143 20.2793 35.2539 20.2793C34.9935 20.2793 34.8633 20.2793 34.8633 20.2793C34.8633 20.2793 34.7168 20.7839 34.4238 21.793C34.1634 22.7695 33.8704 23.8275 33.5449 24.9668C33.3171 25.748 33.1055 26.4805 32.9102 27.1641C32.7474 27.8151 32.6172 28.3197 32.5195 28.6777C32.4219 28.9707 32.6009 29.3451 33.0566 29.8008C33.4798 30.2891 33.8216 30.5332 34.082 30.5332ZM45.0195 22.2812C45.0195 22.2812 44.8893 22.7858 44.6289 23.7949C44.3359 24.804 44.0104 25.9759 43.6523 27.3105C43.1966 28.9056 42.7572 30.4355 42.334 31.9004C41.9434 33.3652 41.748 34.0977 41.748 34.0977C41.748 34.0977 41.2923 34.0977 40.3809 34.0977C39.4694 34.0977 38.4277 34.0977 37.2559 34.0977C35.8236 34.0651 34.4564 34.0488 33.1543 34.0488C31.8197 34.0488 31.1523 34.0488 31.1523 34.0488C31.1523 34.0488 31.1523 34.0651 31.1523 34.0977C31.1523 34.0977 30.8919 33.9023 30.3711 33.5117C29.8503 33.1536 29.2318 32.7305 28.5156 32.2422C27.7018 31.6237 26.9043 31.054 26.123 30.5332C25.3418 29.9798 24.9512 29.7031 24.9512 29.7031C24.9512 29.7031 25.1139 29.1497 25.4395 28.043C25.7324 26.9362 26.0742 25.6829 26.4648 24.2832C26.9531 22.5254 27.4251 20.8652 27.8809 19.3027C28.304 17.7077 28.5156 16.9102 28.5156 16.9102C28.5156 16.9102 29.1016 16.9102 30.2734 16.9102C31.4128 16.9102 32.7148 16.9102 34.1797 16.9102C36.0026 16.9102 37.7441 16.9102 39.4043 16.9102C41.0319 16.9102 41.8457 16.9102 41.8457 16.9102C41.8457 16.9102 41.9759 17.138 42.2363 17.5938C42.5293 18.082 42.8548 18.6191 43.2129 19.2051C43.6361 19.9212 44.043 20.6211 44.4336 21.3047C44.8242 21.9557 45.0195 22.2812 45.0195 22.2812ZM57.1289 34C57.1289 34 57.3568 33.1699 57.8125 31.5098C58.3008 29.8496 58.7891 28.0918 59.2773 26.2363C59.7005 24.7389 60.0749 23.4043 60.4004 22.2324C60.7259 21.0605 60.8887 20.4746 60.8887 20.4746C60.8887 20.4746 60.2539 20.4746 58.9844 20.4746C57.6823 20.4746 57.0312 20.4746 57.0312 20.4746C57.0312 20.4746 57.2103 19.9049 57.5684 18.7656C57.8939 17.6263 58.0566 17.0566 58.0566 17.0566C58.0566 17.0566 58.6751 17.0566 59.9121 17.0566C61.1816 17.0892 62.6302 17.1055 64.2578 17.1055C66.2109 17.1055 68.099 17.1055 69.9219 17.1055C71.7122 17.1055 72.6074 17.1055 72.6074 17.1055C72.6074 17.1055 72.4447 17.6751 72.1191 18.8145C71.7611 19.9538 71.582 20.5234 71.582 20.5234C71.582 20.5234 71.0286 20.5234 69.9219 20.5234C68.7826 20.5234 68.2129 20.5234 68.2129 20.5234C68.2129 20.5234 67.9688 21.3535 67.4805 23.0137C67.0247 24.6738 66.5365 26.4154 66.0156 28.2383C65.625 29.7682 65.2669 31.1029 64.9414 32.2422C64.6159 33.4141 64.4531 34 64.4531 34C64.4531 34 63.9974 34 63.0859 34C62.1745 34 61.2305 34 60.2539 34C59.4401 34 58.7077 34 58.0566 34C57.4382 34 57.1289 34 57.1289 34ZM81.3477 30.5332C81.5104 30.5332 81.722 30.5332 81.9824 30.5332C82.2428 30.5332 82.373 30.5332 82.373 30.5332C82.373 30.5332 82.5195 30.0449 82.8125 29.0684C83.0729 28.0592 83.3659 26.985 83.6914 25.8457C83.8867 25.097 84.082 24.3809 84.2773 23.6973C84.4727 23.0462 84.6191 22.5417 84.7168 22.1836C84.8145 21.8581 84.6517 21.4674 84.2285 21.0117C83.8053 20.5234 83.4635 20.2793 83.2031 20.2793C83.0078 20.2793 82.7799 20.2793 82.5195 20.2793C82.2591 20.2793 82.1289 20.2793 82.1289 20.2793C82.1289 20.2793 81.9824 20.7839 81.6895 21.793C81.429 22.7695 81.1361 23.8275 80.8105 24.9668C80.5827 25.748 80.3711 26.4805 80.1758 27.1641C80.013 27.8151 79.8828 28.3197 79.7852 28.6777C79.6875 28.9707 79.8665 29.3451 80.3223 29.8008C80.7454 30.2891 81.0872 30.5332 81.3477 30.5332ZM92.2852 22.2812C92.2852 22.2812 92.1549 22.7858 91.8945 23.7949C91.6016 24.804 91.276 25.9759 90.918 27.3105C90.4622 28.9056 90.0228 30.4355 89.5996 31.9004C89.209 33.3652 89.0137 34.0977 89.0137 34.0977C89.0137 34.0977 88.5579 34.0977 87.6465 34.0977C86.735 34.0977 85.6934 34.0977 84.5215 34.0977C83.0892 34.0651 81.722 34.0488 80.4199 34.0488C79.0853 34.0488 78.418 34.0488 78.418 34.0488C78.418 34.0488 78.418 34.0651 78.418 34.0977C78.418 34.0977 78.1576 33.9023 77.6367 33.5117C77.1159 33.1536 76.4974 32.7305 75.7812 32.2422C74.9674 31.6237 74.1699 31.054 73.3887 30.5332C72.6074 29.9798 72.2168 29.7031 72.2168 29.7031C72.2168 29.7031 72.3796 29.1497 72.7051 28.043C72.998 26.9362 73.3398 25.6829 73.7305 24.2832C74.2188 22.5254 74.6908 20.8652 75.1465 19.3027C75.5697 17.7077 75.7812 16.9102 75.7812 16.9102C75.7812 16.9102 76.3672 16.9102 77.5391 16.9102C78.6784 16.9102 79.9805 16.9102 81.4453 16.9102C83.2682 16.9102 85.0098 16.9102 86.6699 16.9102C88.2975 16.9102 89.1113 16.9102 89.1113 16.9102C89.1113 16.9102 89.2415 17.138 89.502 17.5938C89.7949 18.082 90.1204 18.6191 90.4785 19.2051C90.9017 19.9212 91.3086 20.6211 91.6992 21.3047C92.0898 21.9557 92.2852 22.2812 92.2852 22.2812ZM116.455 17.3008C116.455 17.3008 117.008 17.0078 118.115 16.4219C119.189 15.8359 119.727 15.543 119.727 15.543C119.727 15.543 119.889 14.9245 120.215 13.6875C120.573 12.418 120.964 11.0671 121.387 9.63477C121.647 8.69076 121.891 7.79557 122.119 6.94922C122.347 6.10286 122.526 5.48438 122.656 5.09375C122.721 4.86589 122.673 4.55664 122.51 4.16602C122.347 3.80794 122.184 3.62891 122.021 3.62891C122.021 3.62891 121.729 3.62891 121.143 3.62891C120.589 3.62891 120.312 3.62891 120.312 3.62891C120.312 3.62891 120.068 4.47526 119.58 6.16797C119.124 7.86068 118.636 9.63477 118.115 11.4902C117.692 13.0202 117.318 14.3711 116.992 15.543C116.634 16.7148 116.455 17.3008 116.455 17.3008ZM113.77 0.259766C113.77 0.259766 114.258 0.259766 115.234 0.259766C116.243 0.259766 117.48 0.259766 118.945 0.259766C119.727 0.259766 120.54 0.259766 121.387 0.259766C122.233 0.259766 123.079 0.259766 123.926 0.259766C125.911 0.259766 127.669 0.259766 129.199 0.259766C130.729 0.259766 131.494 0.259766 131.494 0.259766C131.494 0.259766 131.234 1.17122 130.713 2.99414C130.192 4.81706 129.655 6.73763 129.102 8.75586C128.646 10.3835 128.239 11.832 127.881 13.1016C127.523 14.3711 127.344 15.0059 127.344 15.0059C127.344 15.0059 126.823 15.2826 125.781 15.8359C124.772 16.3893 123.584 17.0241 122.217 17.7402C120.589 18.6191 119.043 19.4492 117.578 20.2305C116.081 21.0117 115.332 21.4023 115.332 21.4023C115.332 21.4023 115.104 22.1836 114.648 23.7461C114.225 25.3086 113.77 26.9362 113.281 28.6289C112.891 30.0612 112.549 31.3145 112.256 32.3887C111.963 33.4629 111.816 34 111.816 34C111.816 34 111.344 34 110.4 34C109.489 34 108.529 34 107.52 34C106.673 34 105.924 34 105.273 34C104.622 34 104.297 34 104.297 34C104.297 34 104.362 33.8047 104.492 33.4141C104.59 33.0234 104.736 32.4701 104.932 31.7539C105.322 30.4518 105.811 28.7266 106.396 26.5781C107.015 24.3971 107.666 22.0859 108.35 19.6445C108.773 18.0495 109.212 16.4219 109.668 14.7617C110.124 13.1341 110.563 11.5879 110.986 10.123C111.768 7.32357 112.419 4.97982 112.939 3.0918C113.493 1.20378 113.77 0.259766 113.77 0.259766ZM125.342 16.7637C125.342 16.7637 125.846 16.7637 126.855 16.7637C127.865 16.7637 129.102 16.7637 130.566 16.7637C131.348 16.7637 132.178 16.7637 133.057 16.7637C133.903 16.7637 134.749 16.7637 135.596 16.7637C137.614 16.7637 139.388 16.7637 140.918 16.7637C142.448 16.7637 143.213 16.7637 143.213 16.7637C143.213 16.7637 143.066 17.2845 142.773 18.3262C142.48 19.3678 142.171 20.4583 141.846 21.5977C141.585 22.5417 141.357 23.3717 141.162 24.0879C140.934 24.8366 140.82 25.2109 140.82 25.2109C140.82 25.2109 140.365 25.2109 139.453 25.2109C138.542 25.2109 137.565 25.2109 136.523 25.2109C135.71 25.2109 134.977 25.2109 134.326 25.2109C133.675 25.2109 133.35 25.2109 133.35 25.2109C133.35 25.2109 133.447 24.8854 133.643 24.2344C133.805 23.5833 133.984 22.8997 134.18 22.1836C134.342 21.6302 134.489 21.1257 134.619 20.6699C134.749 20.2142 134.814 19.9863 134.814 19.9863C134.587 19.4329 134.277 18.9772 133.887 18.6191C133.529 18.2285 133.089 17.9681 132.568 17.8379C132.568 17.8379 132.373 18.5215 131.982 19.8887C131.592 21.2884 131.136 22.8997 130.615 24.7227C130.225 26.1224 129.834 27.5384 129.443 28.9707C129.053 30.3704 128.727 31.526 128.467 32.4375C128.337 32.9258 128.223 33.3001 128.125 33.5605C128.06 33.8535 128.027 34 128.027 34C128.027 34 127.555 34 126.611 34C125.7 34 124.74 34 123.73 34C122.884 34 122.135 34 121.484 34C120.833 34 120.508 34 120.508 34C120.508 34 120.654 33.5117 120.947 32.5352C121.208 31.5586 121.533 30.3704 121.924 28.9707C122.152 28.222 122.38 27.4245 122.607 26.5781C122.835 25.7318 123.063 24.9017 123.291 24.0879C123.844 22.1673 124.333 20.4583 124.756 18.9609C125.146 17.4961 125.342 16.7637 125.342 16.7637ZM145.068 16.7637C145.068 16.7637 145.54 16.7637 146.484 16.7637C147.396 16.7637 148.356 16.7637 149.365 16.7637C150.212 16.7637 150.944 16.7637 151.562 16.7637C152.214 16.7637 152.539 16.7637 152.539 16.7637C152.539 16.7637 152.409 17.2357 152.148 18.1797C151.855 19.1562 151.514 20.3607 151.123 21.793C150.928 22.5417 150.716 23.3392 150.488 24.1855C150.228 24.9993 149.984 25.8294 149.756 26.6758C149.235 28.5964 148.763 30.2891 148.34 31.7539C147.917 33.2513 147.705 34 147.705 34C147.705 34 147.249 34 146.338 34C145.426 34 144.466 34 143.457 34C142.611 34 141.862 34 141.211 34C140.56 34 140.234 34 140.234 34C140.234 34 140.381 33.5117 140.674 32.5352C140.934 31.5586 141.26 30.3704 141.65 28.9707C141.878 28.222 142.106 27.4245 142.334 26.5781C142.562 25.7318 142.79 24.9017 143.018 24.0879C143.571 22.1673 144.043 20.4583 144.434 18.9609C144.857 17.4961 145.068 16.7637 145.068 16.7637ZM146.68 10.2207C146.68 10.2207 147.135 10.2207 148.047 10.2207C148.958 10.2207 149.919 10.2207 150.928 10.2207C151.774 10.2207 152.523 10.2207 153.174 10.2207C153.792 10.2207 154.102 10.2207 154.102 10.2207C154.102 10.2207 153.923 10.8717 153.564 12.1738C153.206 13.4434 153.027 14.0781 153.027 14.0781C153.027 14.0781 152.572 14.0781 151.66 14.0781C150.749 14.0781 149.788 14.0781 148.779 14.0781C147.933 14.0781 147.184 14.0781 146.533 14.0781C145.882 14.0781 145.557 14.0781 145.557 14.0781C145.557 14.0781 145.752 13.4434 146.143 12.1738C146.501 10.8717 146.68 10.2207 146.68 10.2207ZM162.695 28.0918C162.37 27.9616 161.833 27.7663 161.084 27.5059C160.335 27.2129 159.538 26.9036 158.691 26.5781C157.389 26.1224 156.169 25.6667 155.029 25.2109C153.89 24.7878 153.32 24.5762 153.32 24.5762C153.32 24.5762 153.467 24.0879 153.76 23.1113C154.053 22.1022 154.378 21.0605 154.736 19.9863C154.997 19.0749 155.225 18.2773 155.42 17.5938C155.648 16.9102 155.762 16.5684 155.762 16.5684C155.762 16.5684 155.924 16.5684 156.25 16.5684C156.576 16.5684 157.015 16.5684 157.568 16.5684C158.577 16.5684 159.896 16.5684 161.523 16.5684C163.151 16.5684 164.779 16.5684 166.406 16.5684C168.457 16.5684 170.28 16.5684 171.875 16.5684C173.47 16.5684 174.268 16.5684 174.268 16.5684C174.268 16.5684 174.202 16.8288 174.072 17.3496C173.91 17.8379 173.73 18.4238 173.535 19.1074C173.307 19.9212 173.096 20.6862 172.9 21.4023C172.705 22.151 172.607 22.5254 172.607 22.5254C172.607 22.5254 172.282 22.5091 171.631 22.4766C170.98 22.4115 170.231 22.3626 169.385 22.3301C168.376 22.2324 167.415 22.151 166.504 22.0859C165.56 22.0534 165.088 22.0371 165.088 22.0371C165.088 22.0371 165.137 21.8743 165.234 21.5488C165.332 21.2559 165.413 21.028 165.479 20.8652C165.511 20.735 165.479 20.5723 165.381 20.377C165.316 20.1816 165.234 20.084 165.137 20.084C164.941 20.084 164.6 20.084 164.111 20.084C163.623 20.084 163.184 20.084 162.793 20.084C162.598 20.084 162.402 20.1816 162.207 20.377C162.012 20.5723 161.898 20.7188 161.865 20.8164C161.8 21.0768 161.686 21.5326 161.523 22.1836C161.361 22.8672 161.279 23.209 161.279 23.209C161.279 23.209 161.865 23.4857 163.037 24.0391C164.209 24.625 165.43 25.2272 166.699 25.8457C167.773 26.3665 168.701 26.8223 169.482 27.2129C170.296 27.6361 170.703 27.8477 170.703 27.8477C170.703 27.8477 170.589 28.222 170.361 28.9707C170.133 29.7194 169.873 30.5169 169.58 31.3633C169.385 32.0469 169.206 32.6491 169.043 33.1699C168.88 33.6908 168.799 33.9512 168.799 33.9512C168.799 33.9512 168.278 33.9512 167.236 33.9512C166.227 33.9512 164.974 33.9674 163.477 34C162.663 34 161.816 34 160.938 34C160.059 34 159.196 34 158.35 34C156.299 34 154.492 34 152.93 34C151.367 34 150.586 34 150.586 34C150.586 34 150.7 33.6582 150.928 32.9746C151.123 32.2585 151.318 31.526 151.514 30.7773C151.709 30.1263 151.872 29.5566 152.002 29.0684C152.132 28.5801 152.197 28.3359 152.197 28.3359C152.197 28.3359 152.653 28.3685 153.564 28.4336C154.443 28.4987 155.371 28.5638 156.348 28.6289C157.129 28.694 157.829 28.7428 158.447 28.7754C159.066 28.8079 159.375 28.8242 159.375 28.8242C159.375 28.8242 159.359 28.9544 159.326 29.2148C159.294 29.4753 159.261 29.6868 159.229 29.8496C159.229 29.9473 159.326 30.0775 159.521 30.2402C159.684 30.403 159.831 30.4844 159.961 30.4844C160.156 30.4844 160.482 30.4844 160.938 30.4844C161.361 30.4844 161.751 30.4844 162.109 30.4844C162.305 30.4844 162.5 30.3867 162.695 30.1914C162.923 29.9961 163.053 29.8333 163.086 29.7031C163.118 29.638 163.167 29.5241 163.232 29.3613C163.298 29.2311 163.346 29.1009 163.379 28.9707C163.444 28.8405 163.379 28.6777 163.184 28.4824C163.021 28.2871 162.858 28.1569 162.695 28.0918ZM181.641 30.5332C181.803 30.5332 182.015 30.5332 182.275 30.5332C182.536 30.5332 182.666 30.5332 182.666 30.5332C182.666 30.5332 182.812 30.0449 183.105 29.0684C183.366 28.0592 183.659 26.985 183.984 25.8457C184.18 25.097 184.375 24.3809 184.57 23.6973C184.766 23.0462 184.912 22.5417 185.01 22.1836C185.107 21.8581 184.945 21.4674 184.521 21.0117C184.098 20.5234 183.757 20.2793 183.496 20.2793C183.301 20.2793 183.073 20.2793 182.812 20.2793C182.552 20.2793 182.422 20.2793 182.422 20.2793C182.422 20.2793 182.275 20.7839 181.982 21.793C181.722 22.7695 181.429 23.8275 181.104 24.9668C180.876 25.748 180.664 26.4805 180.469 27.1641C180.306 27.8151 180.176 28.3197 180.078 28.6777C179.98 28.9707 180.16 29.3451 180.615 29.8008C181.038 30.2891 181.38 30.5332 181.641 30.5332ZM192.578 22.2812C192.578 22.2812 192.448 22.7858 192.188 23.7949C191.895 24.804 191.569 25.9759 191.211 27.3105C190.755 28.9056 190.316 30.4355 189.893 31.9004C189.502 33.3652 189.307 34.0977 189.307 34.0977C189.307 34.0977 188.851 34.0977 187.939 34.0977C187.028 34.0977 185.986 34.0977 184.814 34.0977C183.382 34.0651 182.015 34.0488 180.713 34.0488C179.378 34.0488 178.711 34.0488 178.711 34.0488C178.711 34.0488 178.711 34.0651 178.711 34.0977C178.711 34.0977 178.451 33.9023 177.93 33.5117C177.409 33.1536 176.79 32.7305 176.074 32.2422C175.26 31.6237 174.463 31.054 173.682 30.5332C172.9 29.9798 172.51 29.7031 172.51 29.7031C172.51 29.7031 172.673 29.1497 172.998 28.043C173.291 26.9362 173.633 25.6829 174.023 24.2832C174.512 22.5254 174.984 20.8652 175.439 19.3027C175.863 17.7077 176.074 16.9102 176.074 16.9102C176.074 16.9102 176.66 16.9102 177.832 16.9102C178.971 16.9102 180.273 16.9102 181.738 16.9102C183.561 16.9102 185.303 16.9102 186.963 16.9102C188.59 16.9102 189.404 16.9102 189.404 16.9102C189.404 16.9102 189.535 17.138 189.795 17.5938C190.088 18.082 190.413 18.6191 190.771 19.2051C191.195 19.9212 191.602 20.6211 191.992 21.3047C192.383 21.9557 192.578 22.2812 192.578 22.2812ZM205.322 17.1055C205.322 17.1055 205.322 17.1217 205.322 17.1543C205.322 17.1543 205.794 17.1543 206.738 17.1543C207.65 17.1217 208.105 17.1055 208.105 17.1055C208.105 17.1055 208.464 17.4635 209.18 18.1797C209.896 18.8633 210.645 19.5794 211.426 20.3281C212.077 20.9466 212.646 21.5 213.135 21.9883C213.623 22.444 213.867 22.6719 213.867 22.6719C213.867 22.6719 213.672 23.3717 213.281 24.7715C212.891 26.1712 212.484 27.6523 212.061 29.2148C211.702 30.4518 211.393 31.5586 211.133 32.5352C210.84 33.5117 210.693 34 210.693 34C210.693 34 210.254 34 209.375 34C208.464 34 207.503 34 206.494 34C205.68 34 204.964 34 204.346 34C203.695 34 203.369 34 203.369 34C203.369 34 203.613 33.1211 204.102 31.3633C204.59 29.638 205.111 27.8151 205.664 25.8945C206.12 24.2995 206.51 22.8997 206.836 21.6953C207.194 20.4909 207.373 19.8887 207.373 19.8887C207.34 19.2702 207.145 18.7331 206.787 18.2773C206.429 17.7891 205.941 17.431 205.322 17.2031C205.322 17.2031 205.273 17.3496 205.176 17.6426C205.111 17.9355 205.013 18.3262 204.883 18.8145C204.59 19.7585 204.248 20.9629 203.857 22.4277C203.434 23.8926 203.011 25.3737 202.588 26.8711C202.067 28.7266 201.611 30.3867 201.221 31.8516C200.798 33.2839 200.586 34 200.586 34C200.586 34 200.277 34 199.658 34C199.04 34 198.324 34 197.51 34C196.501 34 195.54 34 194.629 34C193.717 34 193.262 34 193.262 34C193.262 34 193.408 33.528 193.701 32.584C193.962 31.6074 194.287 30.4355 194.678 29.0684C194.873 28.3197 195.085 27.5384 195.312 26.7246C195.54 25.9108 195.768 25.097 195.996 24.2832C196.517 22.3952 196.989 20.735 197.412 19.3027C197.803 17.8379 197.998 17.1055 197.998 17.1055C197.998 17.1055 198.454 17.1055 199.365 17.1055C200.277 17.1055 201.221 17.1055 202.197 17.1055C203.011 17.1055 203.743 17.1055 204.395 17.1055C205.013 17.1055 205.322 17.1055 205.322 17.1055Z" fill="white"/>
</svg>
