<svg width="128" height="53" viewBox="0 0 128 53" fill="none" xmlns="http://www.w3.org/2000/svg">
<path d="M23.8896 30.8701C23.8896 30.8701 23.2881 30.043 22.085 28.3887C20.8818 26.7845 20.2803 25.9824 20.2803 25.9824C20.2803 25.9824 20.0798 26.1077 19.6787 26.3584C19.2777 26.6592 19.0771 26.8096 19.0771 26.8096C19.0771 26.8096 18.7513 27.9876 18.0996 30.3438C17.4479 32.6999 16.7712 35.1813 16.0693 37.7881C15.4678 39.9437 14.9163 41.8486 14.415 43.5029C13.9639 45.1572 13.7383 45.9844 13.7383 45.9844C13.7383 45.9844 14.3649 45.9844 15.6182 45.9844C16.8714 45.9844 17.498 45.9844 17.498 45.9844C17.8991 45.9844 18.4505 45.6836 19.1523 45.082C19.8542 44.5306 20.2552 44.0544 20.3555 43.6533C20.5059 43.152 20.7314 42.375 21.0322 41.3223C21.333 40.2695 21.6338 39.1667 21.9346 38.0137C22.4359 36.2591 22.887 34.6299 23.2881 33.126C23.6891 31.6221 23.8896 30.8701 23.8896 30.8701ZM23.2129 19.0645C23.2129 19.0645 23.6891 19.7161 24.6416 21.0195C25.5941 22.373 26.722 23.877 28.0254 25.5312C29.5293 27.6367 30.9831 29.6419 32.3867 31.5469C33.7904 33.4017 34.4922 34.3291 34.4922 34.3291C34.4922 34.3291 34.1914 35.432 33.5898 37.6377C32.9883 39.7933 32.3366 42.0742 31.6348 44.4805C31.0833 46.4355 30.6071 48.1901 30.2061 49.7441C29.7549 51.248 29.5293 52 29.5293 52C29.5293 52 29.2786 52 28.7773 52C28.276 52 27.5993 52 26.7471 52C25.0928 52 23.0124 52 20.5059 52C17.9993 52 15.4678 52 12.9111 52C9.65267 52 6.77018 52 4.26367 52C1.75716 52 0.503906 52 0.503906 52C0.503906 52 0.604167 51.6992 0.804688 51.0977C0.955078 50.4961 1.18066 49.6439 1.48145 48.541C2.08301 46.5358 2.83496 43.8789 3.7373 40.5703C4.68978 37.2116 5.69238 33.6523 6.74512 29.8926C7.39681 27.4362 8.07357 24.9297 8.77539 22.373C9.47721 19.8665 10.154 17.4854 10.8057 15.2295C12.0088 10.9183 13.0114 7.30892 13.8135 4.40137C14.6657 1.49382 15.0918 0.0400391 15.0918 0.0400391C15.0918 0.0400391 16.32 0.0400391 18.7764 0.0400391C21.2829 0.0400391 24.1654 0.0400391 27.4238 0.0400391C29.9805 0.0400391 32.512 0.0400391 35.0186 0.0400391C37.5251 0.0400391 39.6055 0.0400391 41.2598 0.0400391C42.112 0.0400391 42.7887 0.0400391 43.29 0.0400391C43.7913 0.0400391 44.042 0.0400391 44.042 0.0400391C44.042 0.0400391 43.8164 0.867188 43.3652 2.52148C42.9141 4.22591 42.4128 6.00553 41.8613 7.86035C41.4603 9.36426 41.0843 10.6927 40.7334 11.8457C40.4326 13.0488 40.2822 13.6504 40.2822 13.6504C40.2822 13.6504 39.43 14.1266 37.7256 15.0791C36.0713 16.0316 34.2917 17.0342 32.3867 18.0869C30.8828 18.9391 29.5293 19.6911 28.3262 20.3428C27.1732 21.0446 26.5967 21.3955 26.5967 21.3955C26.5967 21.3955 26.7721 20.6937 27.123 19.29C27.5241 17.9365 27.9753 16.3825 28.4766 14.6279C29.0781 12.4723 29.6546 10.417 30.2061 8.46191C30.7575 6.50684 31.0332 5.5293 31.0332 5.5293C31.0332 5.5293 30.3815 5.5293 29.0781 5.5293C27.8249 5.5293 27.1982 5.5293 27.1982 5.5293C26.8473 5.5293 26.346 5.75488 25.6943 6.20605C25.0426 6.6071 24.6667 6.95801 24.5664 7.25879C24.416 7.86035 24.1654 8.71257 23.8145 9.81543C23.5137 10.9684 23.1878 12.1715 22.8369 13.4248C22.2855 15.3298 21.7842 17.1094 21.333 18.7637C20.8818 20.3678 20.6562 21.1699 20.6562 21.1699C20.6562 21.1699 21.0824 20.819 21.9346 20.1172C22.7868 19.4154 23.2129 19.0645 23.2129 19.0645ZM51.4863 46.6611C51.737 46.6611 52.0628 46.6611 52.4639 46.6611C52.8649 46.6611 53.0654 46.6611 53.0654 46.6611C53.0654 46.6611 53.291 45.9092 53.7422 44.4053C54.1432 42.8512 54.5944 41.1969 55.0957 39.4424C55.3965 38.2894 55.6973 37.1865 55.998 36.1338C56.2988 35.1312 56.5244 34.3542 56.6748 33.8027C56.8252 33.3014 56.5745 32.6999 55.9229 31.998C55.2712 31.2461 54.7448 30.8701 54.3438 30.8701C54.043 30.8701 53.6921 30.8701 53.291 30.8701C52.89 30.8701 52.6895 30.8701 52.6895 30.8701C52.6895 30.8701 52.4639 31.6471 52.0127 33.2012C51.6117 34.7051 51.1605 36.3343 50.6592 38.0889C50.3083 39.292 49.9824 40.4199 49.6816 41.4727C49.431 42.4753 49.2305 43.2523 49.0801 43.8037C48.9297 44.2549 49.2054 44.8314 49.9072 45.5332C50.5589 46.2852 51.0853 46.6611 51.4863 46.6611ZM68.3301 33.9531C68.3301 33.9531 68.1296 34.7301 67.7285 36.2842C67.2773 37.8382 66.776 39.6429 66.2246 41.6982C65.5228 44.1546 64.846 46.5107 64.1943 48.7666C63.5928 51.0225 63.292 52.1504 63.292 52.1504C63.292 52.1504 62.5902 52.1504 61.1865 52.1504C59.7829 52.1504 58.1787 52.1504 56.374 52.1504C54.1683 52.1003 52.0628 52.0752 50.0576 52.0752C48.0023 52.0752 46.9746 52.0752 46.9746 52.0752C46.9746 52.0752 46.9746 52.1003 46.9746 52.1504C46.9746 52.1504 46.5736 51.8496 45.7715 51.248C44.9694 50.6966 44.0169 50.0449 42.9141 49.293C41.6608 48.3405 40.4326 47.4632 39.2295 46.6611C38.0264 45.8089 37.4248 45.3828 37.4248 45.3828C37.4248 45.3828 37.6755 44.5306 38.1768 42.8262C38.6279 41.1217 39.1543 39.1917 39.7559 37.0361C40.5078 34.3291 41.2347 31.7725 41.9365 29.3662C42.5882 26.9098 42.9141 25.6816 42.9141 25.6816C42.9141 25.6816 43.8164 25.6816 45.6211 25.6816C47.3757 25.6816 49.3809 25.6816 51.6367 25.6816C54.444 25.6816 57.126 25.6816 59.6826 25.6816C62.1891 25.6816 63.4424 25.6816 63.4424 25.6816C63.4424 25.6816 63.6429 26.0326 64.0439 26.7344C64.4951 27.4863 64.9964 28.3135 65.5479 29.2158C66.1995 30.3187 66.8262 31.3965 67.4277 32.4492C68.0293 33.4518 68.3301 33.9531 68.3301 33.9531ZM81.1133 35.5322C81.1133 35.5322 81.6898 35.5322 82.8428 35.5322C83.9456 35.5322 85.1237 35.5322 86.377 35.5322C87.3796 35.5322 88.2819 35.5322 89.084 35.5322C89.8359 35.5322 90.2119 35.5322 90.2119 35.5322C90.2119 35.5322 90.3874 34.9808 90.7383 33.8779C91.0391 32.7751 91.1895 32.2236 91.1895 32.2236C91.1895 32.2236 90.5879 32.2236 89.3848 32.2236C88.1315 32.2236 86.8281 32.2236 85.4746 32.2236C84.3717 32.2236 83.3942 32.2236 82.542 32.2236C81.6898 32.2236 81.2637 32.2236 81.2637 32.2236C81.2637 32.2236 81.5394 31.8226 82.0908 31.0205C82.5921 30.2184 83.1436 29.3662 83.7451 28.4639C84.1963 27.7119 84.5973 27.0602 84.9482 26.5088C85.2992 25.9072 85.4746 25.6064 85.4746 25.6064C85.4746 25.6064 86.3268 25.6064 88.0312 25.6064C89.6855 25.6064 91.5905 25.6064 93.7461 25.6064C96.403 25.5563 98.9346 25.5312 101.341 25.5312C103.697 25.5312 104.875 25.5312 104.875 25.5312C104.875 25.5312 104.674 26.2832 104.273 27.7871C103.822 29.291 103.296 31.1208 102.694 33.2764C102.343 34.4294 101.993 35.6576 101.642 36.9609C101.291 38.2142 100.94 39.4674 100.589 40.7207C99.7367 43.6283 98.9847 46.235 98.333 48.541C97.7314 50.7969 97.4307 51.9248 97.4307 51.9248C97.4307 51.9248 96.6035 51.9248 94.9492 51.9248C93.3451 51.9248 91.3398 51.9248 88.9336 51.9248C87.6803 51.9248 86.3519 51.9248 84.9482 51.9248C83.4945 51.9248 82.0908 51.9499 80.7373 52C77.4788 52 74.5964 52 72.0898 52C69.5833 52 68.3301 52 68.3301 52C68.3301 52 68.4805 51.4486 68.7812 50.3457C69.082 49.1927 69.3828 48.0146 69.6836 46.8115C69.9844 45.8089 70.235 44.9066 70.4355 44.1045C70.6361 43.3525 70.7363 42.9766 70.7363 42.9766C70.7363 42.9766 71.363 42.5254 72.6162 41.623C73.9196 40.7207 75.2731 39.7432 76.6768 38.6904C77.8298 37.8883 78.8574 37.1615 79.7598 36.5098C80.6621 35.8581 81.1133 35.5322 81.1133 35.5322ZM87.4297 45.082C87.5299 44.681 87.7305 44.0042 88.0312 43.0518C88.2819 42.0492 88.4072 41.5479 88.4072 41.5479C88.4072 41.5479 87.931 41.5479 86.9785 41.5479C86.026 41.5479 85.2741 41.5479 84.7227 41.5479C84.3216 41.4977 83.695 41.8988 82.8428 42.751C81.9906 43.5531 81.5143 44.1546 81.4141 44.5557C81.3138 44.8564 81.2135 45.2575 81.1133 45.7588C80.9629 46.2601 80.8877 46.5107 80.8877 46.5107C80.8877 46.5107 81.3639 46.4857 82.3164 46.4355C83.2188 46.4355 83.9206 46.4355 84.4219 46.4355C84.873 46.4355 85.4746 46.2601 86.2266 45.9092C86.9785 45.6084 87.3796 45.3327 87.4297 45.082ZM113.898 52C113.898 52 113.146 52.0251 111.643 52.0752C110.089 52.0752 108.484 52.0752 106.83 52.0752C105.426 52.0752 104.198 52.1003 103.146 52.1504C102.043 52.1504 101.491 52.1504 101.491 52.1504C101.491 52.1504 101.892 50.6966 102.694 47.7891C103.496 44.8815 104.474 41.2972 105.627 37.0361C106.229 34.7301 106.88 32.3239 107.582 29.8174C108.234 27.3109 108.885 24.8294 109.537 22.373C110.59 18.6133 111.542 15.0791 112.395 11.7705C113.297 8.46191 114.024 5.77995 114.575 3.72461C114.876 2.67188 115.102 1.84473 115.252 1.24316C115.452 0.591471 115.553 0.265625 115.553 0.265625C115.553 0.265625 116.079 0.265625 117.132 0.265625C118.185 0.265625 119.388 0.265625 120.741 0.265625C122.446 0.265625 124.05 0.24056 125.554 0.19043C127.058 0.19043 127.81 0.19043 127.81 0.19043C127.81 0.19043 127.684 0.641602 127.434 1.54395C127.183 2.44629 126.857 3.67448 126.456 5.22852C125.654 8.08594 124.651 11.7956 123.448 16.3574C122.245 20.8691 121.042 25.4059 119.839 29.9678C118.836 33.7275 117.884 37.2617 116.981 40.5703C116.079 43.8789 115.352 46.5609 114.801 48.6162C114.55 49.6689 114.325 50.4961 114.124 51.0977C113.974 51.6992 113.898 52 113.898 52Z" fill="white"/>
</svg>
