<svg width="111" height="35" viewBox="0 0 111 35" fill="none" xmlns="http://www.w3.org/2000/svg">
<path d="M13.1348 17.3008C13.1348 17.3008 13.6882 17.0078 14.7949 16.4219C15.8691 15.8359 16.4062 15.543 16.4062 15.543C16.4062 15.543 16.569 14.9245 16.8945 13.6875C17.2526 12.418 17.6432 11.0671 18.0664 9.63477C18.3268 8.69076 18.571 7.79557 18.7988 6.94922C19.0267 6.10286 19.2057 5.48438 19.3359 5.09375C19.401 4.86589 19.3522 4.55664 19.1895 4.16602C19.0267 3.80794 18.8639 3.62891 18.7012 3.62891C18.7012 3.62891 18.4082 3.62891 17.8223 3.62891C17.2689 3.62891 16.9922 3.62891 16.9922 3.62891C16.9922 3.62891 16.748 4.47526 16.2598 6.16797C15.804 7.86068 15.3158 9.63477 14.7949 11.4902C14.3717 13.0202 13.9974 14.3711 13.6719 15.543C13.3138 16.7148 13.1348 17.3008 13.1348 17.3008ZM10.4492 0.259766C10.4492 0.259766 10.9375 0.259766 11.9141 0.259766C12.9232 0.259766 14.1602 0.259766 15.625 0.259766C16.4062 0.259766 17.2201 0.259766 18.0664 0.259766C18.9128 0.259766 19.7591 0.259766 20.6055 0.259766C22.5911 0.259766 24.349 0.259766 25.8789 0.259766C27.4089 0.259766 28.1738 0.259766 28.1738 0.259766C28.1738 0.259766 27.9134 1.17122 27.3926 2.99414C26.8717 4.81706 26.3346 6.73763 25.7812 8.75586C25.3255 10.3835 24.9186 11.832 24.5605 13.1016C24.2025 14.3711 24.0234 15.0059 24.0234 15.0059C24.0234 15.0059 23.5026 15.2826 22.4609 15.8359C21.4518 16.3893 20.2637 17.0241 18.8965 17.7402C17.2689 18.6191 15.7227 19.4492 14.2578 20.2305C12.7604 21.0117 12.0117 21.4023 12.0117 21.4023C12.0117 21.4023 11.7839 22.1836 11.3281 23.7461C10.9049 25.3086 10.4492 26.9362 9.96094 28.6289C9.57031 30.0612 9.22852 31.3145 8.93555 32.3887C8.64258 33.4629 8.49609 34 8.49609 34C8.49609 34 8.02409 34 7.08008 34C6.16862 34 5.20833 34 4.19922 34C3.35286 34 2.60417 34 1.95312 34C1.30208 34 0.976562 34 0.976562 34C0.976562 34 1.04167 33.8047 1.17188 33.4141C1.26953 33.0234 1.41602 32.4701 1.61133 31.7539C2.00195 30.4518 2.49023 28.7266 3.07617 26.5781C3.69466 24.3971 4.3457 22.0859 5.0293 19.6445C5.45247 18.0495 5.89193 16.4219 6.34766 14.7617C6.80339 13.1341 7.24284 11.5879 7.66602 10.123C8.44727 7.32357 9.09831 4.97982 9.61914 3.0918C10.1725 1.20378 10.4492 0.259766 10.4492 0.259766ZM22.0215 16.7637C22.0215 16.7637 22.526 16.7637 23.5352 16.7637C24.5443 16.7637 25.7812 16.7637 27.2461 16.7637C28.0273 16.7637 28.8574 16.7637 29.7363 16.7637C30.5827 16.7637 31.429 16.7637 32.2754 16.7637C34.2936 16.7637 36.0677 16.7637 37.5977 16.7637C39.1276 16.7637 39.8926 16.7637 39.8926 16.7637C39.8926 16.7637 39.7461 17.2845 39.4531 18.3262C39.1602 19.3678 38.8509 20.4583 38.5254 21.5977C38.265 22.5417 38.0371 23.3717 37.8418 24.0879C37.6139 24.8366 37.5 25.2109 37.5 25.2109C37.5 25.2109 37.0443 25.2109 36.1328 25.2109C35.2214 25.2109 34.2448 25.2109 33.2031 25.2109C32.3893 25.2109 31.6569 25.2109 31.0059 25.2109C30.3548 25.2109 30.0293 25.2109 30.0293 25.2109C30.0293 25.2109 30.127 24.8854 30.3223 24.2344C30.485 23.5833 30.6641 22.8997 30.8594 22.1836C31.0221 21.6302 31.1686 21.1257 31.2988 20.6699C31.429 20.2142 31.4941 19.9863 31.4941 19.9863C31.2663 19.4329 30.957 18.9772 30.5664 18.6191C30.2083 18.2285 29.7689 17.9681 29.248 17.8379C29.248 17.8379 29.0527 18.5215 28.6621 19.8887C28.2715 21.2884 27.8158 22.8997 27.2949 24.7227C26.9043 26.1224 26.5137 27.5384 26.123 28.9707C25.7324 30.3704 25.4069 31.526 25.1465 32.4375C25.0163 32.9258 24.9023 33.3001 24.8047 33.5605C24.7396 33.8535 24.707 34 24.707 34C24.707 34 24.235 34 23.291 34C22.3796 34 21.4193 34 20.4102 34C19.5638 34 18.8151 34 18.1641 34C17.513 34 17.1875 34 17.1875 34C17.1875 34 17.334 33.5117 17.627 32.5352C17.8874 31.5586 18.2129 30.3704 18.6035 28.9707C18.8314 28.222 19.0592 27.4245 19.2871 26.5781C19.515 25.7318 19.7428 24.9017 19.9707 24.0879C20.5241 22.1673 21.0124 20.4583 21.4355 18.9609C21.8262 17.4961 22.0215 16.7637 22.0215 16.7637ZM41.748 16.7637C41.748 16.7637 42.2201 16.7637 43.1641 16.7637C44.0755 16.7637 45.0358 16.7637 46.0449 16.7637C46.8913 16.7637 47.6237 16.7637 48.2422 16.7637C48.8932 16.7637 49.2188 16.7637 49.2188 16.7637C49.2188 16.7637 49.0885 17.2357 48.8281 18.1797C48.5352 19.1562 48.1934 20.3607 47.8027 21.793C47.6074 22.5417 47.3958 23.3392 47.168 24.1855C46.9076 24.9993 46.6634 25.8294 46.4355 26.6758C45.9147 28.5964 45.4427 30.2891 45.0195 31.7539C44.5964 33.2513 44.3848 34 44.3848 34C44.3848 34 43.929 34 43.0176 34C42.1061 34 41.1458 34 40.1367 34C39.2904 34 38.5417 34 37.8906 34C37.2396 34 36.9141 34 36.9141 34C36.9141 34 37.0605 33.5117 37.3535 32.5352C37.6139 31.5586 37.9395 30.3704 38.3301 28.9707C38.5579 28.222 38.7858 27.4245 39.0137 26.5781C39.2415 25.7318 39.4694 24.9017 39.6973 24.0879C40.2507 22.1673 40.7227 20.4583 41.1133 18.9609C41.5365 17.4961 41.748 16.7637 41.748 16.7637ZM43.3594 10.2207C43.3594 10.2207 43.8151 10.2207 44.7266 10.2207C45.638 10.2207 46.5983 10.2207 47.6074 10.2207C48.4538 10.2207 49.2025 10.2207 49.8535 10.2207C50.472 10.2207 50.7812 10.2207 50.7812 10.2207C50.7812 10.2207 50.6022 10.8717 50.2441 12.1738C49.8861 13.4434 49.707 14.0781 49.707 14.0781C49.707 14.0781 49.2513 14.0781 48.3398 14.0781C47.4284 14.0781 46.4681 14.0781 45.459 14.0781C44.6126 14.0781 43.8639 14.0781 43.2129 14.0781C42.5618 14.0781 42.2363 14.0781 42.2363 14.0781C42.2363 14.0781 42.4316 13.4434 42.8223 12.1738C43.1803 10.8717 43.3594 10.2207 43.3594 10.2207ZM59.375 28.0918C59.0495 27.9616 58.5124 27.7663 57.7637 27.5059C57.015 27.2129 56.2174 26.9036 55.3711 26.5781C54.069 26.1224 52.8483 25.6667 51.709 25.2109C50.5697 24.7878 50 24.5762 50 24.5762C50 24.5762 50.1465 24.0879 50.4395 23.1113C50.7324 22.1022 51.0579 21.0605 51.416 19.9863C51.6764 19.0749 51.9043 18.2773 52.0996 17.5938C52.3275 16.9102 52.4414 16.5684 52.4414 16.5684C52.4414 16.5684 52.6042 16.5684 52.9297 16.5684C53.2552 16.5684 53.6947 16.5684 54.248 16.5684C55.2572 16.5684 56.5755 16.5684 58.2031 16.5684C59.8307 16.5684 61.4583 16.5684 63.0859 16.5684C65.1367 16.5684 66.9596 16.5684 68.5547 16.5684C70.1497 16.5684 70.9473 16.5684 70.9473 16.5684C70.9473 16.5684 70.8822 16.8288 70.752 17.3496C70.5892 17.8379 70.4102 18.4238 70.2148 19.1074C69.987 19.9212 69.7754 20.6862 69.5801 21.4023C69.3848 22.151 69.2871 22.5254 69.2871 22.5254C69.2871 22.5254 68.9616 22.5091 68.3105 22.4766C67.6595 22.4115 66.9108 22.3626 66.0645 22.3301C65.0553 22.2324 64.0951 22.151 63.1836 22.0859C62.2396 22.0534 61.7676 22.0371 61.7676 22.0371C61.7676 22.0371 61.8164 21.8743 61.9141 21.5488C62.0117 21.2559 62.0931 21.028 62.1582 20.8652C62.1908 20.735 62.1582 20.5723 62.0605 20.377C61.9954 20.1816 61.9141 20.084 61.8164 20.084C61.6211 20.084 61.2793 20.084 60.791 20.084C60.3027 20.084 59.8633 20.084 59.4727 20.084C59.2773 20.084 59.082 20.1816 58.8867 20.377C58.6914 20.5723 58.5775 20.7188 58.5449 20.8164C58.4798 21.0768 58.3659 21.5326 58.2031 22.1836C58.0404 22.8672 57.959 23.209 57.959 23.209C57.959 23.209 58.5449 23.4857 59.7168 24.0391C60.8887 24.625 62.1094 25.2272 63.3789 25.8457C64.4531 26.3665 65.3809 26.8223 66.1621 27.2129C66.9759 27.6361 67.3828 27.8477 67.3828 27.8477C67.3828 27.8477 67.2689 28.222 67.041 28.9707C66.8132 29.7194 66.5527 30.5169 66.2598 31.3633C66.0645 32.0469 65.8854 32.6491 65.7227 33.1699C65.5599 33.6908 65.4785 33.9512 65.4785 33.9512C65.4785 33.9512 64.9577 33.9512 63.916 33.9512C62.9069 33.9512 61.6536 33.9674 60.1562 34C59.3424 34 58.4961 34 57.6172 34C56.7383 34 55.8757 34 55.0293 34C52.9785 34 51.1719 34 49.6094 34C48.0469 34 47.2656 34 47.2656 34C47.2656 34 47.3796 33.6582 47.6074 32.9746C47.8027 32.2585 47.998 31.526 48.1934 30.7773C48.3887 30.1263 48.5514 29.5566 48.6816 29.0684C48.8118 28.5801 48.877 28.3359 48.877 28.3359C48.877 28.3359 49.3327 28.3685 50.2441 28.4336C51.123 28.4987 52.0508 28.5638 53.0273 28.6289C53.8086 28.694 54.5085 28.7428 55.127 28.7754C55.7454 28.8079 56.0547 28.8242 56.0547 28.8242C56.0547 28.8242 56.0384 28.9544 56.0059 29.2148C55.9733 29.4753 55.9408 29.6868 55.9082 29.8496C55.9082 29.9473 56.0059 30.0775 56.2012 30.2402C56.3639 30.403 56.5104 30.4844 56.6406 30.4844C56.8359 30.4844 57.1615 30.4844 57.6172 30.4844C58.0404 30.4844 58.431 30.4844 58.7891 30.4844C58.9844 30.4844 59.1797 30.3867 59.375 30.1914C59.6029 29.9961 59.7331 29.8333 59.7656 29.7031C59.7982 29.638 59.847 29.5241 59.9121 29.3613C59.9772 29.2311 60.026 29.1009 60.0586 28.9707C60.1237 28.8405 60.0586 28.6777 59.8633 28.4824C59.7005 28.2871 59.5378 28.1569 59.375 28.0918ZM78.3203 30.5332C78.4831 30.5332 78.6947 30.5332 78.9551 30.5332C79.2155 30.5332 79.3457 30.5332 79.3457 30.5332C79.3457 30.5332 79.4922 30.0449 79.7852 29.0684C80.0456 28.0592 80.3385 26.985 80.6641 25.8457C80.8594 25.097 81.0547 24.3809 81.25 23.6973C81.4453 23.0462 81.5918 22.5417 81.6895 22.1836C81.7871 21.8581 81.6243 21.4674 81.2012 21.0117C80.778 20.5234 80.4362 20.2793 80.1758 20.2793C79.9805 20.2793 79.7526 20.2793 79.4922 20.2793C79.2318 20.2793 79.1016 20.2793 79.1016 20.2793C79.1016 20.2793 78.9551 20.7839 78.6621 21.793C78.4017 22.7695 78.1087 23.8275 77.7832 24.9668C77.5553 25.748 77.3438 26.4805 77.1484 27.1641C76.9857 27.8151 76.8555 28.3197 76.7578 28.6777C76.6602 28.9707 76.8392 29.3451 77.2949 29.8008C77.7181 30.2891 78.0599 30.5332 78.3203 30.5332ZM89.2578 22.2812C89.2578 22.2812 89.1276 22.7858 88.8672 23.7949C88.5742 24.804 88.2487 25.9759 87.8906 27.3105C87.4349 28.9056 86.9954 30.4355 86.5723 31.9004C86.1816 33.3652 85.9863 34.0977 85.9863 34.0977C85.9863 34.0977 85.5306 34.0977 84.6191 34.0977C83.7077 34.0977 82.666 34.0977 81.4941 34.0977C80.0618 34.0651 78.6947 34.0488 77.3926 34.0488C76.0579 34.0488 75.3906 34.0488 75.3906 34.0488C75.3906 34.0488 75.3906 34.0651 75.3906 34.0977C75.3906 34.0977 75.1302 33.9023 74.6094 33.5117C74.0885 33.1536 73.4701 32.7305 72.7539 32.2422C71.9401 31.6237 71.1426 31.054 70.3613 30.5332C69.5801 29.9798 69.1895 29.7031 69.1895 29.7031C69.1895 29.7031 69.3522 29.1497 69.6777 28.043C69.9707 26.9362 70.3125 25.6829 70.7031 24.2832C71.1914 22.5254 71.6634 20.8652 72.1191 19.3027C72.5423 17.7077 72.7539 16.9102 72.7539 16.9102C72.7539 16.9102 73.3398 16.9102 74.5117 16.9102C75.651 16.9102 76.9531 16.9102 78.418 16.9102C80.2409 16.9102 81.9824 16.9102 83.6426 16.9102C85.2702 16.9102 86.084 16.9102 86.084 16.9102C86.084 16.9102 86.2142 17.138 86.4746 17.5938C86.7676 18.082 87.0931 18.6191 87.4512 19.2051C87.8743 19.9212 88.2812 20.6211 88.6719 21.3047C89.0625 21.9557 89.2578 22.2812 89.2578 22.2812ZM102.002 17.1055C102.002 17.1055 102.002 17.1217 102.002 17.1543C102.002 17.1543 102.474 17.1543 103.418 17.1543C104.329 17.1217 104.785 17.1055 104.785 17.1055C104.785 17.1055 105.143 17.4635 105.859 18.1797C106.576 18.8633 107.324 19.5794 108.105 20.3281C108.757 20.9466 109.326 21.5 109.814 21.9883C110.303 22.444 110.547 22.6719 110.547 22.6719C110.547 22.6719 110.352 23.3717 109.961 24.7715C109.57 26.1712 109.163 27.6523 108.74 29.2148C108.382 30.4518 108.073 31.5586 107.812 32.5352C107.52 33.5117 107.373 34 107.373 34C107.373 34 106.934 34 106.055 34C105.143 34 104.183 34 103.174 34C102.36 34 101.644 34 101.025 34C100.374 34 100.049 34 100.049 34C100.049 34 100.293 33.1211 100.781 31.3633C101.27 29.638 101.79 27.8151 102.344 25.8945C102.799 24.2995 103.19 22.8997 103.516 21.6953C103.874 20.4909 104.053 19.8887 104.053 19.8887C104.02 19.2702 103.825 18.7331 103.467 18.2773C103.109 17.7891 102.62 17.431 102.002 17.2031C102.002 17.2031 101.953 17.3496 101.855 17.6426C101.79 17.9355 101.693 18.3262 101.562 18.8145C101.27 19.7585 100.928 20.9629 100.537 22.4277C100.114 23.8926 99.6908 25.3737 99.2676 26.8711C98.7467 28.7266 98.291 30.3867 97.9004 31.8516C97.4772 33.2839 97.2656 34 97.2656 34C97.2656 34 96.9564 34 96.3379 34C95.7194 34 95.0033 34 94.1895 34C93.1803 34 92.2201 34 91.3086 34C90.3971 34 89.9414 34 89.9414 34C89.9414 34 90.0879 33.528 90.3809 32.584C90.6413 31.6074 90.9668 30.4355 91.3574 29.0684C91.5527 28.3197 91.7643 27.5384 91.9922 26.7246C92.2201 25.9108 92.4479 25.097 92.6758 24.2832C93.1966 22.3952 93.6686 20.735 94.0918 19.3027C94.4824 17.8379 94.6777 17.1055 94.6777 17.1055C94.6777 17.1055 95.1335 17.1055 96.0449 17.1055C96.9564 17.1055 97.9004 17.1055 98.877 17.1055C99.6908 17.1055 100.423 17.1055 101.074 17.1055C101.693 17.1055 102.002 17.1055 102.002 17.1055Z" fill="white"/>
</svg>
