<svg width="212" height="35" viewBox="0 0 212 35" fill="none" xmlns="http://www.w3.org/2000/svg">
<path d="M13.1348 17.3008C13.1348 17.3008 13.6882 17.0078 14.7949 16.4219C15.8691 15.8359 16.4062 15.543 16.4062 15.543C16.4062 15.543 16.569 14.9245 16.8945 13.6875C17.2526 12.418 17.6432 11.0671 18.0664 9.63477C18.3268 8.69076 18.571 7.79557 18.7988 6.94922C19.0267 6.10286 19.2057 5.48438 19.3359 5.09375C19.401 4.86589 19.3522 4.55664 19.1895 4.16602C19.0267 3.80794 18.8639 3.62891 18.7012 3.62891C18.7012 3.62891 18.4082 3.62891 17.8223 3.62891C17.2689 3.62891 16.9922 3.62891 16.9922 3.62891C16.9922 3.62891 16.748 4.47526 16.2598 6.16797C15.804 7.86068 15.3158 9.63477 14.7949 11.4902C14.3717 13.0202 13.9974 14.3711 13.6719 15.543C13.3138 16.7148 13.1348 17.3008 13.1348 17.3008ZM10.4492 0.259766C10.4492 0.259766 10.9375 0.259766 11.9141 0.259766C12.9232 0.259766 14.1602 0.259766 15.625 0.259766C16.4062 0.259766 17.2201 0.259766 18.0664 0.259766C18.9128 0.259766 19.7591 0.259766 20.6055 0.259766C22.5911 0.259766 24.349 0.259766 25.8789 0.259766C27.4089 0.259766 28.1738 0.259766 28.1738 0.259766C28.1738 0.259766 27.9134 1.17122 27.3926 2.99414C26.8717 4.81706 26.3346 6.73763 25.7812 8.75586C25.3255 10.3835 24.9186 11.832 24.5605 13.1016C24.2025 14.3711 24.0234 15.0059 24.0234 15.0059C24.0234 15.0059 23.5026 15.2826 22.4609 15.8359C21.4518 16.3893 20.2637 17.0241 18.8965 17.7402C17.2689 18.6191 15.7227 19.4492 14.2578 20.2305C12.7604 21.0117 12.0117 21.4023 12.0117 21.4023C12.0117 21.4023 11.7839 22.1836 11.3281 23.7461C10.9049 25.3086 10.4492 26.9362 9.96094 28.6289C9.57031 30.0612 9.22852 31.3145 8.93555 32.3887C8.64258 33.4629 8.49609 34 8.49609 34C8.49609 34 8.02409 34 7.08008 34C6.16862 34 5.20833 34 4.19922 34C3.35286 34 2.60417 34 1.95312 34C1.30208 34 0.976562 34 0.976562 34C0.976562 34 1.04167 33.8047 1.17188 33.4141C1.26953 33.0234 1.41602 32.4701 1.61133 31.7539C2.00195 30.4518 2.49023 28.7266 3.07617 26.5781C3.69466 24.3971 4.3457 22.0859 5.0293 19.6445C5.45247 18.0495 5.89193 16.4219 6.34766 14.7617C6.80339 13.1341 7.24284 11.5879 7.66602 10.123C8.44727 7.32357 9.09831 4.97982 9.61914 3.0918C10.1725 1.20378 10.4492 0.259766 10.4492 0.259766ZM30.7617 17.3008C30.7617 17.3008 30.6152 17.8704 30.3223 19.0098C29.9967 20.1491 29.6224 21.4674 29.1992 22.9648C28.6784 24.7552 28.1901 26.4805 27.7344 28.1406C27.2786 29.8008 27.0508 30.6309 27.0508 30.6309C27.0508 30.6309 27.6855 30.6309 28.9551 30.6309C30.2246 30.6309 30.8594 30.6309 30.8594 30.6309C30.8594 30.6309 31.0221 30.0449 31.3477 28.873C31.6406 27.7337 31.9987 26.4316 32.4219 24.9668C32.9427 23.1439 33.431 21.4023 33.8867 19.7422C34.3424 18.1146 34.5703 17.3008 34.5703 17.3008C34.5703 17.3008 35.026 17.3008 35.9375 17.3008C36.849 17.3008 37.793 17.3008 38.7695 17.3008C39.5833 17.3008 40.2995 17.3008 40.918 17.3008C41.569 17.3008 41.8945 17.3008 41.8945 17.3008C41.8945 17.3008 41.8457 17.4473 41.748 17.7402C41.6829 18.0332 41.569 18.4238 41.4062 18.9121C41.1458 19.8561 40.8203 21.0443 40.4297 22.4766C40.0065 23.9414 39.5833 25.4062 39.1602 26.8711C38.6393 28.7591 38.1836 30.4193 37.793 31.8516C37.3698 33.2839 37.1582 34 37.1582 34C37.1582 34 36.4746 34 35.1074 34C33.7402 34 32.3079 34 30.8105 34C29.5736 34 28.4668 34 27.4902 34C26.5462 34 26.0742 34 26.0742 34C26.0742 34 25.6836 33.7721 24.9023 33.3164C24.1536 32.8932 23.3398 32.4375 22.4609 31.9492C21.7773 31.5586 21.1589 31.2005 20.6055 30.875C20.0521 30.582 19.7754 30.4355 19.7754 30.4355C19.7754 30.4355 20.0195 29.6217 20.5078 27.9941C20.9635 26.3665 21.4355 24.6576 21.9238 22.8672C22.347 21.4023 22.7051 20.1003 22.998 18.9609C23.3236 17.8542 23.4863 17.3008 23.4863 17.3008C23.4863 17.3008 23.9421 17.3008 24.8535 17.3008C25.765 17.3008 26.709 17.3008 27.6855 17.3008C28.4993 17.3008 29.2155 17.3008 29.834 17.3008C30.4525 17.3008 30.7617 17.3008 30.7617 17.3008ZM49.8047 30.4844C50.0977 30.4844 50.5534 30.2728 51.1719 29.8496C51.7578 29.3939 52.0996 29.0195 52.1973 28.7266C52.2949 28.3685 52.4414 27.8477 52.6367 27.1641C52.7995 26.4805 52.9948 25.7643 53.2227 25.0156C53.5482 23.8438 53.8411 22.7695 54.1016 21.793C54.3945 20.7839 54.541 20.2793 54.541 20.2793C54.541 20.2793 54.3132 20.2793 53.8574 20.2793C53.4342 20.2793 53.0762 20.2793 52.7832 20.2793C52.4902 20.2793 52.0833 20.4421 51.5625 20.7676C51.0091 21.0605 50.6999 21.3047 50.6348 21.5C50.5697 21.8255 50.4232 22.3626 50.1953 23.1113C50 23.8275 49.7884 24.5924 49.5605 25.4062C49.2025 26.6432 48.877 27.7988 48.584 28.873C48.291 29.9473 48.1445 30.4844 48.1445 30.4844C48.1445 30.4844 48.3561 30.4844 48.7793 30.4844C49.1699 30.4844 49.5117 30.4844 49.8047 30.4844ZM60.9375 16.8613C60.9375 16.8613 61.2467 16.8613 61.8652 16.8613C62.5163 16.8613 62.8418 16.8613 62.8418 16.8613C62.8418 16.8613 62.6302 17.5938 62.207 19.0586C61.7839 20.556 61.3118 22.2487 60.791 24.1367C60.3678 25.6667 59.9447 27.1803 59.5215 28.6777C59.0983 30.1751 58.7565 31.3958 58.4961 32.3398C58.3659 32.8281 58.252 33.2188 58.1543 33.5117C58.0892 33.8047 58.0566 33.9512 58.0566 33.9512C58.0566 33.9512 57.7962 33.9512 57.2754 33.9512C56.7871 33.9512 56.543 33.9512 56.543 33.9512C56.543 33.9512 56.543 33.9674 56.543 34C56.543 34 56.1849 34 55.4688 34C54.7526 33.9674 54.3945 33.9512 54.3945 33.9512C54.3945 33.9512 53.7598 33.9512 52.4902 33.9512C51.2533 33.9512 50.6348 33.9512 50.6348 33.9512C50.6348 33.9512 50.0488 33.9512 48.877 33.9512C47.6725 33.9512 47.0703 33.9512 47.0703 33.9512C47.0703 33.9512 47.0703 33.9674 47.0703 34C47.0703 34 46.7122 34 45.9961 34C45.2474 34 44.401 34 43.457 34C42.3177 34 41.2109 34 40.1367 34C39.0951 34 38.5742 34 38.5742 34C38.5742 34 38.6556 33.707 38.8184 33.1211C38.9811 32.5352 39.209 31.7376 39.502 30.7285C40.0228 28.8405 40.6901 26.4316 41.5039 23.502C42.3503 20.5397 43.1803 17.5775 43.9941 14.6152C44.6777 12.1738 45.3288 9.86263 45.9473 7.68164C46.5332 5.5332 47.0052 3.80794 47.3633 2.50586C47.5586 1.78971 47.7214 1.23633 47.8516 0.845703C47.9492 0.455078 47.998 0.259766 47.998 0.259766C47.998 0.259766 48.5352 0.259766 49.6094 0.259766C50.651 0.259766 51.7415 0.259766 52.8809 0.259766C53.8249 0.259766 54.6712 0.259766 55.4199 0.259766C56.1361 0.259766 56.4941 0.259766 56.4941 0.259766C56.4941 0.259766 56.3639 0.715495 56.1035 1.62695C55.8431 2.57096 55.5176 3.72656 55.127 5.09375C54.9316 5.8099 54.7201 6.57487 54.4922 7.38867C54.2643 8.20247 54.0527 9 53.8574 9.78125C53.3366 11.6367 52.8809 13.2806 52.4902 14.7129C52.0671 16.1126 51.8555 16.8125 51.8555 16.8125C51.8555 16.8125 52.4251 16.8288 53.5645 16.8613C54.6712 16.8613 55.8431 16.8613 57.0801 16.8613C58.0892 16.8613 58.9844 16.8613 59.7656 16.8613C60.5469 16.8613 60.9375 16.8613 60.9375 16.8613ZM69.2383 34C69.2383 34 68.75 34.0163 67.7734 34.0488C66.7643 34.0488 65.7227 34.0488 64.6484 34.0488C63.737 34.0488 62.9395 34.0651 62.2559 34.0977C61.5397 34.0977 61.1816 34.0977 61.1816 34.0977C61.1816 34.0977 61.4421 33.1536 61.9629 31.2656C62.4837 29.3776 63.1185 27.0501 63.8672 24.2832C64.2578 22.7858 64.681 21.2233 65.1367 19.5957C65.5599 17.9681 65.9831 16.3568 66.4062 14.7617C67.0898 12.3203 67.7083 10.0254 68.2617 7.87695C68.8477 5.72852 69.3197 3.98698 69.6777 2.65234C69.873 1.96875 70.0195 1.43164 70.1172 1.04102C70.2474 0.617839 70.3125 0.40625 70.3125 0.40625C70.3125 0.40625 70.6543 0.40625 71.3379 0.40625C72.0215 0.40625 72.8027 0.40625 73.6816 0.40625C74.7884 0.40625 75.8301 0.389974 76.8066 0.357422C77.7832 0.357422 78.2715 0.357422 78.2715 0.357422C78.2715 0.357422 78.1901 0.650391 78.0273 1.23633C77.8646 1.82227 77.653 2.61979 77.3926 3.62891C76.8717 5.48438 76.2207 7.89323 75.4395 10.8555C74.6582 13.7852 73.877 16.7311 73.0957 19.6934C72.4447 22.1348 71.8262 24.4297 71.2402 26.5781C70.6543 28.7266 70.1823 30.4681 69.8242 31.8027C69.6615 32.4863 69.515 33.0234 69.3848 33.4141C69.2871 33.8047 69.2383 34 69.2383 34ZM76.7578 16.7637C76.7578 16.7637 77.2298 16.7637 78.1738 16.7637C79.0853 16.7637 80.0456 16.7637 81.0547 16.7637C81.901 16.7637 82.6335 16.7637 83.252 16.7637C83.903 16.7637 84.2285 16.7637 84.2285 16.7637C84.2285 16.7637 84.0983 17.2357 83.8379 18.1797C83.5449 19.1562 83.2031 20.3607 82.8125 21.793C82.6172 22.5417 82.4056 23.3392 82.1777 24.1855C81.9173 24.9993 81.6732 25.8294 81.4453 26.6758C80.9245 28.5964 80.4525 30.2891 80.0293 31.7539C79.6061 33.2513 79.3945 34 79.3945 34C79.3945 34 78.9388 34 78.0273 34C77.1159 34 76.1556 34 75.1465 34C74.3001 34 73.5514 34 72.9004 34C72.2493 34 71.9238 34 71.9238 34C71.9238 34 72.0703 33.5117 72.3633 32.5352C72.6237 31.5586 72.9492 30.3704 73.3398 28.9707C73.5677 28.222 73.7956 27.4245 74.0234 26.5781C74.2513 25.7318 74.4792 24.9017 74.707 24.0879C75.2604 22.1673 75.7324 20.4583 76.123 18.9609C76.5462 17.4961 76.7578 16.7637 76.7578 16.7637ZM78.3691 10.2207C78.3691 10.2207 78.8249 10.2207 79.7363 10.2207C80.6478 10.2207 81.6081 10.2207 82.6172 10.2207C83.4635 10.2207 84.2122 10.2207 84.8633 10.2207C85.4818 10.2207 85.791 10.2207 85.791 10.2207C85.791 10.2207 85.612 10.8717 85.2539 12.1738C84.8958 13.4434 84.7168 14.0781 84.7168 14.0781C84.7168 14.0781 84.2611 14.0781 83.3496 14.0781C82.4382 14.0781 81.4779 14.0781 80.4688 14.0781C79.6224 14.0781 78.8737 14.0781 78.2227 14.0781C77.5716 14.0781 77.2461 14.0781 77.2461 14.0781C77.2461 14.0781 77.4414 13.4434 77.832 12.1738C78.1901 10.8717 78.3691 10.2207 78.3691 10.2207ZM88.2812 16.4707C88.2812 16.4707 89.0462 16.4707 90.5762 16.4707C92.1061 16.4707 93.8639 16.4707 95.8496 16.4707C97.4121 16.4707 98.9746 16.4707 100.537 16.4707C102.1 16.4707 103.369 16.4707 104.346 16.4707C104.899 16.4707 105.322 16.4707 105.615 16.4707C105.941 16.4707 106.104 16.4707 106.104 16.4707C106.104 16.4707 105.892 17.2194 105.469 18.7168C105.046 20.2142 104.834 20.9629 104.834 20.9629C104.834 20.9629 104.281 21.2396 103.174 21.793C102.1 22.3464 100.944 22.9323 99.707 23.5508C98.7305 24.0391 97.8516 24.4785 97.0703 24.8691C96.3216 25.2598 95.9473 25.4551 95.9473 25.4551C95.9473 25.4551 96.0286 25.1133 96.1914 24.4297C96.3867 23.7461 96.582 23.0462 96.7773 22.3301C96.9727 21.7116 97.1354 21.1745 97.2656 20.7188C97.3958 20.2305 97.4609 19.9863 97.4609 19.9863C97.4609 19.9863 96.8587 19.9863 95.6543 19.9863C94.4499 19.9863 93.8477 19.9863 93.8477 19.9863C93.8477 19.9863 93.6686 20.6374 93.3105 21.9395C92.9525 23.209 92.5618 24.5599 92.1387 25.9922C91.8457 27.1641 91.569 28.2057 91.3086 29.1172C91.0482 29.9961 90.918 30.4355 90.918 30.4355C90.918 30.4355 91.39 30.4355 92.334 30.4355C93.3105 30.4355 94.4173 30.4355 95.6543 30.4355C97.1842 30.4681 98.6328 30.4844 100 30.4844C101.4 30.4844 102.1 30.4844 102.1 30.4844C102.1 30.4844 101.79 31.0703 101.172 32.2422C100.553 33.4141 100.244 34 100.244 34C100.244 34 99.7396 34 98.7305 34C97.7214 34 96.4844 34 95.0195 34C94.2383 34 93.4245 34 92.5781 34C91.6992 34 90.8366 34 89.9902 34C88.0046 34 86.2467 34 84.7168 34C83.1868 34 82.4219 34 82.4219 34C82.4219 33.9674 82.4219 33.9512 82.4219 33.9512C82.4219 33.9512 82.4056 33.9512 82.373 33.9512C82.3405 33.9512 82.3242 33.9512 82.3242 33.9512C82.3242 33.9512 82.4707 33.4629 82.7637 32.4863C83.0241 31.5098 83.3659 30.3053 83.7891 28.873C83.9844 28.0918 84.2122 27.278 84.4727 26.4316C84.7005 25.5853 84.9284 24.7552 85.1562 23.9414C85.7096 21.9557 86.1979 20.2142 86.6211 18.7168C87.0443 17.2194 87.2559 16.4707 87.2559 16.4707C87.2559 16.4707 87.4186 16.4707 87.7441 16.4707C88.0697 16.4707 88.2324 16.4707 88.2324 16.4707C88.2324 16.4707 88.2487 16.4707 88.2812 16.4707ZM136.328 18.8633C136.328 18.8633 135.954 18.8633 135.205 18.8633C134.424 18.8633 133.61 18.8633 132.764 18.8633C132.08 18.8633 131.462 18.8633 130.908 18.8633C130.387 18.8633 130.127 18.8633 130.127 18.8633C130.127 18.8633 129.85 19.791 129.297 21.6465C128.743 23.502 128.174 25.4714 127.588 27.5547C127.1 29.2474 126.66 30.7448 126.27 32.0469C125.911 33.349 125.732 34 125.732 34C125.732 34 125.244 34 124.268 34C123.324 34 122.347 34 121.338 34C120.492 34 119.727 34 119.043 34C118.392 34 118.066 34 118.066 34C118.066 34 118.132 33.8047 118.262 33.4141C118.359 33.0234 118.506 32.4701 118.701 31.7539C119.092 30.4518 119.58 28.7266 120.166 26.5781C120.785 24.3971 121.436 22.0859 122.119 19.6445C122.542 18.0495 122.982 16.4219 123.438 14.7617C123.893 13.1341 124.333 11.5879 124.756 10.123C125.537 7.32357 126.188 4.97982 126.709 3.0918C127.262 1.20378 127.539 0.259766 127.539 0.259766C127.539 0.259766 128.044 0.259766 129.053 0.259766C130.094 0.259766 131.396 0.259766 132.959 0.259766C133.74 0.259766 134.587 0.259766 135.498 0.259766C136.41 0.259766 137.305 0.259766 138.184 0.259766C140.234 0.259766 142.074 0.259766 143.701 0.259766C145.296 0.259766 146.094 0.259766 146.094 0.259766C146.094 0.259766 146.012 0.552734 145.85 1.13867C145.687 1.72461 145.492 2.4082 145.264 3.18945C145.003 4.10091 144.759 4.99609 144.531 5.875C144.271 6.72135 144.141 7.14453 144.141 7.14453C144.141 7.14453 143.62 7.3724 142.578 7.82812C141.504 8.28385 140.397 8.75586 139.258 9.24414C138.314 9.66732 137.467 10.0417 136.719 10.3672C136.003 10.6602 135.645 10.8066 135.645 10.8066C135.645 10.8066 135.872 9.96029 136.328 8.26758C136.816 6.60742 137.142 5.4681 137.305 4.84961C137.37 4.62174 137.191 4.32878 136.768 3.9707C136.344 3.64518 135.986 3.48242 135.693 3.48242C135.693 3.48242 135.433 3.48242 134.912 3.48242C134.359 3.48242 134.082 3.48242 134.082 3.48242C134.082 3.48242 133.887 4.21484 133.496 5.67969C133.073 7.11198 132.65 8.64193 132.227 10.2695C131.868 11.5716 131.543 12.7272 131.25 13.7363C130.957 14.7454 130.811 15.25 130.811 15.25C130.811 15.25 131.266 15.25 132.178 15.25C133.089 15.25 134.066 15.25 135.107 15.25C135.921 15.25 136.654 15.25 137.305 15.25C137.923 15.25 138.232 15.25 138.232 15.25C138.232 15.25 137.923 15.8522 137.305 17.0566C136.654 18.2611 136.328 18.8633 136.328 18.8633ZM149.658 17.3008C149.658 17.3008 149.512 17.8704 149.219 19.0098C148.893 20.1491 148.519 21.4674 148.096 22.9648C147.575 24.7552 147.087 26.4805 146.631 28.1406C146.175 29.8008 145.947 30.6309 145.947 30.6309C145.947 30.6309 146.582 30.6309 147.852 30.6309C149.121 30.6309 149.756 30.6309 149.756 30.6309C149.756 30.6309 149.919 30.0449 150.244 28.873C150.537 27.7337 150.895 26.4316 151.318 24.9668C151.839 23.1439 152.327 21.4023 152.783 19.7422C153.239 18.1146 153.467 17.3008 153.467 17.3008C153.467 17.3008 153.923 17.3008 154.834 17.3008C155.745 17.3008 156.689 17.3008 157.666 17.3008C158.48 17.3008 159.196 17.3008 159.814 17.3008C160.465 17.3008 160.791 17.3008 160.791 17.3008C160.791 17.3008 160.742 17.4473 160.645 17.7402C160.579 18.0332 160.465 18.4238 160.303 18.9121C160.042 19.8561 159.717 21.0443 159.326 22.4766C158.903 23.9414 158.48 25.4062 158.057 26.8711C157.536 28.7591 157.08 30.4193 156.689 31.8516C156.266 33.2839 156.055 34 156.055 34C156.055 34 155.371 34 154.004 34C152.637 34 151.204 34 149.707 34C148.47 34 147.363 34 146.387 34C145.443 34 144.971 34 144.971 34C144.971 34 144.58 33.7721 143.799 33.3164C143.05 32.8932 142.236 32.4375 141.357 31.9492C140.674 31.5586 140.055 31.2005 139.502 30.875C138.949 30.582 138.672 30.4355 138.672 30.4355C138.672 30.4355 138.916 29.6217 139.404 27.9941C139.86 26.3665 140.332 24.6576 140.82 22.8672C141.243 21.4023 141.602 20.1003 141.895 18.9609C142.22 17.8542 142.383 17.3008 142.383 17.3008C142.383 17.3008 142.839 17.3008 143.75 17.3008C144.661 17.3008 145.605 17.3008 146.582 17.3008C147.396 17.3008 148.112 17.3008 148.73 17.3008C149.349 17.3008 149.658 17.3008 149.658 17.3008ZM172.217 17.1055C172.217 17.1055 172.217 17.1217 172.217 17.1543C172.217 17.1543 172.689 17.1543 173.633 17.1543C174.544 17.1217 175 17.1055 175 17.1055C175 17.1055 175.358 17.4635 176.074 18.1797C176.79 18.8633 177.539 19.5794 178.32 20.3281C178.971 20.9466 179.541 21.5 180.029 21.9883C180.518 22.444 180.762 22.6719 180.762 22.6719C180.762 22.6719 180.566 23.3717 180.176 24.7715C179.785 26.1712 179.378 27.6523 178.955 29.2148C178.597 30.4518 178.288 31.5586 178.027 32.5352C177.734 33.5117 177.588 34 177.588 34C177.588 34 177.148 34 176.27 34C175.358 34 174.398 34 173.389 34C172.575 34 171.859 34 171.24 34C170.589 34 170.264 34 170.264 34C170.264 34 170.508 33.1211 170.996 31.3633C171.484 29.638 172.005 27.8151 172.559 25.8945C173.014 24.2995 173.405 22.8997 173.73 21.6953C174.089 20.4909 174.268 19.8887 174.268 19.8887C174.235 19.2702 174.04 18.7331 173.682 18.2773C173.324 17.7891 172.835 17.431 172.217 17.2031C172.217 17.2031 172.168 17.3496 172.07 17.6426C172.005 17.9355 171.908 18.3262 171.777 18.8145C171.484 19.7585 171.143 20.9629 170.752 22.4277C170.329 23.8926 169.906 25.3737 169.482 26.8711C168.962 28.7266 168.506 30.3867 168.115 31.8516C167.692 33.2839 167.48 34 167.48 34C167.48 34 167.171 34 166.553 34C165.934 34 165.218 34 164.404 34C163.395 34 162.435 34 161.523 34C160.612 34 160.156 34 160.156 34C160.156 34 160.303 33.528 160.596 32.584C160.856 31.6074 161.182 30.4355 161.572 29.0684C161.768 28.3197 161.979 27.5384 162.207 26.7246C162.435 25.9108 162.663 25.097 162.891 24.2832C163.411 22.3952 163.883 20.735 164.307 19.3027C164.697 17.8379 164.893 17.1055 164.893 17.1055C164.893 17.1055 165.348 17.1055 166.26 17.1055C167.171 17.1055 168.115 17.1055 169.092 17.1055C169.906 17.1055 170.638 17.1055 171.289 17.1055C171.908 17.1055 172.217 17.1055 172.217 17.1055ZM193.604 21.9883C193.604 21.9883 193.457 22.5254 193.164 23.5996C192.871 24.6738 192.562 25.7969 192.236 26.9688C191.976 27.9128 191.748 28.7591 191.553 29.5078C191.325 30.2565 191.211 30.6309 191.211 30.6309C191.211 30.6309 191.553 30.6309 192.236 30.6309C192.887 30.6309 193.376 30.6309 193.701 30.6309C193.962 30.6309 194.352 30.403 194.873 29.9473C195.394 29.4915 195.687 29.1172 195.752 28.8242C195.85 28.4661 195.996 27.9453 196.191 27.2617C196.387 26.6107 196.582 25.8945 196.777 25.1133C197.103 23.974 197.396 22.916 197.656 21.9395C197.949 20.9303 198.096 20.4258 198.096 20.4258C198.096 20.4258 197.705 20.4258 196.924 20.4258C196.143 20.4258 195.589 20.4258 195.264 20.4258C195.068 20.4258 194.759 20.6211 194.336 21.0117C193.945 21.4023 193.701 21.7279 193.604 21.9883ZM195.02 16.959C195.02 16.959 195.687 16.959 197.021 16.959C198.389 16.959 199.072 16.959 199.072 16.959C199.072 16.959 199.105 16.8288 199.17 16.5684C199.268 16.2754 199.382 15.8685 199.512 15.3477C199.772 14.4362 200.098 13.248 200.488 11.7832C200.911 10.3509 201.318 8.90234 201.709 7.4375C202.23 5.54948 202.702 3.9056 203.125 2.50586C203.516 1.07357 203.711 0.357422 203.711 0.357422C203.711 0.357422 204.215 0.341146 205.225 0.308594C206.234 0.308594 207.308 0.308594 208.447 0.308594C209.359 0.308594 210.156 0.292318 210.84 0.259766C211.556 0.259766 211.914 0.259766 211.914 0.259766C211.914 0.259766 211.654 1.22005 211.133 3.14062C210.612 5.02865 209.961 7.35612 209.18 10.123C208.757 11.6204 208.317 13.1829 207.861 14.8105C207.406 16.4382 206.95 18.0658 206.494 19.6934C206.136 20.9954 205.778 22.265 205.42 23.502C205.094 24.7715 204.769 25.9596 204.443 27.0664C203.89 29.0846 203.418 30.7448 203.027 32.0469C202.669 33.349 202.49 34 202.49 34C202.49 34 201.986 34.0163 200.977 34.0488C199.967 34.0488 198.893 34.0488 197.754 34.0488C196.842 34.0488 196.045 34.0651 195.361 34.0977C194.645 34.0977 194.287 34.0977 194.287 34.0977C194.287 34.0977 193.571 34.0977 192.139 34.0977C190.739 34.0977 189.258 34.0814 187.695 34.0488C186.393 34.0488 185.254 34.0488 184.277 34.0488C183.268 34.0488 182.764 34.0488 182.764 34.0488C182.764 34.0488 182.796 34.0163 182.861 33.9512C182.894 33.8535 182.91 33.8047 182.91 33.8047C182.91 33.8047 183.04 33.3327 183.301 32.3887C183.561 31.4447 183.887 30.2728 184.277 28.873C184.505 28.1243 184.733 27.3431 184.961 26.5293C185.189 25.7155 185.417 24.918 185.645 24.1367C186.165 22.2487 186.621 20.5723 187.012 19.1074C187.435 17.6751 187.646 16.959 187.646 16.959C187.646 16.959 187.956 16.959 188.574 16.959C189.225 16.959 189.958 16.959 190.771 16.959C191.781 16.959 192.741 16.959 193.652 16.959C194.564 16.959 195.02 16.959 195.02 16.959Z" fill="white"/>
</svg>
