<svg width="100" height="34" viewBox="0 0 100 34" fill="none" xmlns="http://www.w3.org/2000/svg">
<path d="M18.5547 17.0078C18.5547 17.0078 18.6849 17.2682 18.9453 17.7891C19.2057 18.3099 19.4987 18.8958 19.8242 19.5469C20.2474 20.3932 20.638 21.1908 20.9961 21.9395C21.3542 22.6882 21.5332 23.0625 21.5332 23.0625C21.5332 23.0625 21.5495 23.0625 21.582 23.0625C21.582 23.0625 21.4518 23.5345 21.1914 24.4785C20.931 25.4225 20.638 26.513 20.3125 27.75C19.8893 29.2148 19.4824 30.6309 19.0918 31.998C18.7337 33.3327 18.5547 34 18.5547 34C18.5547 34 17.806 34 16.3086 34C14.7786 34 13.0371 34 11.084 34C10.2702 34 9.4401 34 8.59375 34C7.7474 34 6.93359 34 6.15234 34C4.72005 34 3.49935 34 2.49023 34C1.48112 34 0.976562 34 0.976562 34C0.976562 34 1.10677 33.5443 1.36719 32.6328C1.6276 31.7214 1.92057 30.6797 2.24609 29.5078C2.66927 28.043 3.0599 26.6595 3.41797 25.3574C3.77604 24.0879 3.95508 23.4531 3.95508 23.4531C3.95508 23.4531 4.2806 23.4531 4.93164 23.4531C5.55013 23.4531 6.28255 23.4531 7.12891 23.4531C8.13802 23.4531 9.11458 23.4531 10.0586 23.4531C10.9701 23.4531 11.4258 23.4531 11.4258 23.4531C11.4258 23.4531 11.3444 23.7461 11.1816 24.332C11.0189 24.918 10.8398 25.569 10.6445 26.2852C10.3841 27.2292 10.14 28.1081 9.91211 28.9219C9.68424 29.7682 9.57031 30.1914 9.57031 30.1914C9.57031 30.1914 9.66797 30.1914 9.86328 30.1914C10.0586 30.1914 10.1562 30.1914 10.1562 30.1914C10.3841 30.1914 10.8561 29.8984 11.5723 29.3125C12.2559 28.7266 12.6465 28.2383 12.7441 27.8477C12.8418 27.5221 12.972 27.0664 13.1348 26.4805C13.2975 25.8945 13.4766 25.276 13.6719 24.625C13.9323 23.6484 14.1927 22.737 14.4531 21.8906C14.681 21.0768 14.7949 20.6699 14.7949 20.6699C14.7949 20.6699 14.5508 20.6699 14.0625 20.6699C13.5742 20.6699 13.0208 20.6699 12.4023 20.6699C11.6536 20.6699 10.9212 20.6699 10.2051 20.6699C9.52148 20.6699 9.17969 20.6699 9.17969 20.6699C9.17969 20.6699 9.17969 20.6374 9.17969 20.5723C9.17969 20.4746 9.17969 20.4258 9.17969 20.4258C9.17969 20.4258 9.04948 20.1979 8.78906 19.7422C8.5612 19.2539 8.28451 18.7005 7.95898 18.082C7.56836 17.3333 7.19401 16.6172 6.83594 15.9336C6.51042 15.25 6.34766 14.9082 6.34766 14.9082C6.34766 14.9082 6.5918 13.9967 7.08008 12.1738C7.60091 10.3835 8.13802 8.47917 8.69141 6.46094C9.14714 4.83333 9.55404 3.40104 9.91211 2.16406C10.2702 0.894531 10.4492 0.259766 10.4492 0.259766C10.4492 0.259766 11.1979 0.259766 12.6953 0.259766C14.1927 0.259766 15.918 0.259766 17.8711 0.259766C18.7174 0.259766 19.5638 0.259766 20.4102 0.259766C21.224 0.259766 22.0378 0.259766 22.8516 0.259766C24.2839 0.259766 25.4883 0.259766 26.4648 0.259766C27.474 0.259766 27.9785 0.259766 27.9785 0.259766C27.9785 0.259766 27.8483 0.682943 27.5879 1.5293C27.36 2.37565 27.0833 3.36849 26.7578 4.50781C26.3997 5.84245 26.0417 7.12826 25.6836 8.36523C25.3581 9.60221 25.1953 10.2207 25.1953 10.2207C25.1953 10.2207 24.7233 10.237 23.7793 10.2695C22.8353 10.2695 21.8587 10.2858 20.8496 10.3184C20.0033 10.3509 19.2546 10.3672 18.6035 10.3672C17.9525 10.3997 17.627 10.416 17.627 10.416C17.627 10.416 17.7409 10.0091 17.9688 9.19531C18.1966 8.34896 18.4408 7.47005 18.7012 6.55859C18.929 5.8099 19.1243 5.15885 19.2871 4.60547C19.4499 4.01953 19.5312 3.72656 19.5312 3.72656C19.5312 3.72656 19.401 3.72656 19.1406 3.72656C18.9128 3.72656 18.7988 3.72656 18.7988 3.72656C18.6035 3.72656 18.1641 4.01953 17.4805 4.60547C16.7969 5.19141 16.4062 5.67969 16.3086 6.07031C16.1784 6.52604 15.9831 7.19336 15.7227 8.07227C15.4948 8.95117 15.2344 9.87891 14.9414 10.8555C14.5508 12.3203 14.1764 13.6875 13.8184 14.957C13.4603 16.2266 13.2812 16.8613 13.2812 16.8613C13.2812 16.8613 13.6068 16.8613 14.2578 16.8613C14.9089 16.8613 15.5924 16.8613 16.3086 16.8613C16.8945 16.8613 17.4154 16.8613 17.8711 16.8613C18.3268 16.8613 18.5547 16.8613 18.5547 16.8613C18.5547 16.8613 18.5547 16.8939 18.5547 16.959C18.5547 16.9915 18.5547 17.0078 18.5547 17.0078ZM25.0488 34C25.0488 34 25.2767 33.1699 25.7324 31.5098C26.2207 29.8496 26.709 28.0918 27.1973 26.2363C27.6204 24.7389 27.9948 23.4043 28.3203 22.2324C28.6458 21.0605 28.8086 20.4746 28.8086 20.4746C28.8086 20.4746 28.1738 20.4746 26.9043 20.4746C25.6022 20.4746 24.9512 20.4746 24.9512 20.4746C24.9512 20.4746 25.1302 19.9049 25.4883 18.7656C25.8138 17.6263 25.9766 17.0566 25.9766 17.0566C25.9766 17.0566 26.5951 17.0566 27.832 17.0566C29.1016 17.0892 30.5501 17.1055 32.1777 17.1055C34.1309 17.1055 36.0189 17.1055 37.8418 17.1055C39.6322 17.1055 40.5273 17.1055 40.5273 17.1055C40.5273 17.1055 40.3646 17.6751 40.0391 18.8145C39.681 19.9538 39.502 20.5234 39.502 20.5234C39.502 20.5234 38.9486 20.5234 37.8418 20.5234C36.7025 20.5234 36.1328 20.5234 36.1328 20.5234C36.1328 20.5234 35.8887 21.3535 35.4004 23.0137C34.9447 24.6738 34.4564 26.4154 33.9355 28.2383C33.5449 29.7682 33.1868 31.1029 32.8613 32.2422C32.5358 33.4141 32.373 34 32.373 34C32.373 34 31.9173 34 31.0059 34C30.0944 34 29.1504 34 28.1738 34C27.36 34 26.6276 34 25.9766 34C25.3581 34 25.0488 34 25.0488 34ZM44.6777 23.3066C44.6777 23.3066 45.0521 23.3066 45.8008 23.3066C46.5169 23.3066 47.2819 23.3066 48.0957 23.3066C48.7467 23.3066 49.3327 23.3066 49.8535 23.3066C50.3418 23.3066 50.5859 23.3066 50.5859 23.3066C50.5859 23.3066 50.6999 22.9486 50.9277 22.2324C51.123 21.5163 51.2207 21.1582 51.2207 21.1582C51.2207 21.1582 50.8301 21.1582 50.0488 21.1582C49.235 21.1582 48.3887 21.1582 47.5098 21.1582C46.7936 21.1582 46.1589 21.1582 45.6055 21.1582C45.0521 21.1582 44.7754 21.1582 44.7754 21.1582C44.7754 21.1582 44.9544 20.8978 45.3125 20.377C45.638 19.8561 45.9961 19.3027 46.3867 18.7168C46.6797 18.2285 46.9401 17.8053 47.168 17.4473C47.3958 17.0566 47.5098 16.8613 47.5098 16.8613C47.5098 16.8613 48.0632 16.8613 49.1699 16.8613C50.2441 16.8613 51.4811 16.8613 52.8809 16.8613C54.6061 16.8288 56.25 16.8125 57.8125 16.8125C59.3424 16.8125 60.1074 16.8125 60.1074 16.8125C60.1074 16.8125 59.9772 17.3008 59.7168 18.2773C59.4238 19.2539 59.082 20.4421 58.6914 21.8418C58.4635 22.5905 58.2357 23.388 58.0078 24.2344C57.7799 25.0482 57.5521 25.862 57.3242 26.6758C56.7708 28.5638 56.2826 30.2565 55.8594 31.7539C55.4688 33.2188 55.2734 33.9512 55.2734 33.9512C55.2734 33.9512 54.7363 33.9512 53.6621 33.9512C52.6204 33.9512 51.3184 33.9512 49.7559 33.9512C48.9421 33.9512 48.0794 33.9512 47.168 33.9512C46.224 33.9512 45.3125 33.9674 44.4336 34C42.3177 34 40.446 34 38.8184 34C37.1908 34 36.377 34 36.377 34C36.377 34 36.4746 33.6419 36.6699 32.9258C36.8652 32.1771 37.0605 31.4121 37.2559 30.6309C37.4512 29.9798 37.6139 29.3939 37.7441 28.873C37.8743 28.3848 37.9395 28.1406 37.9395 28.1406C37.9395 28.1406 38.3464 27.8477 39.1602 27.2617C40.0065 26.6758 40.8854 26.041 41.7969 25.3574C42.5456 24.8366 43.2129 24.3646 43.7988 23.9414C44.3848 23.5182 44.6777 23.3066 44.6777 23.3066ZM48.7793 29.5078C48.8444 29.2474 48.9746 28.8079 49.1699 28.1895C49.3327 27.5384 49.4141 27.2129 49.4141 27.2129C49.4141 27.2129 49.1048 27.2129 48.4863 27.2129C47.8678 27.2129 47.3796 27.2129 47.0215 27.2129C46.7611 27.1803 46.3542 27.4408 45.8008 27.9941C45.2474 28.515 44.9382 28.9056 44.873 29.166C44.8079 29.3613 44.7428 29.6217 44.6777 29.9473C44.5801 30.2728 44.5312 30.4355 44.5312 30.4355C44.5312 30.4355 44.8405 30.4193 45.459 30.3867C46.0449 30.3867 46.5007 30.3867 46.8262 30.3867C47.1191 30.3867 47.5098 30.2728 47.998 30.0449C48.4863 29.8496 48.7467 29.6706 48.7793 29.5078ZM63.8184 16.7637C63.8184 16.7637 64.3229 16.7637 65.332 16.7637C66.3411 16.7637 67.5781 16.7637 69.043 16.7637C69.8242 16.7637 70.6543 16.7637 71.5332 16.7637C72.3796 16.7637 73.2259 16.7637 74.0723 16.7637C76.0905 16.7637 77.8646 16.7637 79.3945 16.7637C80.9245 16.7637 81.6895 16.7637 81.6895 16.7637C81.6895 16.7637 81.543 17.2845 81.25 18.3262C80.957 19.3678 80.6478 20.4583 80.3223 21.5977C80.0618 22.5417 79.834 23.3717 79.6387 24.0879C79.4108 24.8366 79.2969 25.2109 79.2969 25.2109C79.2969 25.2109 78.8411 25.2109 77.9297 25.2109C77.0182 25.2109 76.0417 25.2109 75 25.2109C74.1862 25.2109 73.4538 25.2109 72.8027 25.2109C72.1517 25.2109 71.8262 25.2109 71.8262 25.2109C71.8262 25.2109 71.9238 24.8854 72.1191 24.2344C72.2819 23.5833 72.4609 22.8997 72.6562 22.1836C72.819 21.6302 72.9655 21.1257 73.0957 20.6699C73.2259 20.2142 73.291 19.9863 73.291 19.9863C73.0632 19.4329 72.7539 18.9772 72.3633 18.6191C72.0052 18.2285 71.5658 17.9681 71.0449 17.8379C71.0449 17.8379 70.8496 18.5215 70.459 19.8887C70.0684 21.2884 69.6126 22.8997 69.0918 24.7227C68.7012 26.1224 68.3105 27.5384 67.9199 28.9707C67.5293 30.3704 67.2038 31.526 66.9434 32.4375C66.8132 32.9258 66.6992 33.3001 66.6016 33.5605C66.5365 33.8535 66.5039 34 66.5039 34C66.5039 34 66.0319 34 65.0879 34C64.1764 34 63.2161 34 62.207 34C61.3607 34 60.612 34 59.9609 34C59.3099 34 58.9844 34 58.9844 34C58.9844 34 59.1309 33.5117 59.4238 32.5352C59.6842 31.5586 60.0098 30.3704 60.4004 28.9707C60.6283 28.222 60.8561 27.4245 61.084 26.5781C61.3118 25.7318 61.5397 24.9017 61.7676 24.0879C62.321 22.1673 62.8092 20.4583 63.2324 18.9609C63.623 17.4961 63.8184 16.7637 63.8184 16.7637ZM83.7402 34C83.7402 34 83.9681 33.1699 84.4238 31.5098C84.9121 29.8496 85.4004 28.0918 85.8887 26.2363C86.3118 24.7389 86.6862 23.4043 87.0117 22.2324C87.3372 21.0605 87.5 20.4746 87.5 20.4746C87.5 20.4746 86.8652 20.4746 85.5957 20.4746C84.2936 20.4746 83.6426 20.4746 83.6426 20.4746C83.6426 20.4746 83.8216 19.9049 84.1797 18.7656C84.5052 17.6263 84.668 17.0566 84.668 17.0566C84.668 17.0566 85.2865 17.0566 86.5234 17.0566C87.793 17.0892 89.2415 17.1055 90.8691 17.1055C92.8223 17.1055 94.7103 17.1055 96.5332 17.1055C98.3236 17.1055 99.2188 17.1055 99.2188 17.1055C99.2188 17.1055 99.056 17.6751 98.7305 18.8145C98.3724 19.9538 98.1934 20.5234 98.1934 20.5234C98.1934 20.5234 97.64 20.5234 96.5332 20.5234C95.3939 20.5234 94.8242 20.5234 94.8242 20.5234C94.8242 20.5234 94.5801 21.3535 94.0918 23.0137C93.6361 24.6738 93.1478 26.4154 92.627 28.2383C92.2363 29.7682 91.8783 31.1029 91.5527 32.2422C91.2272 33.4141 91.0645 34 91.0645 34C91.0645 34 90.6087 34 89.6973 34C88.7858 34 87.8418 34 86.8652 34C86.0514 34 85.319 34 84.668 34C84.0495 34 83.7402 34 83.7402 34Z" fill="white"/>
</svg>
